<?xml version="1.0" encoding="utf-8"?>
<!-- Generator: Adobe Illustrator 27.5.0, SVG Export Plug-In . SVG Version: 6.00 Build 0)  -->
<svg version="1.1" id="OBJECTS" xmlns="http://www.w3.org/2000/svg" xmlns:xlink="http://www.w3.org/1999/xlink" x="0px" y="0px"
	 width="500px" height="500px" viewBox="0 0 500 500" enable-background="new 0 0 500 500" xml:space="preserve">
<polygon fill="#00FFFF" points="439.6,279.1 358.2,293.7 485.1,250 358.2,206.3 439.6,220.9 219.8,75.6 311.7,231.8 295.8,250 
	311.7,268.2 219.8,424.4 "/>
<polygon fill="#009292" points="251,348.7 296.7,275.3 268.1,250 296.7,224.7 251,151.3 134.1,109 251.3,250 134.1,391 "/>
<polygon fill="#00FFFF" points="179.2,315.8 235.8,250 179.2,184.2 50.8,154.2 196.4,250 50.8,345.8 "/>
<polygon fill="#009292" points="95.1,204.3 14.9,250 95.1,295.7 172.1,250 "/>
<polygon fill="#00FFFF" points="282.4,278.1 256.3,260.9 246.1,273.7 276,288.2 "/>
<polygon fill="#00FFFF" points="272.6,293.7 239.8,281.5 230.2,293.5 267.1,302.4 "/>
<polygon fill="#00FFFF" points="276,211.7 246.1,226.3 256.3,239.1 282.4,221.9 "/>
<polygon fill="#00FFFF" points="207.7,321.6 256.5,319.2 263.6,308 222.1,303.7 "/>
<polygon fill="#00FFFF" points="230.2,206.5 239.8,218.5 272.6,206.3 267.1,197.6 "/>
<polygon fill="#00FFFF" points="242.8,340.9 250.9,328.2 197.5,334.4 172.7,365.4 "/>
<polygon fill="#00FFFF" points="172.7,134.6 197.5,165.6 250.9,171.8 242.8,159 "/>
<polygon fill="#00FFFF" points="207.7,178.3 222.1,196.3 263.6,192 256.5,180.8 "/>
<polygon fill="#00FFFF" points="120,231.7 85.5,250 120,268.3 130.2,263.7 111.9,250 130.2,236.3 "/>
<polygon fill="#00FFFF" points="145.7,243 133.9,250 145.7,257 155,253.8 150.1,250 155,246.1 "/>
<polygon fill="#00FFFF" points="32.1,250 94.4,284.2 109.5,274.9 68.4,250 109.5,225.1 94.4,215.8 "/>
<polygon fill="#009292" points="432.2,244 302.7,197.2 334.8,232.8 313.5,244 "/>
<polygon fill="#009292" points="432.2,256 313.5,256 334.8,267.2 302.7,302.8 "/>
<polygon fill="#009292" points="393.6,203.2 256.2,114.5 321.6,174 301.6,185.4 "/>
<polygon fill="#009292" points="393.6,296.8 301.6,314.6 321.6,326 256.2,385.5 "/>
<polygon fill="#009292" points="100.9,177.3 144.2,191.4 133.3,197.5 159.5,216 202.8,222.9 190,210.3 155,201.5 174.7,191.4 "/>
<polygon fill="#009292" points="174.7,308.6 155,298.5 190,289.6 202.8,277.1 159.5,284 133.3,302.5 144.2,308.6 100.9,322.7 "/>
<polygon fill="#009292" points="210.5,268.7 220.6,256.6 201.2,258.6 175,276.8 "/>
<polygon fill="#009292" points="220.6,243.4 210.5,231.3 175,223.2 201.2,241.4 "/>
</svg>
