<?xml version="1.0" encoding="utf-8"?>
<!-- Generator: Adobe Illustrator 27.5.0, SVG Export Plug-In . SVG Version: 6.00 Build 0)  -->
<svg version="1.1" id="OBJECTS" xmlns="http://www.w3.org/2000/svg" xmlns:xlink="http://www.w3.org/1999/xlink" x="0px" y="0px"
	 width="500px" height="500px" viewBox="0 0 500 500" enable-background="new 0 0 500 500" xml:space="preserve">
<polygon fill="#00FFFF" points="282.7,313.6 264,342 221.5,342 201.9,371.8 274.1,371.8 298.9,334.2 350.4,334.2 405.8,250 
	350.4,165.8 298.9,165.8 274.1,128.2 201.9,128.2 221.5,158 264,158 282.7,186.4 321.6,186.4 363.5,250 321.6,313.6 "/>
<polygon fill="#00FFFF" points="175,313.6 156.2,342 113.8,342 94.2,371.8 166.4,371.8 191.2,334.2 242.7,334.2 298.1,250 
	242.7,165.8 191.2,165.8 166.4,128.2 94.2,128.2 113.8,158 156.2,158 175,186.4 213.9,186.4 255.8,250 213.9,313.6 "/>
</svg>
