<?xml version="1.0" encoding="utf-8"?>
<!-- Generator: Adobe Illustrator 27.5.0, SVG Export Plug-In . SVG Version: 6.00 Build 0)  -->
<svg version="1.1" id="OBJECTS" xmlns="http://www.w3.org/2000/svg" xmlns:xlink="http://www.w3.org/1999/xlink" x="0px" y="0px"
	 width="500px" height="500px" viewBox="0 0 500 500" enable-background="new 0 0 500 500" xml:space="preserve">
<polygon fill="#00FFFF" points="196.3,234.6 141.6,250 196.3,265.4 212,289.5 284.3,308.1 193.7,426.9 212.5,426.9 274.6,374.1 
	340.3,332 384.3,299.6 422.6,289.6 484.5,250 422.6,210.4 384.3,200.5 340.3,168 274.6,125.9 212.5,73.1 193.7,73.1 284.3,191.9 
	212,210.5 "/>
<polygon fill="#00FFFF" points="239.8,149.3 15.5,250 239.8,350.7 268.6,315.2 68.8,250 268.6,184.8 "/>
<polygon fill="#009292" points="201.2,214.9 91.9,250 201.2,285.1 189.5,268.5 130.7,250 189.5,231.5 "/>
<polygon fill="#009292" points="237,157.4 26.4,250 237,342.6 242.3,332.8 40.8,250 242.3,167.2 "/>
<polygon fill="#009292" points="246.8,326.4 254.4,318.3 65.1,250 254.4,181.7 246.8,173.6 50.6,249.8 51,250 50.6,250.2 "/>
<polygon fill="#009292" points="383.5,250 209.8,83 337.4,250 209.8,417 "/>
<polygon fill="#009292" points="327.3,330 421.5,258.7 390.5,290 419.3,282.1 463.9,250 419.3,217.9 390.5,210 421.5,241.3 
	327.3,170 285.9,145.2 393.3,250 285.9,354.9 "/>
<polygon fill="#009292" points="206.9,268 215.4,283.6 282.8,299.3 321.8,250 282.8,200.7 215.4,216.4 206.9,232 268,222.7 
	287.1,250 268,277.3 "/>
<polygon fill="#009292" points="261.7,231.3 160.1,250 261.7,268.7 274.2,250 "/>
</svg>
