<?xml version="1.0" encoding="utf-8"?>
<!-- Generator: Adobe Illustrator 27.5.0, SVG Export Plug-In . SVG Version: 6.00 Build 0)  -->
<svg version="1.1" id="OBJECTS" xmlns="http://www.w3.org/2000/svg" xmlns:xlink="http://www.w3.org/1999/xlink" x="0px" y="0px"
	 width="500px" height="500px" viewBox="0 0 500 500" enable-background="new 0 0 500 500" xml:space="preserve">
<path fill="#00FFFF" d="M69.1,411.2l-10.6-15.6l191.2-66.2l20,14L346,309l35.3-59L346,191l-76.3-34.3l-20,14L58.5,104.4l10.6-15.6
	L188.7,116l10.7-21.7l173.8,36.5L486.4,250L373.2,369.2l-173.8,36.5L188.7,384L69.1,411.2z M64.8,397.6l6.1,9l120-27.3l10.7,21.7
	l169.5-35.6L480.9,250L371.2,134.5L201.6,98.9l-10.7,21.7l-120-27.3l-6.1,9l184.3,63.8l20.2-14.1l79.6,35.8l37.2,62.1l-37.2,62.1
	l-79.6,35.8l-20.2-14.1L64.8,397.6z"/>
<polygon fill="#00FFFF" points="324.9,293.5 280,273.6 277.5,250.2 280,226.4 324.9,206.5 370.2,223.3 368.8,227.1 325,210.8 
	283.8,229.2 281.5,250.2 283.8,270.8 325,289.2 368.8,272.9 370.2,276.7 "/>
<path fill="#00FFFF" d="M307.7,353.3l-12-17l3.3-2.3l10.4,14.8l49.9-12.4l39.8-45.6l41.8,0.9l-0.1,4l-39.9-0.9l-39.4,45.1
	L307.7,353.3z M399.1,209.3l-39.8-45.6l-49.9-12.4L299,166l-3.3-2.3l12-17l53.9,13.4l39.4,45.1l39.9-0.9l0.1,4L399.1,209.3z"/>
<polygon fill="#00FFFF" points="319.8,324.1 242.1,310.8 223.9,287.1 20,258.1 13.6,250 20,241.9 223.9,212.9 242.1,189.2 
	319.8,175.9 320.5,179.8 244.4,192.9 226.1,216.7 22.1,245.7 18.7,250 22.1,254.3 226.1,283.3 244.4,307.1 320.5,320.2 "/>
<polygon fill="#009292" points="320.4,199.3 351.4,210.4 341.8,194.4 321.2,186.1 248.3,198.8 228.8,222.3 36.4,250 228.8,277.7 
	248.3,301.2 321.2,314 341.8,305.6 351.4,289.6 320.4,300.7 272.9,282.9 264.9,250 272.9,217.2 "/>
<polygon fill="#009292" points="315.6,339.6 355.2,329.6 396.3,281.8 438.3,282.9 465.9,250 438.3,217.1 396.3,218.2 355.2,170.4 
	315.6,160.5 350.2,178.9 395.9,250 350.2,321.1 "/>
<polygon fill="#00FFFF" points="358.3,267.9 369.4,250 358.3,232.1 325.9,219.3 291.5,232.3 290.3,250 291.5,267.7 325.9,280.7 "/>
<polygon fill="#009292" points="195.6,372.3 209.1,393.4 365,359.1 361.3,346.7 299.4,361.8 286.9,350.3 262.4,357.9 241.9,346 
	86,396.7 "/>
<polygon fill="#009292" points="262.4,142.1 286.9,149.7 299.4,138.2 361.3,153.3 365,140.9 209.1,106.6 195.6,127.7 86,103.3 
	241.9,154 "/>
<polygon fill="#00FFFF" points="425,199.2 370.2,143.1 365,154.9 403,198.6 "/>
<polygon fill="#00FFFF" points="370.2,356.9 425,300.8 403,301.4 365,345.1 "/>
</svg>
