<?xml version="1.0" encoding="utf-8"?>
<!-- Generator: Adobe Illustrator 27.5.0, SVG Export Plug-In . SVG Version: 6.00 Build 0)  -->
<svg version="1.1" id="OBJECTS" xmlns="http://www.w3.org/2000/svg" xmlns:xlink="http://www.w3.org/1999/xlink" x="0px" y="0px"
	 width="500px" height="500px" viewBox="0 0 500 500" enable-background="new 0 0 500 500" xml:space="preserve">
<polygon fill="#00FFFF" points="336.4,400.9 440.9,250 336.4,99.1 265.5,99.1 370.1,250 265.5,400.9 "/>
<path fill="#00FFFF" d="M256.1,478.3H116.5l111.1-166.9h48.4l41.5-61.4l-41.5-61.5h-48.4l-0.9-1.3L116.5,21.7h139.5L412,249.3
	l-1.4,0.7l1.4,0.7L256.1,478.3z M127.3,472.5H253l150.5-219.6l-5.9-2.9l5.9-2.9L253,27.5H127.3l103.4,155.3h48.4l45.4,67.2
	l-45.4,67.2h-48.4L127.3,472.5z"/>
<path fill="#00FFFF" d="M137.5,408.4L59.1,250l0.6-1.3l77.8-157.2l75.4,116.9h45.6l32.2,41.6l-32.2,41.6h-45.6L137.5,408.4z
	 M65.5,250l72.6,146.8l71.6-111h45.9l27.8-35.8l-27.8-35.8h-45.9l-71.6-111L65.5,250z"/>
<polygon fill="#009292" points="239.8,46.8 166.1,46.4 239.2,161.1 284,161.1 227.6,85.4 268.5,85.4 "/>
<polygon fill="#009292" points="239.8,453.2 268.5,414.6 227.6,414.6 284,339 239.2,339 166.1,453.6 "/>
<polygon fill="#009292" points="162.6,170.5 140.4,136.8 86.4,240.3 257.9,240.3 241.3,224.4 191.8,224.4 172,194.9 125.8,194.9 
	139.9,170.5 "/>
<polygon fill="#009292" points="140.4,363.2 162.6,329.5 139.9,329.5 125.8,305.1 172,305.1 191.8,275.6 241.3,275.6 257.9,259.7 
	86.4,259.7 "/>
</svg>
