<?xml version="1.0" encoding="utf-8"?>
<!-- Generator: Adobe Illustrator 27.5.0, SVG Export Plug-In . SVG Version: 6.00 Build 0)  -->
<svg version="1.1" id="OBJECTS" xmlns="http://www.w3.org/2000/svg" xmlns:xlink="http://www.w3.org/1999/xlink" x="0px" y="0px"
	 width="500px" height="500px" viewBox="0 0 500 500" enable-background="new 0 0 500 500" xml:space="preserve">
<polygon fill="#00FFFF" points="99.3,327 65.3,427.1 86,427.9 133.8,365.6 343.3,338.2 391.2,286.6 425.2,281.4 444.7,250 
	425.2,218.6 391.2,213.4 343.3,161.8 133.8,134.4 86,72.1 65.3,72.9 99.3,173 339,185.2 377.2,250 339,314.8 "/>
<polygon fill="#00FFFF" points="62.4,277.9 196.3,291.5 232.2,340 272.4,333.8 211,271.4 55.3,266.1 "/>
<polygon fill="#00FFFF" points="272.4,166.2 232.2,160 196.3,208.5 62.4,222.1 55.3,233.9 211,228.6 "/>
<polygon fill="#00FFFF" points="306.4,173 237.8,250 306.4,327 336.9,323.8 255.5,250 336.9,176.2 "/>
<polygon fill="#00FFFF" points="329.8,301.3 356.1,250 329.8,198.7 308.4,219.7 325.7,250 308.4,280.3 "/>
<polygon fill="#00FFFF" points="300.4,269.7 310.5,250 300.4,230.3 285.6,240.7 291.7,250 285.6,259.3 "/>
<polygon fill="#FFFFFF" points="390.2,274.7 417.9,267.2 424.8,250 417.9,232.8 390.2,225.3 340.5,172.7 389.5,250 340.5,327.3 "/>
<polygon fill="#FFFFFF" points="124.5,356 325.8,326.6 110,337.1 80.7,411.7 "/>
<polygon fill="#FFFFFF" points="325.8,173.4 124.5,144 80.7,88.3 110,162.9 "/>
<polygon fill="#FFFFFF" points="243.1,183.1 224.8,182.7 201.7,211.5 206.8,223.3 "/>
<polygon fill="#FFFFFF" points="224.8,317.3 243.1,316.9 206.8,276.7 201.7,288.5 "/>
</svg>
