<?xml version="1.0" encoding="utf-8"?>
<!-- Generator: Adobe Illustrator 27.5.0, SVG Export Plug-In . SVG Version: 6.00 Build 0)  -->
<svg version="1.1" id="OBJECTS" xmlns="http://www.w3.org/2000/svg" xmlns:xlink="http://www.w3.org/1999/xlink" x="0px" y="0px"
	 width="500px" height="500px" viewBox="0 0 500 500" enable-background="new 0 0 500 500" xml:space="preserve">
<polygon fill="#00FFFF" points="325,356 398.4,250 325,144 275.3,144 348.7,250 275.3,356 "/>
<polygon fill="#00FFFF" points="393.6,356 467,250 393.6,144 343.8,144 417.2,250 343.8,356 "/>
<polygon fill="#00FFFF" points="275.3,210.6 235.9,250 275.3,289.4 314.7,250 "/>
<rect x="171.4" y="231.4" transform="matrix(0.7071 -0.7071 0.7071 0.7071 -121.1181 207.6111)" fill="#00FFFF" width="37.2" height="37.2"/>
<polygon fill="#00FFFF" points="111,230.2 91.2,250 111,269.8 130.8,250 "/>
<polygon fill="#00FFFF" points="44.4,238.7 33,250 44.4,261.3 55.7,250 "/>
<polygon fill="#FFFFFF" points="390.1,346.6 456.7,251.1 454,250 456.7,248.9 390.1,153.4 362.7,153.5 426.1,250 362.7,346.5 "/>
<path fill="#00FFFF" d="M392.2,350.6l-37-0.1l66-100.5l-66-100.5l37-0.1l69.3,99.4l1.4,0.6l-0.5,0.7l0.5,0.7l-1.3,0.6L392.2,350.6z
	 M370.2,342.5l17.8,0l62.5-89.6l-7.1-2.9l7.1-3l-62.5-89.6l-17.8,0l60.7,92.5L370.2,342.5z"/>
<polygon fill="#FFFFFF" points="318.5,348.9 335.6,324.9 328.9,321 377.7,250 328.9,179 335.6,175.1 318.5,151.1 291.7,152 
	359.5,250 291.7,348 "/>
<path fill="#00FFFF" d="M320.5,353l-36.3-1.2L354.6,250l-70.4-101.8l36.3-1.2l21,29.4l-6.8,3.9l47.8,69.7l-47.8,69.6l6.8,3.9
	L320.5,353z M299.3,344.2l17.1,0.6l13.3-18.6l-6.6-3.9l49.6-72.2l-49.6-72.3l6.6-3.9l-13.3-18.6l-17.1,0.6l65.1,94.2L299.3,344.2z"
	/>
<polygon fill="#FFFFFF" points="272.8,278.6 302.5,250 272.8,221.4 264.3,232.9 279,250 264.3,267.1 "/>
<path fill="#00FFFF" d="M272.3,284.7l-13.2-17.8l14.5-16.9l-14.5-16.9l13.2-17.8l36.1,34.7L272.3,284.7z M269.5,267.3l3.9,5.2
	l23.4-22.5l-23.4-22.5l-3.9,5.2l14.8,17.3L269.5,267.3z"/>
<polygon fill="#FFFFFF" points="190.4,267.4 206.6,250 190.4,232.6 180.8,243.1 185,250 180.8,256.9 "/>
<path fill="#00FFFF" d="M190.4,273.4l-14.6-16l4.5-7.4l-4.5-7.4l14.6-16l21.7,23.4L190.4,273.4z M185.9,256.4l4.6,5L201,250
	l-10.6-11.4l-4.6,5l3.9,6.4L185.9,256.4z"/>
</svg>
