<?xml version="1.0" encoding="utf-8"?>
<!-- Generator: Adobe Illustrator 27.5.0, SVG Export Plug-In . SVG Version: 6.00 Build 0)  -->
<svg version="1.1" id="OBJECTS" xmlns="http://www.w3.org/2000/svg" xmlns:xlink="http://www.w3.org/1999/xlink" x="0px" y="0px"
	 width="500px" height="500px" viewBox="0 0 500 500" enable-background="new 0 0 500 500" xml:space="preserve">
<path fill="#00FFFF" d="M320.8,471.2H205.3L333.1,250L205.3,28.8h115.5L448.6,250l-0.8,1.3L320.8,471.2z M214.5,465.9h103.3
	L442.5,250L317.8,34.1H214.5L339.2,250l-0.8,1.3L214.5,465.9z"/>
<path fill="#00FFFF" d="M217.1,407.2h-99.2L208.4,250L117.8,92.8h99.2L307.6,250L217.1,407.2z M127,401.9h87L301.5,250L214,98.1h-87
	L214.5,250L127,401.9z"/>
<path fill="#00FFFF" d="M120.8,358.4H51.4l62-108.4l-62-108.4h69.4l62,108.4L120.8,358.4z M60.6,353.1h57.1L176.7,250l-58.9-103.1
	H60.6L119.5,250L60.6,353.1z"/>
<polygon fill="#00FFFF" points="303.9,449.2 348.2,372.6 318.3,372.6 389.1,250 318.3,127.5 348.2,127.5 303.9,50.8 246.1,49.4 
	361.9,250 246.1,450.6 "/>
<polygon fill="#009292" points="364.4,362 430.3,250 364.4,138 338.1,138.4 401.6,250 338.1,361.6 "/>
<polygon fill="#009292" points="169.1,388.2 217.2,307.6 234.7,307.9 269.5,250 234.7,192.1 217.2,192.4 169.1,111.8 148.4,109.7 
	229.4,250 148.4,390.3 "/>
<polygon fill="#009292" points="114.6,314.5 153.2,250 114.6,185.5 103.1,186.2 139.1,250 103.1,313.9 "/>
<polygon fill="#00FFFF" points="214.3,333.4 185.4,386.5 207.9,387.9 288.8,250 207.9,112.1 185.4,113.5 214.3,166.6 228.9,166.4 
	278.6,250 228.9,333.6 "/>
<polygon fill="#00FFFF" points="89.3,324.2 78,343.5 113.8,343 167.4,250 113.8,157 78,156.5 89.3,175.8 113.2,175 158.9,250 
	113.2,325 "/>
</svg>
