<?xml version="1.0" encoding="utf-8"?>
<!-- Generator: Adobe Illustrator 27.5.0, SVG Export Plug-In . SVG Version: 6.00 Build 0)  -->
<svg version="1.1" id="OBJECTS" xmlns="http://www.w3.org/2000/svg" xmlns:xlink="http://www.w3.org/1999/xlink" x="0px" y="0px"
	 width="500px" height="500px" viewBox="0 0 500 500" enable-background="new 0 0 500 500" xml:space="preserve">
<polygon fill="#00FFFF" points="425.1,308.9 368.1,297.4 473.6,250 368.1,202.6 425.1,191.1 223,144.6 323.5,230.2 308.1,250 
	323.5,269.8 223,355.4 "/>
<polygon fill="#00FFFF" points="180.6,266.1 105.9,275.6 221.3,295.7 225,332.7 295.7,276.1 274,260.7 283.1,250 274,239.3 
	295.7,223.9 225,167.3 221.3,204.3 105.9,224.4 180.6,233.9 26.4,250 "/>
<polygon fill="#FFFFFF" points="358.7,315.8 327.7,307.6 444.1,250 443.2,250 444.1,250 327.7,192.4 358.7,184.2 253.5,158.5 
	346,229.5 324.9,250 346,270.5 253.5,341.5 "/>
<polygon fill="#FFFFFF" points="203.8,264.5 164.6,273.5 233.1,285 233.6,313.8 274.1,280.7 254.4,265.7 265.3,250 254.4,234.3 
	274.1,219.3 233.6,186.2 233.1,215 164.6,226.5 203.8,235.5 131.8,250 "/>
</svg>
