<?xml version="1.0" encoding="utf-8"?>
<!-- Generator: Adobe Illustrator 27.5.0, SVG Export Plug-In . SVG Version: 6.00 Build 0)  -->
<svg version="1.1" id="OBJECTS" xmlns="http://www.w3.org/2000/svg" xmlns:xlink="http://www.w3.org/1999/xlink" x="0px" y="0px"
	 width="500px" height="500px" viewBox="0 0 500 500" enable-background="new 0 0 500 500" xml:space="preserve">
<polygon fill="#00FFFF" points="94.4,324.2 156.4,386.1 262.8,386.1 352.1,296.8 418,296.8 464.8,250 418,203.2 352.1,203.2 
	262.8,113.9 156.4,113.9 94.4,175.8 257,175.8 331.2,250 257,324.2 "/>
<polygon fill="#00FFFF" points="404.3,305.3 354.9,308.6 207.1,456.4 "/>
<polygon fill="#00FFFF" points="404.3,194.7 207.1,43.6 354.9,191.4 "/>
<polygon fill="#00FFFF" points="147.1,309.2 253.4,309.2 312.6,250 253.4,190.8 147.1,190.8 112.7,225.2 60,225.2 35.2,250 
	60,274.8 112.7,274.8 "/>
<polygon fill="#009292" points="162.6,377.5 257.8,377.4 303.1,332.1 117.3,332.1 "/>
<polygon fill="#009292" points="257.8,122.6 162.6,122.5 117.3,167.9 303.1,167.9 "/>
<polygon fill="#009292" points="415.5,287.1 441.5,261 334.2,261 307.3,286.5 "/>
<polygon fill="#009292" points="441.5,239 415.5,212.9 307.3,213.5 334.2,239 "/>
<polygon fill="#009292" points="309.1,323.2 338.5,294.8 299.8,294.8 271.3,323.3 "/>
<polygon fill="#009292" points="338.5,205.2 309.1,176.8 271.3,176.7 299.8,205.2 "/>
<polygon fill="#009292" points="260.1,215.8 245.8,201.6 152.2,201.6 119.2,234.6 68.2,234.6 52.4,250 68.2,265.4 119.2,265.4 
	152.2,298.4 245.8,298.4 260.1,284.2 158.8,284.2 124.6,250 158.8,215.8 "/>
<polygon fill="#009292" points="293.9,250 270.2,226.4 168.9,226.4 145.2,250 168.9,273.7 270.2,273.7 "/>
<polygon fill="#009292" points="378.4,315.4 354.9,318.8 288.7,384.6 "/>
<polygon fill="#009292" points="378.4,184.6 288.7,115.4 354.9,181.2 "/>
</svg>
