<?xml version="1.0" encoding="utf-8"?>
<!-- Generator: Adobe Illustrator 27.5.0, SVG Export Plug-In . SVG Version: 6.00 Build 0)  -->
<svg version="1.1" id="OBJECTS" xmlns="http://www.w3.org/2000/svg" xmlns:xlink="http://www.w3.org/1999/xlink" x="0px" y="0px"
	 width="500px" height="500px" viewBox="0 0 500 500" enable-background="new 0 0 500 500" xml:space="preserve">
<polygon fill="#00FFFF" points="224.7,349.7 203.6,370.7 355.5,370.7 473.5,250 355.5,129.3 203.6,129.3 224.7,150.3 339.6,150.3 
	436.6,250 339.6,349.7 "/>
<polygon fill="#00FFFF" points="165.1,296.6 26.5,435.2 85.5,435.2 194,326.7 274.7,326.7 315.3,286 373.2,286 409.2,250 373.2,214 
	315.3,214 274.7,173.3 194,173.3 85.5,64.8 26.5,64.8 165.1,203.4 248.9,203.4 295.5,250 248.9,296.6 "/>
<polygon fill="#00FFFF" points="155.7,407.3 213.4,349.7 185.1,349.7 127.5,407.3 "/>
<polygon fill="#00FFFF" points="213.4,150.3 155.7,92.7 127.5,92.7 185.1,150.3 "/>
<polygon fill="#00FFFF" points="319.4,326.1 349.4,296.4 319.8,296.4 289.9,326.1 "/>
<polygon fill="#00FFFF" points="349.4,203.6 319.4,173.9 289.9,173.9 319.8,203.6 "/>
<polygon fill="#FFFFFF" points="84.7,423.4 200.8,307.3 167,307.3 53.8,423.4 "/>
<polygon fill="#FFFFFF" points="200.8,192.7 84.7,76.6 53.8,76.6 167,192.7 "/>
<polygon fill="#FFFFFF" points="379.8,238.3 362.9,221.4 302.4,221.4 265.7,183.2 240.8,184 295,238.3 "/>
<polygon fill="#FFFFFF" points="265.7,316.8 302.4,278.6 362.9,278.6 379.8,261.7 295,261.7 240.8,316 "/>
<polygon fill="#FFFFFF" points="354,362.5 462.1,250.5 456.5,250 462.1,249.5 354,137.5 346,146.5 447.2,250 346,353.5 "/>
<polygon fill="#FFFFFF" points="345.8,365.1 337.3,355.3 228.5,355.3 217.9,365 "/>
<polygon fill="#FFFFFF" points="337.3,144.7 345.8,134.9 217.9,135 228.5,144.7 "/>
</svg>
