<?xml version="1.0" encoding="utf-8"?>
<!-- Generator: Adobe Illustrator 27.5.0, SVG Export Plug-In . SVG Version: 6.00 Build 0)  -->
<svg version="1.1" id="OBJECTS" xmlns="http://www.w3.org/2000/svg" xmlns:xlink="http://www.w3.org/1999/xlink" x="0px" y="0px"
	 width="500px" height="500px" viewBox="0 0 500 500" enable-background="new 0 0 500 500" xml:space="preserve">
<polygon fill="#00FFFF" points="236.1,250 317,277.4 337.6,306.8 289.6,379.2 473.5,250 289.6,120.8 337.6,193.2 317,222.6 "/>
<polygon fill="#009292" points="454.3,250 322.1,152.4 394.6,250 322.1,347.6 "/>
<polygon fill="#009292" points="317.9,231.2 266,250 317.9,268.8 372.1,250 "/>
<polygon fill="#009292" points="343.5,297.9 380.9,254.8 328.3,275.4 "/>
<polygon fill="#009292" points="343.5,202.1 328.3,224.6 380.9,245.2 "/>
<polygon fill="#009292" points="250.4,326.2 150,458.7 267.9,387.8 322.7,307.7 307,284.7 209,250 307,215.3 322.7,192.3 
	267.9,112.2 150,41.3 250.4,173.8 148.6,250 "/>
<polygon fill="#00FFFF" points="297.3,210.2 309.9,190.3 258.4,118.8 235.7,111.3 281,186.2 235.4,228.8 "/>
<polygon fill="#00FFFF" points="281,313.8 235.7,388.7 258.4,381.2 309.9,309.7 297.3,289.8 235.4,271.2 "/>
<polygon fill="#009292" points="231.8,329.3 174.7,283.7 26.5,264 "/>
<polygon fill="#009292" points="231.8,170.7 26.5,236 174.7,216.3 "/>
<polygon fill="#00FFFF" points="198.8,375.8 224.5,339.7 87.6,294.9 "/>
<polygon fill="#00FFFF" points="198.8,124.2 87.6,205.1 224.5,160.3 "/>
<polygon fill="#009292" points="168,417.9 186.3,384.5 122.4,330.8 "/>
<polygon fill="#009292" points="168,82.1 122.4,169.2 186.3,115.5 "/>
</svg>
