<?xml version="1.0" encoding="utf-8"?>
<!-- Generator: Adobe Illustrator 27.5.0, SVG Export Plug-In . SVG Version: 6.00 Build 0)  -->
<svg version="1.1" id="OBJECTS" xmlns="http://www.w3.org/2000/svg" xmlns:xlink="http://www.w3.org/1999/xlink" x="0px" y="0px"
	 width="500px" height="500px" viewBox="0 0 500 500" enable-background="new 0 0 500 500" xml:space="preserve">
<polygon fill="#00FFFF" points="174.3,386.1 140,445.5 272.7,445.5 444.7,250 272.7,54.5 140,54.5 174.3,113.9 291.2,113.9 
	363.4,197.9 313.6,250 363.4,302.1 291.2,386.1 "/>
<polygon fill="#00FFFF" points="324.9,363 343.2,337.4 247.9,337.4 233.2,363 "/>
<polygon fill="#00FFFF" points="343.2,162.6 324.9,137 233.2,137 247.9,162.6 "/>
<polygon fill="#009292" points="213.3,324.6 323.4,326.3 345.8,303.9 118.4,303.9 "/>
<polygon fill="#009292" points="323.4,173.7 213.3,175.4 118.4,196.1 345.8,196.1 "/>
<polygon fill="#009292" points="388.2,211.2 377.9,200.9 333.7,238.9 418.5,238.9 399.3,219.7 372.7,219.7 381.2,211.2 "/>
<polygon fill="#009292" points="377.9,299.1 388.2,288.8 381.2,288.8 372.7,280.3 399.3,280.3 418.5,261.1 333.7,261.1 "/>
<polygon fill="#009292" points="334.1,355.7 345.5,344.5 257.9,344.5 251.6,355.4 "/>
<polygon fill="#009292" points="345.5,155.5 334.1,144.3 251.6,144.6 257.9,155.5 "/>
<polygon fill="#009292" points="77.3,241.7 55.3,250 77.3,258.3 324.1,287.5 286.2,250 324.1,212.5 "/>
<polygon fill="#00FFFF" points="95,246.1 79.9,250 95,253.9 257,270.9 235,250 257,229.1 "/>
<polygon fill="#00FFFF" points="268.6,230.4 251.2,250 268.6,269.6 294.5,273.2 272.5,250 294.5,226.8 "/>
</svg>
