<?xml version="1.0" encoding="utf-8"?>
<!-- Generator: Adobe Illustrator 27.5.0, SVG Export Plug-In . SVG Version: 6.00 Build 0)  -->
<svg version="1.1" id="OBJECTS" xmlns="http://www.w3.org/2000/svg" xmlns:xlink="http://www.w3.org/1999/xlink" x="0px" y="0px"
	 width="500px" height="500px" viewBox="0 0 500 500" enable-background="new 0 0 500 500" xml:space="preserve">
<polygon fill="#00FFFF" points="197.8,358.1 174.3,381.6 311.3,381.6 386,250 311.3,118.4 174.3,118.4 197.8,141.9 303.1,141.9 
	338.4,202.9 295.7,202.9 323,250 295.7,297.1 338.4,297.1 303.1,358.1 "/>
<polygon fill="#009292" points="119.6,322.2 98.6,343.2 291.7,343.2 311.4,309.2 265.1,309.2 299.3,250 265.1,190.8 311.4,190.8 
	291.7,156.7 98.6,156.7 119.6,177.8 222.1,177.8 236.2,202.2 164.3,202.2 183.2,221.1 256.9,221.1 273.6,250 256.9,278.9 
	183.2,278.9 164.3,297.8 236.2,297.8 222.1,322.2 "/>
<polygon fill="#009292" points="473.6,250 360.8,178.2 402.2,250 360.8,321.8 "/>
<polygon fill="#00FFFF" points="451.6,250 389.4,207.9 411.9,250 389.4,292.1 "/>
<polygon fill="#00FFFF" points="92,444.4 178.9,356.2 144.9,356.2 86.8,414.2 43.8,414.2 26.4,444.4 "/>
<polygon fill="#00FFFF" points="86.8,85.8 144.9,143.8 178.9,143.8 92,55.6 26.4,55.6 43.8,85.8 "/>
</svg>
