<?xml version="1.0" encoding="utf-8"?>
<!-- Generator: Adobe Illustrator 27.5.0, SVG Export Plug-In . SVG Version: 6.00 Build 0)  -->
<svg version="1.1" id="OBJECTS" xmlns="http://www.w3.org/2000/svg" xmlns:xlink="http://www.w3.org/1999/xlink" x="0px" y="0px"
	 width="500px" height="500px" viewBox="0 0 500 500" enable-background="new 0 0 500 500" xml:space="preserve">
<path fill="#00FFFF" d="M197.8,433.9l85.2-177.3h190.7L197.8,433.9z M286,261.4l-76.5,159.1l247.6-159.1H286z"/>
<path fill="#00FFFF" d="M473.6,243.4H282.9L197.8,66.1L473.6,243.4z M286,238.6h171.2L209.5,79.4L286,238.6z"/>
<polygon fill="#009292" points="240.2,116.8 295.8,225.5 345.3,226.6 334.1,205.3 374.4,206.3 "/>
<path fill="#253852" d="M353.3,231.6l-60.6-1.3l-65.3-127.8l163.6,109l-48.8-1.2L353.3,231.6z M298.8,220.8l38.4,0.8L326,200.3
	l31.8,0.8L253,131.2L298.8,220.8z"/>
<polygon fill="#009292" points="374.4,293.7 334.1,294.7 345.3,273.4 295.8,274.5 240.2,383.2 "/>
<path fill="#253852" d="M227.4,397.5l65.3-127.8l60.6-1.3l-11.1,21.3l48.8-1.2L227.4,397.5z M298.8,279.2L253,368.8l104.9-69.9
	l-31.8,0.8l11.1-21.3L298.8,279.2z"/>
<path fill="#00FFFF" d="M264.8,242.5l-61.4-6.4l-8.1-17l-36-2.9l-22.5-59.5L26.4,112.5l4.9-13.8L212.3,136L264.8,242.5z
	 M206.6,231.6l50,5.2L209,140.2L34.4,104.3l-1.9,5.4L140.6,153l22.2,58.6l35.8,2.9L206.6,231.6z"/>
<path fill="#00FFFF" d="M31.3,401.3l-4.9-13.8l110.4-44.2l22.5-59.5l36-2.9l8.1-17l61.4-6.4L212.3,364L31.3,401.3z M32.5,390.3
	l1.9,5.4L209,359.8l47.6-96.5l-50,5.2l-8.1,17.1l-35.8,2.9L140.6,347L32.5,390.3z"/>
<polygon fill="#009292" points="200.4,354.3 235.4,275.4 211.7,275.3 202.1,296.4 170.8,299.1 153.4,354.5 66.4,383.6 "/>
<path fill="#253852" d="M67.4,388.3l-2.6-9.3l84.7-28.3l17.7-56.2l31.7-2.7l9.7-21.4l34.3,0.1l-39,88L67.4,388.3z M174.5,303.6
	l-17.2,54.7l-3.9,1.3l43.7-9.5l31-69.9l-13.2,0l-9.4,20.8L174.5,303.6z"/>
<polygon fill="#009292" points="170.8,200.9 202.1,203.6 211.7,224.7 235.4,224.6 200.4,145.7 66.4,116.4 153.4,145.5 "/>
<path fill="#253852" d="M208.5,229.6l-9.7-21.4l-31.7-2.7l-17.7-56.2L64.8,121l2.6-9.3l136.5,29.8l39,88L208.5,229.6z M174.5,196.4
	l30.9,2.6l9.4,20.8l13.2,0l-31-69.9l-43.7-9.5l3.9,1.3L174.5,196.4z"/>
<polygon fill="#00FFFF" points="466.1,243.2 417.8,211.7 354.8,216.3 372,241.1 "/>
<polygon fill="#00FFFF" points="417.8,288.3 466.1,256.8 372,258.9 354.8,283.7 "/>
</svg>
