<?xml version="1.0" encoding="utf-8"?>
<!-- Generator: Adobe Illustrator 27.5.0, SVG Export Plug-In . SVG Version: 6.00 Build 0)  -->
<svg version="1.1" id="OBJECTS" xmlns="http://www.w3.org/2000/svg" xmlns:xlink="http://www.w3.org/1999/xlink" x="0px" y="0px"
	 width="500px" height="500px" viewBox="0 0 500 500" enable-background="new 0 0 500 500" xml:space="preserve">
<polygon fill="#00FFFF" points="228.2,321.5 210.5,328.5 292.4,413.4 464.8,250 292.4,86.6 210.5,171.5 228.2,178.5 285.6,132.7 
	382.5,250 285.6,367.3 "/>
<polygon fill="#00FFFF" points="227.5,296.4 222.9,301.5 284.8,337.6 354.9,250 284.8,162.4 222.9,198.5 227.5,203.6 272.2,193.2 
	308.8,250 272.2,306.8 "/>
<polygon fill="#00FFFF" points="265.3,215.9 35.2,250 265.3,284.1 286.5,250 "/>
<polygon fill="#FFFFFF" points="450,250 297.1,105.2 374,198.1 338.1,169.4 398.8,250 338.1,330.5 374,301.9 297.1,394.8 "/>
<polygon fill="#FFFFFF" points="345.4,250 284.2,173.6 310,223.3 290,204.4 317.7,250 290,295.5 310,276.7 284.2,326.4 "/>
<polygon fill="#FFFFFF" points="243.4,262.5 150.8,260.8 257.6,275.1 276.5,250 257.6,224.9 150.8,239.1 243.4,237.4 105.5,250 "/>
</svg>
