<?xml version="1.0" encoding="utf-8"?>
<!-- Generator: Adobe Illustrator 27.5.0, SVG Export Plug-In . SVG Version: 6.00 Build 0)  -->
<svg version="1.1" id="OBJECTS" xmlns="http://www.w3.org/2000/svg" xmlns:xlink="http://www.w3.org/1999/xlink" x="0px" y="0px"
	 width="500px" height="500px" viewBox="0 0 500 500" enable-background="new 0 0 500 500" xml:space="preserve">
<polygon fill="#00FFFF" points="195.8,476.6 306.5,364.3 386.6,354.2 461.4,250 386.6,145.8 306.5,135.7 195.8,23.4 162.9,24.1 
	345.5,250 162.9,475.9 "/>
<polygon fill="#009292" points="64.5,392.7 38.6,418.5 175.2,418.5 307.1,250 175.2,81.5 38.6,81.5 64.5,107.3 158.8,107.3 
	268.7,250 158.8,392.7 "/>
<polygon fill="#009292" points="304.7,345 347.9,338.4 424,250 347.9,161.6 304.7,155 199.1,48.9 361.9,250 199.1,451.1 "/>
<polygon fill="#00FFFF" points="155.4,356.1 233.5,250 155.4,143.9 108.1,146.1 163.9,250 108.1,353.9 "/>
</svg>
