<?xml version="1.0" encoding="utf-8"?>
<!-- Generator: Adobe Illustrator 26.4.1, SVG Export Plug-In . SVG Version: 6.00 Build 0)  -->
<svg version="1.1" xmlns="http://www.w3.org/2000/svg" xmlns:xlink="http://www.w3.org/1999/xlink" x="0px" y="0px" width="100px"
	 height="100px" viewBox="0 0 100 100" enable-background="new 0 0 100 100" xml:space="preserve">
<g id="BACKGROUND">
</g>
<g id="OBJECTS" xmlns:sodipodi="http://sodipodi.sourceforge.net/DTD/sodipodi-0.dtd" xmlns:svg="http://www.w3.org/2000/svg" xmlns:inkscape="http://www.inkscape.org/namespaces/inkscape" inkscape:version="1.2.1 (1:1.2+202205161848+dc2aedaf03)" sodipodi:docname="24 Agustus 2022.svg">
	<g id="g107988_00000016076748332790227010000009920499713440371111_" transform="rotate(45,434.11373,20.610102)">
		<g id="g107976_00000088843674627007019550000010429948915958179489_" transform="translate(18.724083,127.74169)">
			<g id="path107972_00000015348592198550100800000012809180067169778049_">
				<path fill="#5AC4D5" d="M164.9,231.5c-0.1,0.1-0.2,0.1-0.4,0.1c-0.3,0-0.5-0.2-0.5-0.5v-23c0-0.3,0.2-0.5,0.5-0.5
					s0.5,0.2,0.5,0.5v23C165.1,231.3,165,231.4,164.9,231.5z M164.9,162.7c-0.1,0.1-0.2,0.1-0.4,0.1c-0.3,0-0.5-0.2-0.5-0.5v-23
					c0-0.3,0.2-0.5,0.5-0.5s0.5,0.2,0.5,0.5v23C165.1,162.4,165,162.6,164.9,162.7z"/>
			</g>
			<g id="path107974_00000087400018196959227620000013477007554778251957_">
				<path fill="#5AC4D5" d="M210.8,185.6c-0.1,0.1-0.2,0.1-0.4,0.1h-23c-0.3,0-0.5-0.2-0.5-0.5c0-0.3,0.2-0.5,0.5-0.5h23
					c0.3,0,0.5,0.2,0.5,0.5C211,185.4,210.9,185.5,210.8,185.6z M142,185.6c-0.1,0.1-0.2,0.1-0.4,0.1h-23c-0.3,0-0.5-0.2-0.5-0.5
					c0-0.3,0.2-0.5,0.5-0.5h23c0.3,0,0.5,0.2,0.5,0.5C142.1,185.4,142,185.5,142,185.6z"/>
			</g>
			<g id="path116225_00000000924059377063834560000001755120437710244519_">
				<path fill="#5AC4D5" d="M197.4,218.1c-0.2,0.2-0.5,0.2-0.7,0l-16.2-16.2c-0.2-0.2-0.2-0.5,0-0.7s0.5-0.2,0.7,0l16.2,16.2
					C197.6,217.6,197.6,217.9,197.4,218.1z M148.7,169.4c-0.2,0.2-0.5,0.2-0.7,0l-16.2-16.2c-0.2-0.2-0.2-0.5,0-0.7
					c0.2-0.2,0.5-0.2,0.7,0l16.2,16.2C148.9,168.9,148.9,169.2,148.7,169.4z"/>
			</g>
			<g id="path116227_00000034809740570449998020000008603858454855451063_">
				<path fill="#5AC4D5" d="M197.4,153.1l-16.2,16.2c-0.2,0.2-0.5,0.2-0.7,0c-0.2-0.2-0.2-0.5,0-0.7l16.2-16.2
					c0.2-0.2,0.5-0.2,0.7,0C197.6,152.6,197.6,152.9,197.4,153.1z M148.7,201.8l-16.2,16.2c-0.2,0.2-0.5,0.2-0.7,0
					c-0.2-0.2-0.2-0.5,0-0.7l16.2-16.2c0.2-0.2,0.5-0.2,0.7,0C148.9,201.3,148.9,201.7,148.7,201.8z"/>
			</g>
		</g>
		<g id="g107980_00000054230131348985029910000004875009032791179655_" inkscape:path-effect="#path-effect107992">
			<g id="path107978_00000144312510777458080010000003643680178991681975_">
				<path fill="#5AC4D5" d="M216.2,345.9c-2.9,2.9-6.1,5.4-9.6,7.4l-2-3.5c6.5-3.7,11.8-9.1,15.6-15.6l3.5,2
					C221.6,339.8,219.1,343.1,216.2,345.9z M223.6,289.7l-3.5,2c-3.7-6.5-9.1-11.8-15.6-15.6l2-3.5
					C213.6,276.8,219.5,282.7,223.6,289.7z M160,353.3c-7.1-4.1-13-10-17-17l3.5-2c3.7,6.5,9.1,11.8,15.6,15.6L160,353.3z
					 M162,276.1c-6.5,3.7-11.8,9.1-15.6,15.6l-3.5-2c4.1-7.1,10-13,17-17L162,276.1z"/>
			</g>
		</g>
		<g id="circle107982_00000021827805539856696600000016074370572983588228_">
			<path fill="#5AC4D5" d="M209,338.7c-6.6,6.6-15.7,10.7-25.7,10.7c-9.7,0-18.9-3.8-25.8-10.7c-6.9-6.9-10.7-16-10.7-25.8
				c0-20.1,16.3-36.4,36.4-36.4c9.7,0,18.9,3.8,25.8,10.7c6.9,6.9,10.7,16,10.7,25.8C219.7,323,215.6,332.1,209,338.7z M159,288.7
				c-6.2,6.2-10.1,14.8-10.1,24.3c0,9.2,3.6,17.8,10.1,24.3c6.5,6.5,15.1,10.1,24.3,10.1c19,0,34.4-15.4,34.4-34.4
				c0-9.2-3.6-17.8-10.1-24.3c-6.5-6.5-15.1-10.1-24.3-10.1C173.8,278.6,165.2,282.4,159,288.7z"/>
		</g>
		<g id="path107984_00000018222310062488032320000005689319001618050953_">
			<path fill="#5AC4D5" d="M199.3,328.6l-3.5-3.4l0.3-0.4l3.5,3.4L199.3,328.6z M196.6,330.9l-0.4,0.3l-2.9-4l0.4-0.3L196.6,330.9z
				 M201.8,325.5l-4.1-2.7l0.3-0.4l4.1,2.7L201.8,325.5z M193.2,333l-0.5,0.2l-2.1-4.4l0.5-0.2L193.2,333z M203.7,322l-4.5-1.9
				l0.2-0.5l4.5,1.9L203.7,322z M189.5,334.5l-0.5,0.1l-1.3-4.7l0.5-0.1L189.5,334.5z M205,318.2l-4.8-1.1l0.1-0.5l4.8,1.1
				L205,318.2z M185.5,335.2l-0.5,0l-0.4-4.9l0.5,0L185.5,335.2z M205.6,314.3l-4.9-0.2l0-0.5l4.9,0.2L205.6,314.3z M181.5,335.3
				l-0.5,0l0.4-4.9l0.5,0L181.5,335.3z M205.5,310.2l-4.8,0.7l-0.1-0.5l4.8-0.7L205.5,310.2z M177.6,334.6l-0.5-0.1l1.3-4.7l0.5,0.1
				L177.6,334.6z M204.6,306.3l-4.6,1.5l-0.2-0.5l4.6-1.5L204.6,306.3z M173.8,333.2l-0.5-0.2l2.1-4.4l0.5,0.2L173.8,333.2z
				 M203.1,302.6l-4.3,2.3l-0.2-0.4l4.3-2.3L203.1,302.6z M170.3,331.2l-0.4-0.3l2.9-4l0.4,0.3L170.3,331.2z M200.9,299.3l-3.8,3
				l-0.3-0.4l3.8-3L200.9,299.3z M170.8,325.2l-3.5,3.4l-0.3-0.4l3.5-3.4L170.8,325.2z M195,300l-0.4-0.3l3.2-3.7l0.4,0.3L195,300z
				 M168.8,322.8l-4.1,2.7l-0.3-0.4l4.1-2.7L168.8,322.8z M192.5,298.1l-0.4-0.3l2.5-4.2l0.4,0.3L192.5,298.1z M167.3,320.1
				l-4.5,1.9l-0.2-0.5l4.5-1.9L167.3,320.1z M189.7,296.7l-0.5-0.2l1.7-4.6l0.5,0.2L189.7,296.7z M166.3,317.1l-4.8,1.1l-0.1-0.5
				l4.8-1.1L166.3,317.1z M186.7,295.9l-0.5-0.1l0.9-4.8l0.5,0.1L186.7,295.9z M165.8,314l-4.9,0.2l0-0.5l4.9-0.2L165.8,314z
				 M183.5,295.5H183v-4.9h0.5V295.5z M165.9,310.9l-4.8-0.7l0.1-0.5l4.8,0.7L165.9,310.9z M180.4,295.8l-0.5,0.1L179,291l0.5-0.1
				L180.4,295.8z M166.6,307.8l-4.6-1.5l0.2-0.5l4.6,1.5L166.6,307.8z M177.4,296.6l-0.5,0.2l-1.7-4.6l0.5-0.2L177.4,296.6z
				 M167.8,304.9l-4.3-2.3l0.2-0.4l4.3,2.3L167.8,304.9z M174.5,297.9l-0.4,0.3l-2.5-4.2l0.4-0.3L174.5,297.9z M169.5,302.3l-3.8-3
				l0.3-0.4l3.8,3L169.5,302.3z M172,299.7l-0.4,0.3l-3.2-3.7l0.4-0.3L172,299.7z"/>
		</g>
		<g id="path107986_00000093159590444963812540000006150309518415874229_">
			<path fill="#5AC4D5" d="M212.1,337.9l-4.1-3.4l0.6-0.8l4.1,3.4L212.1,337.9z M208.1,341.8l-0.8,0.6l-3.4-4.1l0.8-0.6L208.1,341.8
				z M216,332.5l-4.6-2.7l0.5-0.9l4.6,2.7L216,332.5z M202.7,345.7l-0.9,0.5l-2.7-4.6l0.9-0.5L202.7,345.7z M218.9,326.5l-5-1.8
				l0.3-0.9l5,1.8L218.9,326.5z M196.8,348.6l-0.9,0.3l-1.8-5l0.9-0.3L196.8,348.6z M220.7,320.1l-5.3-0.9l0.2-1l5.3,0.9
				L220.7,320.1z M190.4,350.4l-1,0.2l-0.9-5.3l1-0.2L190.4,350.4z M221.3,313.5l-5.3,0v-1l5.3,0V313.5z M183.8,351.1h-1v-5.3h1
				V351.1z M220.9,306.9l-5.3,0.9l-0.2-1l5.3-0.9L220.9,306.9z M177.2,350.6l-1-0.2l0.9-5.3l1,0.2L177.2,350.6z M219.2,300.5l-5,1.8
				l-0.3-0.9l5-1.8L219.2,300.5z M170.7,348.9l-0.9-0.3l1.8-5l0.9,0.3L170.7,348.9z M216.5,294.4l-4.6,2.7l-0.5-0.9l4.6-2.7
				L216.5,294.4z M164.7,346.2l-0.9-0.5l2.7-4.6l0.9,0.5L164.7,346.2z M212.8,288.9l-4.1,3.4l-0.6-0.8l4.1-3.4L212.8,288.9z
				 M159.2,342.5l-0.8-0.6l3.4-4.1l0.8,0.6L159.2,342.5z M204.7,288.3l-0.8-0.6l3.4-4.1l0.8,0.6L204.7,288.3z M158.5,334.4l-4.1,3.4
				l-0.6-0.8l4.1-3.4L158.5,334.4z M200.1,284.9l-0.9-0.5l2.7-4.6l0.9,0.5L200.1,284.9z M155.2,329.8l-4.6,2.7l-0.5-0.9l4.6-2.7
				L155.2,329.8z M194.9,282.4l-0.9-0.3l1.8-5l0.9,0.3L194.9,282.4z M152.7,324.7l-5,1.8l-0.3-0.9l5-1.8L152.7,324.7z M189.5,280.9
				l-1-0.2l0.9-5.3l1,0.2L189.5,280.9z M151.1,319.2l-5.3,0.9l-0.2-1l5.3-0.9L151.1,319.2z M183.8,280.3h-1l0-5.3h1L183.8,280.3z
				 M150.6,313.5l-5.3,0v-1l5.3,0V313.5z M178.1,280.7l-1,0.2l-0.9-5.3l1-0.2L178.1,280.7z M151,307.8l-5.3-0.9l0.2-1l5.3,0.9
				L151,307.8z M172.6,282.1l-0.9,0.3l-1.8-5l0.9-0.3L172.6,282.1z M152.4,302.3l-5-1.8l0.3-0.9l5,1.8L152.4,302.3z M167.4,284.4
				l-0.9,0.5l-2.7-4.6l0.9-0.5L167.4,284.4z M154.7,297.1l-4.6-2.7l0.5-0.9l4.6,2.7L154.7,297.1z M162.6,287.6l-0.8,0.6l-3.4-4.1
				l0.8-0.6L162.6,287.6z M157.9,292.4l-4.1-3.4l0.6-0.8l4.1,3.4L157.9,292.4z"/>
		</g>
		
			<g id="g116219_00000176754268947588792570000011849881222429060233_" transform="matrix(0.44209471,0.44209471,-0.44209471,0.44209471,356.62348,-638.68918)" inkscape:path-effect="#path-effect116223">
			<g id="path116217_00000055672959987916029350000004627246896321146265_">
				<path fill="#5AC4D5" d="M920.5,1295.6c-4.1,7.1-9.9,12.9-17,17l-3.2-5.5c6.1-3.5,11.1-8.6,14.7-14.7L920.5,1295.6z
					 M920.5,1249.2l-5.5,3.2c-3.5-6.1-8.6-11.1-14.7-14.7l3.2-5.5C910.6,1236.2,916.4,1242.1,920.5,1249.2z M860.3,1307.1l-3.2,5.5
					c-7-4.1-12.9-9.9-17-17l5.5-3.2C849.1,1298.5,854.2,1303.5,860.3,1307.1z M860.3,1237.7c-6.1,3.5-11.1,8.6-14.7,14.7l-5.5-3.2
					c4.1-7,9.9-12.9,17-17L860.3,1237.7z"/>
			</g>
		</g>
		<g id="circle116229_00000032627028374137282160000017947654801935614638_">
			<path fill="#38797F" d="M200.1,329.9c-4.3,4.3-10.3,7-16.9,7c-13.2,0-23.9-10.7-23.9-23.9c0-13.2,10.7-23.9,23.9-23.9l0,0
				c13.2,0,23.9,10.7,23.9,23.9C207.1,319.6,204.5,325.5,200.1,329.9z M167.8,297.6c-4,4-6.4,9.4-6.4,15.4
				c0,12.1,9.8,21.9,21.9,21.9c12.1,0,21.9-9.8,21.9-21.9c0-12-9.8-21.9-21.9-21.9C177.3,291.1,171.8,293.6,167.8,297.6z"/>
		</g>
	</g>
</g>
</svg>
