<?xml version="1.0" encoding="utf-8"?>
<!-- Generator: Adobe Illustrator 26.4.1, SVG Export Plug-In . SVG Version: 6.00 Build 0)  -->
<svg version="1.1" xmlns="http://www.w3.org/2000/svg" xmlns:xlink="http://www.w3.org/1999/xlink" x="0px" y="0px" width="100px"
	 height="100px" viewBox="0 0 100 100" enable-background="new 0 0 100 100" xml:space="preserve">
<g id="BACKGROUND">
</g>
<g id="OBJECTS" xmlns:sodipodi="http://sodipodi.sourceforge.net/DTD/sodipodi-0.dtd" xmlns:svg="http://www.w3.org/2000/svg" xmlns:inkscape="http://www.inkscape.org/namespaces/inkscape" inkscape:version="1.2.1 (1:1.2+202205161848+dc2aedaf03)" sodipodi:docname="24 Agustus 2022.svg">
	<g>
		<g id="g116410_00000060006202768420483070000006480905742086605466_" transform="translate(-172.58727,787.81449)">
			<g id="circle116404_00000166659701737375831970000017184590261955099038_">
				<path fill="#5AC4D5" d="M222.4-710.7c-16.1,0-29.1-13.1-29.1-29.1s13.1-29.1,29.1-29.1s29.1,13.1,29.1,29.1
					S238.4-710.7,222.4-710.7z M222.4-767.9c-15.5,0-28.1,12.6-28.1,28.1s12.6,28.1,28.1,28.1s28.1-12.6,28.1-28.1
					S237.9-767.9,222.4-767.9z"/>
			</g>
			<g id="path116406_00000157286330688243244760000002702409127102067618_">
				<path fill="#5AC4D5" d="M224.2-713.8l-0.2-2.7l1-0.1l0.2,2.7L224.2-713.8z M220.5-713.8l-1-0.1l0.2-2.7l1,0.1L220.5-713.8z
					 M228.8-714.5l-0.7-2.6l1-0.3l0.7,2.6L228.8-714.5z M215.9-714.5l-1-0.3l0.7-2.6l1,0.3L215.9-714.5z M211.5-716.1l-0.9-0.4
					l1.2-2.4l0.9,0.4L211.5-716.1z M233.2-716.1l-1.2-2.4l0.9-0.4l1.2,2.4L233.2-716.1z M237.3-718.4l-1.6-2.2l0.8-0.6l1.6,2.2
					L237.3-718.4z M207.4-718.4l-0.8-0.6l1.6-2.2l0.8,0.6L207.4-718.4z M240.9-721.4l-1.9-1.8l0.7-0.7l1.9,1.8L240.9-721.4z
					 M203.8-721.4l-0.7-0.7l1.9-1.8l0.7,0.7L203.8-721.4z M243.9-725l-2.2-1.5l0.6-0.8l2.2,1.5L243.9-725z M200.8-725l-0.6-0.8
					l2.2-1.5l0.6,0.8L200.8-725z M246.2-729.1l-2.5-1l0.4-0.9l2.5,1L246.2-729.1z M198.5-729.1l-0.4-0.9l2.5-1l0.4,0.9L198.5-729.1z
					 M247.7-733.5l-2.6-0.6l0.2-1l2.6,0.6L247.7-733.5z M197-733.5l-0.2-1l2.6-0.6l0.2,1L197-733.5z M248.4-738.1l-2.7-0.1l0-1
					l2.7,0.1L248.4-738.1z M196.3-738.1l0-1l2.7-0.1l0,1L196.3-738.1z M245.6-742.4l-0.1-1l2.6-0.4l0.1,1L245.6-742.4z M199.1-742.5
					l-2.6-0.4l0.1-1l2.6,0.4L199.1-742.5z M244.8-746.6l-0.3-1l2.5-0.8l0.3,1L244.8-746.6z M199.9-746.6l-2.5-0.8l0.3-1l2.5,0.8
					L199.9-746.6z M243.2-750.5l-0.5-0.9l2.4-1.3l0.5,0.9L243.2-750.5z M201.5-750.5l-2.4-1.3l0.5-0.9l2.4,1.3L201.5-750.5z
					 M241-754l-0.6-0.8l2.1-1.7l0.6,0.8L241-754z M203.7-754l-2.1-1.7l0.6-0.8l2.1,1.7L203.7-754z M238.1-757.1l-0.8-0.7l1.8-2
					l0.8,0.7L238.1-757.1z M206.6-757.1l-1.8-2l0.8-0.7l1.8,2L206.6-757.1z M234.8-759.7l-0.9-0.5l1.4-2.3l0.9,0.5L234.8-759.7z
					 M209.9-759.7l-1.4-2.3l0.9-0.5l1.4,2.3L209.9-759.7z M231.1-761.6l-0.9-0.4l0.9-2.5l0.9,0.4L231.1-761.6z M213.6-761.6
					l-0.9-2.5l0.9-0.4l0.9,2.5L213.6-761.6z M227-762.8l-1-0.2l0.5-2.6l1,0.2L227-762.8z M217.7-762.8l-0.5-2.6l1-0.2l0.5,2.6
					L217.7-762.8z M222.9-763.2h-1v-2.7h1V-763.2z"/>
			</g>
			<g id="path116408_00000086694271649209261800000012353604878890218682_">
				<path fill="#5AC4D5" d="M222.9-708.2h-1v-2.7h1V-708.2z M227.4-708.6l-0.5-2.7l1-0.2l0.5,2.7L227.4-708.6z M217.3-708.6l-1-0.2
					l0.5-2.7l1,0.2L217.3-708.6z M212-709.9l-0.9-0.3l0.9-2.5l0.9,0.3L212-709.9z M232.7-709.9l-0.9-2.5l0.9-0.3l0.9,2.5
					L232.7-709.9z M237.7-712.1l-1.3-2.3l0.9-0.5l1.3,2.3L237.7-712.1z M207-712.1l-0.9-0.5l1.3-2.3l0.9,0.5L207-712.1z
					 M242.3-715.2l-1.7-2.1l0.8-0.6l1.7,2.1L242.3-715.2z M202.4-715.2l-0.8-0.6l1.7-2.1l0.8,0.6L202.4-715.2z M246.3-719.1
					l-2.1-1.7l0.6-0.8l2.1,1.7L246.3-719.1z M198.4-719.1l-0.6-0.8l2.1-1.7l0.6,0.8L198.4-719.1z M249.5-723.5l-2.3-1.3l0.5-0.9
					l2.3,1.3L249.5-723.5z M195.2-723.5l-0.5-0.9l2.3-1.3l0.5,0.9L195.2-723.5z M251.9-728.5l-2.5-0.9l0.3-0.9l2.5,0.9L251.9-728.5z
					 M192.8-728.5l-0.3-0.9l2.5-0.9l0.3,0.9L192.8-728.5z M253.4-733.8l-2.7-0.5l0.2-1l2.7,0.5L253.4-733.8z M191.3-733.8l-0.2-1
					l2.7-0.5l0.2,1L191.3-733.8z M254-739.3h-2.7v-1h2.7V-739.3z M193.4-739.3h-2.7v-1h2.7V-739.3z M250.9-744.3l-0.2-1l2.7-0.5
					l0.2,1L250.9-744.3z M193.8-744.3l-2.7-0.5l0.2-1l2.7,0.5L193.8-744.3z M249.7-749.2l-0.3-0.9l2.5-0.9l0.3,0.9L249.7-749.2z
					 M195-749.2l-2.5-0.9l0.3-0.9l2.5,0.9L195-749.2z M247.7-753.8l-0.5-0.9l2.3-1.3l0.5,0.9L247.7-753.8z M197-753.8l-2.3-1.3
					l0.5-0.9l2.3,1.3L197-753.8z M244.8-758l-0.6-0.8l2.1-1.7l0.6,0.8L244.8-758z M199.9-758l-2.1-1.7l0.6-0.8l2.1,1.7L199.9-758z
					 M241.3-761.6l-0.8-0.6l1.7-2.1l0.8,0.6L241.3-761.6z M203.4-761.6l-1.7-2.1l0.8-0.6l1.7,2.1L203.4-761.6z M237.3-764.6
					l-0.9-0.5l1.3-2.3l0.9,0.5L237.3-764.6z M207.4-764.6l-1.3-2.3l0.9-0.5l1.3,2.3L207.4-764.6z M232.7-766.8l-0.9-0.3l0.9-2.5
					l0.9,0.3L232.7-766.8z M212-766.8l-0.9-2.5l0.9-0.3l0.9,2.5L212-766.8z M227.9-768.2l-1-0.2l0.5-2.7l1,0.2L227.9-768.2z
					 M216.8-768.2l-0.5-2.7l1-0.2l0.5,2.7L216.8-768.2z M222.9-768.7h-1v-2.7h1V-768.7z"/>
			</g>
			<g id="circle118433_00000155853949908305023770000004968022527506067852_">
				<path fill="#5AC4D5" d="M222.4-707.3c-17.9,0-32.5-14.6-32.5-32.5s14.6-32.5,32.5-32.5s32.5,14.6,32.5,32.5
					S240.3-707.3,222.4-707.3z M222.4-771.3c-17.4,0-31.5,14.1-31.5,31.5s14.1,31.5,31.5,31.5s31.5-14.1,31.5-31.5
					S239.7-771.3,222.4-771.3z"/>
			</g>
			<g id="circle118898_00000003790375294150306080000006404814902724202645_">
				<path fill="#5AC4D5" d="M222.4-718.2c-11.9,0-21.6-9.7-21.6-21.6s9.7-21.6,21.6-21.6s21.6,9.7,21.6,21.6
					S234.2-718.2,222.4-718.2z M222.4-760.4c-11.3,0-20.6,9.2-20.6,20.6s9.2,20.6,20.6,20.6s20.6-9.2,20.6-20.6
					S233.7-760.4,222.4-760.4z"/>
			</g>
			<g id="circle119267_00000138540243156084590540000006716684865199689896_">
				<path fill="#38797F" d="M222.4-728.8c-6.1,0-11-5-11-11c0-6.1,5-11,11-11c6.1,0,11,5,11,11C233.4-733.7,228.4-728.8,222.4-728.8
					z M222.4-749.8c-5.5,0-10,4.5-10,10s4.5,10,10,10s10-4.5,10-10S227.9-749.8,222.4-749.8z"/>
			</g>
			<g id="circle119269_00000159463173604072848250000012729831237451127721_">
				<path fill="#5AC4D5" d="M222.4-701.5c-21.1,0-38.3-17.2-38.3-38.3s17.2-38.3,38.3-38.3s38.3,17.2,38.3,38.3
					S243.5-701.5,222.4-701.5z M222.4-777.1c-20.6,0-37.3,16.7-37.3,37.3s16.7,37.3,37.3,37.3s37.3-16.7,37.3-37.3
					S242.9-777.1,222.4-777.1z"/>
			</g>
		</g>
		<g id="path118375_00000081632014245151142380000013178062685681037728_">
			
				<path inkscape:flatsided="true" inkscape:path-effect="#path-effect118379" inkscape:randomized="0" inkscape:rounded="0" inkscape:transform-center-x="0.61811742" inkscape:transform-center-y="2.2045595" sodipodi:arg1="-1.5662063" sodipodi:arg2="-0.51900864" sodipodi:cx="863.73944" sodipodi:cy="346.58304" sodipodi:r1="10.134922" sodipodi:r2="8.0777674" sodipodi:sides="3" sodipodi:type="star" fill="#38797F" d="
				M60,11.4l1.8,7l-7-2L60,11.4z M48.8,10l3.8,6.2l-7.3,0.2L48.8,10z M37.6,12l5.4,4.8l-6.9,2.3L37.6,12z M27.6,17.2l6.6,3l-5.9,4.2
				L27.6,17.2z M19.5,25.1l7.2,0.9l-4.4,5.8L19.5,25.1z M14.1,35l7.1-1.2l-2.5,6.8L14.1,35z M11.8,46.1l6.5-3.3l-0.4,7.2L11.8,46.1z
				 M12.9,57.4l5.2-5l1.8,7L12.9,57.4z M17.4,67.8l3.5-6.4l3.8,6.2L17.4,67.8z M24.6,76.5l1.5-7.1l5.4,4.8L24.6,76.5z M34.1,82.6
				l-0.7-7.2l6.6,3L34.1,82.6z M45.1,85.7L42.3,79l7.2,0.9L45.1,85.7z M56.4,85.4l-4.6-5.6l7.1-1.2L56.4,85.4z M67.1,81.8l-6.1-4
				l6.5-3.3L67.1,81.8z M76.3,75.2l-7-2l5.2-5L76.3,75.2z M83.1,66.2l-7.3,0.2l3.5-6.4L83.1,66.2z M87,55.5l-6.9,2.3l1.5-7.1
				L87,55.5z M87.6,44.2l-5.9,4.2L81,41.2L87.6,44.2z M84.8,33.2L80.4,39l-2.8-6.7L84.8,33.2z M78.9,23.6l-2.5,6.8l-4.6-5.6
				L78.9,23.6z M70.4,16.1L70,23.3l-6.1-4L70.4,16.1z"/>
		</g>
		<g id="path118963_00000045591404826693465760000007697946441520156296_">
			<path fill="#5AC4D5" d="M70.8,48.5H60.3v-1h10.5V48.5z M39.2,48.5H28.7v-1h10.5V48.5z"/>
		</g>
		<g id="path119265_00000039850091877929061110000017063195098758949018_">
			<path fill="#5AC4D5" d="M50.3,69.1h-1V58.5h1V69.1z M50.3,37.5h-1V26.9h1V37.5z"/>
		</g>
	</g>
</g>
</svg>
