<?xml version="1.0" encoding="utf-8"?>
<!-- Generator: Adobe Illustrator 26.4.1, SVG Export Plug-In . SVG Version: 6.00 Build 0)  -->
<svg version="1.1" xmlns="http://www.w3.org/2000/svg" xmlns:xlink="http://www.w3.org/1999/xlink" x="0px" y="0px" width="100px"
	 height="100px" viewBox="0 0 100 100" enable-background="new 0 0 100 100" xml:space="preserve">
<g id="BACKGROUND">
</g>
<g id="OBJECTS" xmlns:sodipodi="http://sodipodi.sourceforge.net/DTD/sodipodi-0.dtd" xmlns:svg="http://www.w3.org/2000/svg" xmlns:inkscape="http://www.inkscape.org/namespaces/inkscape" inkscape:version="1.2.1 (1:1.2+202205161848+dc2aedaf03)" sodipodi:docname="24 Agustus 2022.svg">
	<g id="g116448_00000013176821184427973730000009839653793362546335_" transform="translate(-15.99346,787.81449)">
		<g id="g116416_00000099625215895591455070000002244147637025414320_" transform="translate(18.724083,127.74169)">
			<g id="path116412_00000131334033465148899590000014898088967458686622_">
				<path fill="#5AC4D5" d="M47.3-819.1c-0.3,0-0.5-0.2-0.5-0.5v-23c0-0.3,0.2-0.5,0.5-0.5s0.5,0.2,0.5,0.5v23
					C47.8-819.4,47.5-819.1,47.3-819.1z M47.3-888c-0.3,0-0.5-0.2-0.5-0.5v-23c0-0.3,0.2-0.5,0.5-0.5s0.5,0.2,0.5,0.5v23
					C47.8-888.2,47.5-888,47.3-888z"/>
			</g>
			<g id="path116414_00000070078335394263097410000009011209970502643589_">
				<path fill="#5AC4D5" d="M93.2-865.1h-23c-0.3,0-0.5-0.2-0.5-0.5s0.2-0.5,0.5-0.5h23c0.3,0,0.5,0.2,0.5,0.5
					S93.5-865.1,93.2-865.1z M24.3-865.1h-23c-0.3,0-0.5-0.2-0.5-0.5s0.2-0.5,0.5-0.5h23c0.3,0,0.5,0.2,0.5,0.5
					S24.6-865.1,24.3-865.1z"/>
			</g>
		</g>
		<g id="g116422_00000129191837347616998570000005049920839195170455_" inkscape:path-effect="#path-effect116510">
			<g id="path116420_00000105415782888431824020000013193797547447843242_">
				<path fill="#5AC4D5" d="M85-704.9l-2-3.5c5.2-3,9.5-7.3,12.5-12.5l3.5,2C95.6-713,90.8-708.2,85-704.9z M47-704.9
					c-5.8-3.3-10.6-8.1-13.9-13.9l3.5-2c3,5.2,7.3,9.5,12.5,12.5L47-704.9z M95.5-754.8c-3-5.2-7.3-9.5-12.5-12.5l2-3.5
					c5.8,3.3,10.6,8.1,13.9,13.9L95.5-754.8z M36.5-754.8l-3.5-2c3.3-5.8,8.1-10.6,13.9-13.9l2,3.5C43.8-764.3,39.5-760,36.5-754.8z
					"/>
			</g>
		</g>
		<g id="circle116424_00000005235487541778171710000011586012103959961480_">
			<path fill="#5AC4D5" d="M66-708.6c-16.1,0-29.2-13.1-29.2-29.2S49.9-767,66-767s29.2,13.1,29.2,29.2S82.1-708.6,66-708.6z
				 M66-766c-15.5,0-28.2,12.6-28.2,28.2s12.6,28.2,28.2,28.2s28.2-12.6,28.2-28.2S81.5-766,66-766z"/>
		</g>
		<g id="path116428_00000094581537554350043010000004977958881427579802_">
			<path fill="#5AC4D5" d="M66.2-706.3h-0.5v-2.3h0.5V-706.3z M68.2-706.4l-0.2-2.3l0.5,0l0.2,2.3L68.2-706.4z M63.8-706.4l-0.5,0
				l0.2-2.3l0.5,0L63.8-706.4z M70.6-706.7l-0.3-2.2l0.5-0.1l0.3,2.2L70.6-706.7z M61.4-706.7l-0.5-0.1l0.3-2.2l0.5,0.1L61.4-706.7z
				 M59.1-707.1l-0.5-0.1l0.5-2.2l0.5,0.1L59.1-707.1z M72.9-707.1l-0.5-2.2l0.5-0.1l0.5,2.2L72.9-707.1z M75.3-707.7l-0.7-2.2
				L75-710l0.7,2.2L75.3-707.7z M56.7-707.7l-0.5-0.2l0.7-2.2l0.5,0.2L56.7-707.7z M77.5-708.5l-0.9-2.1l0.5-0.2l0.9,2.1L77.5-708.5
				z M54.5-708.5l-0.5-0.2l0.9-2.1l0.5,0.2L54.5-708.5z M79.7-709.5l-1-2l0.4-0.2l1,2L79.7-709.5z M52.2-709.5l-0.4-0.2l1-2l0.4,0.2
				L52.2-709.5z M81.9-710.6l-1.2-2l0.4-0.3l1.2,2L81.9-710.6z M50.1-710.6l-0.4-0.3l1.2-2l0.4,0.3L50.1-710.6z M83.9-711.9
				l-1.3-1.9l0.4-0.3l1.3,1.9L83.9-711.9z M48.1-711.9l-0.4-0.3l1.3-1.9l0.4,0.3L48.1-711.9z M85.8-713.4l-1.4-1.8l0.4-0.3l1.4,1.8
				L85.8-713.4z M46.2-713.4l-0.4-0.3l1.4-1.8l0.4,0.3L46.2-713.4z M87.6-714.9l-1.6-1.6l0.4-0.3l1.6,1.6L87.6-714.9z M44.3-714.9
				l-0.4-0.3l1.6-1.6l0.4,0.3L44.3-714.9z M89.3-716.7l-1.7-1.5l0.3-0.4l1.7,1.5L89.3-716.7z M42.7-716.7l-0.3-0.4l1.7-1.5l0.3,0.4
				L42.7-716.7z M90.9-718.5l-1.8-1.4l0.3-0.4l1.8,1.4L90.9-718.5z M41.1-718.5l-0.3-0.4l1.8-1.4l0.3,0.4L41.1-718.5z M92.3-720.5
				l-1.9-1.2l0.3-0.4l1.9,1.2L92.3-720.5z M39.7-720.5l-0.3-0.4l1.9-1.2l0.3,0.4L39.7-720.5z M93.5-722.5l-2-1.1l0.2-0.4l2,1.1
				L93.5-722.5z M38.5-722.5l-0.2-0.4l2-1.1l0.2,0.4L38.5-722.5z M94.6-724.7l-2.1-0.9l0.2-0.5l2.1,0.9L94.6-724.7z M37.4-724.7
				l-0.2-0.5l2.1-0.9l0.2,0.5L37.4-724.7z M95.5-726.9l-2.1-0.8l0.2-0.5l2.1,0.8L95.5-726.9z M36.5-726.9l-0.2-0.5l2.1-0.8l0.2,0.5
				L36.5-726.9z M96.3-729.2l-2.2-0.6l0.1-0.5l2.2,0.6L96.3-729.2z M35.7-729.2l-0.1-0.5l2.2-0.6l0.1,0.5L35.7-729.2z M96.9-731.6
				l-2.2-0.4l0.1-0.5l2.2,0.4L96.9-731.6z M35.1-731.6l-0.1-0.5l2.2-0.4l0.1,0.5L35.1-731.6z M97.2-733.9l-2.3-0.3l0.1-0.5l2.3,0.3
				L97.2-733.9z M34.7-733.9l-0.1-0.5l2.3-0.3l0.1,0.5L34.7-733.9z M97.4-736.3l-2.3-0.1l0-0.5l2.3,0.1L97.4-736.3z M34.5-736.3
				l0-0.5l2.3-0.1l0,0.5L34.5-736.3z M95.2-738.7l0-0.5l2.3-0.1l0,0.5L95.2-738.7z M36.8-738.7l-2.3-0.1l0-0.5l2.3,0.1L36.8-738.7z
				 M95-740.9l-0.1-0.5l2.3-0.3l0.1,0.5L95-740.9z M37-740.9l-2.3-0.3l0.1-0.5l2.3,0.3L37-740.9z M94.7-743.1l-0.1-0.5l2.2-0.4
				l0.1,0.5L94.7-743.1z M37.3-743.1l-2.2-0.4l0.1-0.5l2.2,0.4L37.3-743.1z M94.2-745.3l-0.1-0.5l2.2-0.6l0.1,0.5L94.2-745.3z
				 M37.8-745.3l-2.2-0.6l0.1-0.5l2.2,0.6L37.8-745.3z M93.6-747.4l-0.2-0.5l2.1-0.8l0.2,0.5L93.6-747.4z M38.4-747.4l-2.1-0.8
				l0.2-0.5l2.1,0.8L38.4-747.4z M92.7-749.5l-0.2-0.5l2.1-0.9l0.2,0.5L92.7-749.5z M39.2-749.5l-2.1-0.9l0.2-0.5l2.1,0.9
				L39.2-749.5z M91.8-751.5l-0.2-0.4l2-1.1l0.2,0.4L91.8-751.5z M40.2-751.5l-2-1.1l0.2-0.4l2,1.1L40.2-751.5z M90.6-753.5
				l-0.3-0.4l1.9-1.2l0.3,0.4L90.6-753.5z M41.3-753.5l-1.9-1.2l0.3-0.4l1.9,1.2L41.3-753.5z M89.4-755.3l-0.3-0.4l1.8-1.4l0.3,0.4
				L89.4-755.3z M42.6-755.3l-1.8-1.4l0.3-0.4l1.8,1.4L42.6-755.3z M88-757.1l-0.3-0.4l1.7-1.5l0.3,0.4L88-757.1z M44-757.1
				l-1.7-1.5l0.3-0.4l1.7,1.5L44-757.1z M86.4-758.7l-0.4-0.3l1.6-1.6l0.4,0.3L86.4-758.7z M45.6-758.7l-1.6-1.6l0.4-0.3l1.6,1.6
				L45.6-758.7z M84.8-760.2l-0.4-0.3l1.4-1.8l0.4,0.3L84.8-760.2z M47.2-760.2l-1.4-1.8l0.4-0.3l1.4,1.8L47.2-760.2z M83-761.6
				l-0.4-0.3l1.3-1.9l0.4,0.3L83-761.6z M49-761.6l-1.3-1.9l0.4-0.3l1.3,1.9L49-761.6z M81.1-762.8l-0.4-0.3l1.2-2l0.4,0.3
				L81.1-762.8z M50.9-762.8l-1.2-2l0.4-0.3l1.2,2L50.9-762.8z M79.2-763.9l-0.4-0.2l1-2l0.4,0.2L79.2-763.9z M52.8-763.9l-1-2
				l0.4-0.2l1,2L52.8-763.9z M54.8-764.8l-0.9-2.1l0.5-0.2l0.9,2.1L54.8-764.8z M77.1-764.8l-0.5-0.2l0.8-2.1l0.5,0.2L77.1-764.8z
				 M75-765.6l-0.5-0.2l0.7-2.2l0.5,0.2L75-765.6z M56.9-765.6l-0.7-2.2l0.5-0.2l0.7,2.2L56.9-765.6z M72.9-766.2l-0.5-0.1l0.5-2.2
				l0.5,0.1L72.9-766.2z M59.1-766.2l-0.5-2.2l0.5-0.1l0.5,2.2L59.1-766.2z M70.7-766.6l-0.5-0.1l0.3-2.2l0.5,0.1L70.7-766.6z
				 M61.3-766.6l-0.3-2.2l0.5-0.1l0.3,2.2L61.3-766.6z M68.5-766.9l-0.5,0l0.2-2.3l0.5,0L68.5-766.9z M63.5-766.9l-0.2-2.3l0.5,0
				l0.2,2.3L63.5-766.9z M66.2-767h-0.5v-2.3h0.5V-767z"/>
		</g>
		
			<g id="g116432_00000005267289677782529160000004535694343503899070_" transform="matrix(0.63109733,0,0,0.63109733,350.42295,-144.63748)" inkscape:path-effect="#path-effect116522">
			<g id="path116430_00000145739313156395302270000013292503727172956579_">
				<path fill="#5AC4D5" d="M-450.7-903.1c-1.5,0-3-0.1-4.5-0.3l0.2-1.6c2.9,0.4,5.9,0.3,8.8,0l0.2,1.6
					C-447.5-903.2-449.1-903.1-450.7-903.1z M-487.2-935.2c-0.4-3-0.4-6.1,0-9.2l1.6,0.2c-0.4,2.9-0.3,5.9,0,8.8L-487.2-935.2z
					 M-414.2-935.5l-1.6-0.2c0.4-2.9,0.3-5.9,0-8.8l1.6-0.2C-413.8-941.6-413.8-938.5-414.2-935.5z M-455.2-974.9l-0.2-1.6
					c3-0.4,6.1-0.4,9.2,0l-0.2,1.6C-449.3-975.2-452.3-975.2-455.2-974.9z"/>
			</g>
		</g>
		<g id="circle116434_00000037682808850999088950000015469918149506492596_">
			<path fill="#38797F" d="M66-718.8c-10.5,0-19-8.5-19-19s8.5-19,19-19s19,8.5,19,19S76.5-718.8,66-718.8z M66-755.8
				c-9.9,0-18,8.1-18,18s8.1,18,18,18s18-8.1,18-18S75.9-755.8,66-755.8z"/>
		</g>
		
			<g id="g116440_00000065037261136104951730000007644215139569508518_" transform="matrix(0.61569568,0.35547207,-0.35547207,0.61569568,225.6814,-488.34121)" inkscape:path-effect="#path-effect116526">
			<g id="path116436_00000004514685000386618290000010146620930914942644_">
				<path fill="#5AC4D5" d="M-359.9-154.1c-6.6,1.8-13.5,1.8-20.1,0l1.5-5.4c5.6,1.5,11.6,1.5,17.2,0L-359.9-154.1z M-332.5-181.5
					l-5.4-1.5c1.5-5.6,1.5-11.6,0-17.2l5.4-1.5C-330.7-195.1-330.7-188.1-332.5-181.5z M-402-183l-5.4,1.5c-1.8-6.6-1.8-13.5,0-20.1
					l5.4,1.5C-403.6-194.6-403.6-188.6-402-183z M-361.4-223.7c-5.6-1.5-11.6-1.5-17.2,0l-1.5-5.4c6.6-1.8,13.5-1.8,20.1,0
					L-361.4-223.7z"/>
			</g>
			<g id="path116438_00000098942079848474060530000012325935052896635574_">
				<path fill="#5AC4D5" d="M-359.9-154.1c-6.6,1.8-13.5,1.8-20.1,0l1.5-5.4c5.6,1.5,11.6,1.5,17.2,0L-359.9-154.1z M-332.5-181.5
					l-5.4-1.5c1.5-5.6,1.5-11.6,0-17.2l5.4-1.5C-330.7-195.1-330.7-188.1-332.5-181.5z M-402-183l-5.4,1.5c-1.8-6.6-1.8-13.5,0-20.1
					l5.4,1.5C-403.6-194.6-403.6-188.6-402-183z M-361.4-223.7c-5.6-1.5-11.6-1.5-17.2,0l-1.5-5.4c6.6-1.8,13.5-1.8,20.1,0
					L-361.4-223.7z"/>
			</g>
		</g>
		
			<g id="g116446_00000002378429973542826920000002528968660752063631_" transform="matrix(0.35547207,0.61569568,-0.61569568,0.35547207,370.84229,-837.55639)" inkscape:path-effect="#path-effect116530">
			<g id="path116442_00000101816031860955495140000017986219503882161799_">
				<path fill="#5AC4D5" d="M-60.4,450.2l-5.4-1.5c1.3-4.7,1.3-9.8,0-14.5l5.4-1.5C-58.9,438.5-58.9,444.5-60.4,450.2z M-84.2,474
					c-5.7,1.5-11.7,1.5-17.4,0l1.5-5.4c4.7,1.3,9.8,1.3,14.5,0L-84.2,474z M-85.6,414.4c-4.7-1.3-9.8-1.3-14.5,0l-1.5-5.4
					c5.7-1.5,11.7-1.5,17.4,0L-85.6,414.4z M-120,448.7l-5.4,1.5c-1.5-5.7-1.5-11.7,0-17.4l5.4,1.5C-121.2,439-121.2,444-120,448.7z
					"/>
			</g>
		</g>
	</g>
</g>
</svg>
