<?xml version="1.0" encoding="utf-8"?>
<!-- Generator: Adobe Illustrator 26.4.1, SVG Export Plug-In . SVG Version: 6.00 Build 0)  -->
<svg version="1.1" xmlns="http://www.w3.org/2000/svg" xmlns:xlink="http://www.w3.org/1999/xlink" x="0px" y="0px" width="100px"
	 height="100px" viewBox="0 0 100 100" enable-background="new 0 0 100 100" xml:space="preserve">
<g id="BACKGROUND">
</g>
<g id="OBJECTS" xmlns:sodipodi="http://sodipodi.sourceforge.net/DTD/sodipodi-0.dtd" xmlns:svg="http://www.w3.org/2000/svg" xmlns:inkscape="http://www.inkscape.org/namespaces/inkscape" inkscape:version="1.2.1 (1:1.2+202205161848+dc2aedaf03)" sodipodi:docname="24 Agustus 2022.svg">
	<g id="g119542_00000137818312100727504400000005634197618995353996_" transform="rotate(45,147.66698,360.91512)">
		<g id="g119526_00000135681539619804125500000002665353450514103942_" transform="translate(18.724083,127.74169)">
			<g id="path119518_00000096046127396484694870000007154927778433128124_">
				<path fill="#5AC4D5" d="M-159.6,123.5c-0.1,0.1-0.2,0.1-0.4,0.1c-0.3,0-0.5-0.2-0.5-0.5v-20.4c0-0.3,0.2-0.5,0.5-0.5
					s0.5,0.2,0.5,0.5v20.4C-159.5,123.3-159.5,123.4-159.6,123.5z M-159.6,62.3c-0.1,0.1-0.2,0.1-0.4,0.1c-0.3,0-0.5-0.2-0.5-0.5
					V41.6c0-0.3,0.2-0.5,0.5-0.5s0.5,0.2,0.5,0.5V62C-159.5,62.1-159.5,62.3-159.6,62.3z"/>
			</g>
			<g id="path119520_00000085954370512127399740000006988914882416937653_">
				<path fill="#5AC4D5" d="M-118.8,82.7c-0.1,0.1-0.2,0.1-0.4,0.1h-20.4c-0.3,0-0.5-0.2-0.5-0.5s0.2-0.5,0.5-0.5h20.4
					c0.3,0,0.5,0.2,0.5,0.5C-118.7,82.5-118.7,82.6-118.8,82.7z M-180,82.7c-0.1,0.1-0.2,0.1-0.4,0.1h-20.4c-0.3,0-0.5-0.2-0.5-0.5
					s0.2-0.5,0.5-0.5h20.4c0.3,0,0.5,0.2,0.5,0.5C-179.9,82.5-179.9,82.6-180,82.7z"/>
			</g>
		</g>
		
			<g id="g119530_00000171001148604990455950000014250810613992867223_" transform="rotate(45,949.90623,-392.0749)" inkscape:path-effect="#path-effect119546">
			<g id="path119528_00000114753894720670134060000009133783458466758305_">
				<path fill="#5AC4D5" d="M642.3,783.3l-3.5,2c-3.5-6.1-8.6-11.1-14.7-14.7l2-3.5C632.9,771,638.5,776.6,642.3,783.3z
					 M642.3,827.3c-3.9,6.7-9.4,12.3-16.1,16.1l-2-3.5c6.1-3.5,11.1-8.6,14.7-14.7L642.3,827.3z M584.1,770.6
					c-6.1,3.5-11.1,8.6-14.7,14.7l-3.5-2c3.9-6.7,9.4-12.3,16.1-16.1L584.1,770.6z M584.1,840l-2,3.5c-6.7-3.9-12.3-9.4-16.1-16.1
					l3.5-2C573,831.4,578.1,836.5,584.1,840z"/>
			</g>
		</g>
		<g id="circle119532_00000038396538710493439860000011364354499835508366_">
			<path fill="#5AC4D5" d="M-115.5,235.9c-6.9,6.9-16,10.7-25.8,10.7c-9.7,0-18.9-3.8-25.8-10.7s-10.7-16-10.7-25.8
				c0-20.1,16.3-36.4,36.4-36.4c9.7,0,18.9,3.8,25.8,10.7c6.9,6.9,10.7,16,10.7,25.8C-104.8,219.9-108.6,229-115.5,235.9z
				 M-165.6,185.8c-6.2,6.2-10.1,14.8-10.1,24.3c0,9.2,3.6,17.8,10.1,24.3s15.1,10.1,24.3,10.1c9.2,0,17.8-3.6,24.3-10.1
				c6.5-6.5,10.1-15.1,10.1-24.3s-3.6-17.8-10.1-24.3c-6.5-6.5-15.1-10.1-24.3-10.1C-150.7,175.7-159.3,179.6-165.6,185.8z"/>
		</g>
		<g id="path119534_00000086656233630656094780000008816645013796893864_">
			<path fill="#5AC4D5" d="M-118.9,230.3l-2.1,2l-0.3-0.4l2.1-2L-118.9,230.3z M-122.4,233.6l-2.4,1.6l-0.3-0.4l2.4-1.6
				L-122.4,233.6z M-117.8,228.9l-0.4-0.3l1.8-2.3l0.4,0.3L-117.8,228.9z M-126.3,236.2l-2.6,1.2l-0.2-0.5l2.6-1.2L-126.3,236.2z
				 M-115.2,225l-0.4-0.2l1.4-2.5l0.4,0.2L-115.2,225z M-130.5,238.3l-2.8,0.8l-0.1-0.5l2.8-0.8L-130.5,238.3z M-113.2,220.7
				l-0.5-0.2l1-2.7l0.5,0.2L-113.2,220.7z M-135.1,239.6l-2.9,0.4l-0.1-0.5l2.9-0.4L-135.1,239.6z M-111.9,216.2l-0.5-0.1l0.5-2.8
				l0.5,0.1L-111.9,216.2z M-139.8,240.2l-2.9-0.1l0-0.5l2.9,0.1L-139.8,240.2z M-111.3,211.5l-0.5,0l0.1-2.9l0.5,0L-111.3,211.5z
				 M-144.5,240.1l-2.8-0.5l0.1-0.5l2.8,0.5L-144.5,240.1z M-111.4,206.8l-0.5,0.1l-0.4-2.9l0.5-0.1L-111.4,206.8z M-149.1,239.2
				l-2.7-1l0.2-0.5l2.7,1L-149.1,239.2z M-112.3,202.2l-0.5,0.1l-0.8-2.8l0.5-0.1L-112.3,202.2z M-153.6,237.6l-2.5-1.4l0.2-0.4
				l2.5,1.4L-153.6,237.6z M-113.9,197.8l-0.5,0.2l-1.2-2.6l0.5-0.2L-113.9,197.8z M-157.7,235.3l-2.3-1.8l0.3-0.4l2.3,1.8
				L-157.7,235.3z M-116.2,193.6l-0.4,0.3l-1.6-2.4l0.4-0.3L-116.2,193.6z M-161.1,232.1l-0.4,0.3l-2-2.1l0.4-0.3L-161.1,232.1z
				 M-119.1,189.9l-0.4,0.3l-2-2.1l0.4-0.3L-119.1,189.9z M-164.3,228.7l-0.4,0.3l-1.6-2.4l0.4-0.3L-164.3,228.7z M-122.8,187.1
				l-2.3-1.8l0.3-0.4l2.3,1.8L-122.8,187.1z M-166.9,224.9l-0.5,0.2l-1.2-2.6l0.5-0.2L-166.9,224.9z M-126.6,184.5l-2.5-1.4l0.2-0.4
				l2.5,1.4L-126.6,184.5z M-168.9,220.7l-0.5,0.1l-0.8-2.8l0.5-0.1L-168.9,220.7z M-130.8,182.5l-2.7-1l0.2-0.5l2.7,1L-130.8,182.5
				z M-170.2,216.2l-0.5,0.1l-0.4-2.9l0.5-0.1L-170.2,216.2z M-135.3,181.2l-2.8-0.5l0.1-0.5l2.8,0.5L-135.3,181.2z M-170.8,211.6
				l-0.5,0l0.1-2.9l0.5,0L-170.8,211.6z M-139.9,180.7l-2.9-0.1l0-0.5l2.9,0.1L-139.9,180.7z M-144.5,180.8l-2.9,0.4l-0.1-0.5
				l2.9-0.4L-144.5,180.8z M-170.7,207l-0.5-0.1l0.5-2.8l0.5,0.1L-170.7,207z M-149,181.7l-2.8,0.8l-0.1-0.5l2.8-0.8L-149,181.7z
				 M-169.8,202.4l-0.5-0.2l1-2.7l0.5,0.2L-169.8,202.4z M-153.4,183.2l-2.6,1.2l-0.2-0.5l2.6-1.2L-153.4,183.2z M-168.3,198
				l-0.4-0.2l1.4-2.5l0.4,0.2L-168.3,198z M-157.4,185.5l-2.4,1.6l-0.3-0.4l2.4-1.6L-157.4,185.5z M-166.1,194l-0.4-0.3l1.8-2.3
				l0.4,0.3L-166.1,194z M-161.1,188.3l-2.1,2l-0.3-0.4l2.1-2L-161.1,188.3z"/>
		</g>
		
			<g id="g119538_00000070103108292101897830000003845036522508229035_" transform="matrix(0.44209471,0.44209471,-0.44209471,0.44209471,356.62348,-638.68918)" inkscape:path-effect="#path-effect119554">
			<g id="path119536_00000143578463284912870650000016251732923993312441_">
				<path fill="#5AC4D5" d="M425.6,1539.6c-2.9,5-7.1,9.2-12.1,12.1l-1.6-2.8c4.5-2.6,8.3-6.4,10.9-10.9L425.6,1539.6z
					 M425.6,1506.5l-2.8,1.6c-2.6-4.5-6.4-8.3-10.9-10.9l1.6-2.8C418.5,1497.3,422.7,1501.5,425.6,1506.5z M382,1497.2
					c-4.5,2.6-8.3,6.4-10.9,10.9l-2.8-1.6c2.9-5,7.1-9.2,12.1-12.1L382,1497.2z M382,1549l-1.6,2.8c-5-2.9-9.2-7.1-12.1-12.1
					l2.8-1.6C373.6,1542.6,377.4,1546.3,382,1549z"/>
			</g>
		</g>
		<g id="circle119540_00000046326556525343946900000006111482921790746780_">
			<path fill="#38797F" d="M-117.7,233.6c-6.3,6.3-14.6,9.7-23.5,9.7s-17.2-3.5-23.5-9.7c-6.3-6.3-9.7-14.6-9.7-23.5
				s3.5-17.2,9.7-23.5c6.3-6.3,14.6-9.7,23.5-9.7c18.3,0,33.3,14.9,33.3,33.3C-108,219-111.4,227.4-117.7,233.6z M-164.1,187.3
				c-6.1,6.1-9.5,14.2-9.5,22.8s3.4,16.7,9.5,22.8c6.1,6.1,14.2,9.5,22.8,9.5c8.6,0,16.7-3.4,22.8-9.5c6.1-6.1,9.5-14.2,9.5-22.8
				c0-17.8-14.5-32.3-32.3-32.3C-149.9,177.9-158,181.2-164.1,187.3z"/>
		</g>
	</g>
</g>
</svg>
