<?xml version="1.0" encoding="utf-8"?>
<!-- Generator: Adobe Illustrator 26.4.1, SVG Export Plug-In . SVG Version: 6.00 Build 0)  -->
<svg version="1.1" xmlns="http://www.w3.org/2000/svg" xmlns:xlink="http://www.w3.org/1999/xlink" x="0px" y="0px" width="100px"
	 height="100px" viewBox="0 0 100 100" enable-background="new 0 0 100 100" xml:space="preserve">
<g id="BACKGROUND">
</g>
<g id="OBJECTS" xmlns:sodipodi="http://sodipodi.sourceforge.net/DTD/sodipodi-0.dtd" xmlns:svg="http://www.w3.org/2000/svg" xmlns:inkscape="http://www.inkscape.org/namespaces/inkscape" inkscape:version="1.2.1 (1:1.2+202205161848+dc2aedaf03)" sodipodi:docname="24 Agustus 2022.svg">
	<g id="g116252_00000015351237213892791490000005401614864026302872_" transform="translate(-172.58727,636.70375)">
		<g id="g116240_00000023978229608513021780000018219734499424787118_" transform="translate(18.724083,127.74169)">
			<g id="path116236_00000069379944805823649510000001873851688803930276_">
				<path fill="#5AC4D5" d="M203.9-668c-0.3,0-0.5-0.2-0.5-0.5v-23c0-0.3,0.2-0.5,0.5-0.5s0.5,0.2,0.5,0.5v23
					C204.4-668.2,204.1-668,203.9-668z M203.9-736.9c-0.3,0-0.5-0.2-0.5-0.5v-23c0-0.3,0.2-0.5,0.5-0.5s0.5,0.2,0.5,0.5v23
					C204.4-737.1,204.1-736.9,203.9-736.9z"/>
			</g>
			<g id="path116238_00000179627898938116753600000009661906903823842235_">
				<path fill="#5AC4D5" d="M249.8-713.9h-23c-0.3,0-0.5-0.2-0.5-0.5s0.2-0.5,0.5-0.5h23c0.3,0,0.5,0.2,0.5,0.5
					S250.1-713.9,249.8-713.9z M180.9-713.9h-23c-0.3,0-0.5-0.2-0.5-0.5s0.2-0.5,0.5-0.5h23c0.3,0,0.5,0.2,0.5,0.5
					S181.2-713.9,180.9-713.9z"/>
			</g>
			<g id="path117934_00000160178787479618896240000001748923836419614851_">
				<path fill="#5AC4D5" d="M188.1-698.2c-0.1,0-0.3,0-0.4-0.1c-0.2-0.2-0.2-0.5,0-0.7l7.9-7.9c0.2-0.2,0.5-0.2,0.7,0s0.2,0.5,0,0.7
					l-7.9,7.9C188.4-698.3,188.3-698.2,188.1-698.2z M211.7-721.8c-0.1,0-0.3,0-0.4-0.1c-0.2-0.2-0.2-0.5,0-0.7l7.9-7.9
					c0.2-0.2,0.5-0.2,0.7,0s0.2,0.5,0,0.7l-7.9,7.9C212-721.9,211.9-721.8,211.7-721.8z"/>
			</g>
			<g id="path117936_00000032634520643095056500000016934132760848171198_">
				<path fill="#5AC4D5" d="M219.6-698.2c-0.1,0-0.3,0-0.4-0.1l-7.9-7.9c-0.2-0.2-0.2-0.5,0-0.7s0.5-0.2,0.7,0l7.9,7.9
					c0.2,0.2,0.2,0.5,0,0.7C219.9-698.3,219.7-698.2,219.6-698.2z M196-721.8c-0.1,0-0.3,0-0.4-0.1l-7.9-7.9c-0.2-0.2-0.2-0.5,0-0.7
					s0.5-0.2,0.7,0l7.9,7.9c0.2,0.2,0.2,0.5,0,0.7C196.3-721.9,196.1-721.8,196-721.8z"/>
			</g>
		</g>
		
			<g id="g116244_00000028327631625843512130000004573010425854678931_" transform="rotate(-15,949.90623,-392.0749)" inkscape:path-effect="#path-effect116340">
			<g id="path116242_00000149340509119184039730000008440897396923224962_">
				<path fill="#5AC4D5" d="M287.9-731.6c-3.2-0.9-6.3-2.1-9.2-3.8l2-3.5c2.6,1.5,5.3,2.6,8.2,3.4L287.9-731.6z M297.7-730.3v-4
					c3,0,5.9-0.4,8.8-1.2l1,3.9C304.4-730.7,301.1-730.3,297.7-730.3z M270.9-741.4c-2.3-2.3-4.4-5-6-7.9l3.5-2
					c1.5,2.6,3.3,4.9,5.4,7L270.9-741.4z M316.8-735.4l-2-3.5c2.6-1.5,4.9-3.3,7-5.4l2.8,2.8C322.3-739.1,319.6-737.1,316.8-735.4z
					 M261-758.5c-0.9-3.2-1.3-6.5-1.3-9.8h4c0,3,0.4,5.9,1.2,8.8L261-758.5z M330.7-749.3l-3.5-2c1.5-2.6,2.6-5.3,3.4-8.2l3.9,1
					C333.6-755.3,332.3-752.2,330.7-749.3z M264.9-777.1l-3.9-1c0.9-3.2,2.1-6.3,3.8-9.2l3.5,2C266.8-782.8,265.7-780,264.9-777.1z
					 M331.8-768.3c0-3-0.4-5.9-1.2-8.8l3.9-1c0.9,3.2,1.3,6.5,1.3,9.8H331.8z M273.7-792.4l-2.8-2.8c2.3-2.3,5-4.4,7.9-6l2,3.5
					C278.2-796.3,275.8-794.5,273.7-792.4z M327.2-785.3c-1.5-2.6-3.3-4.9-5.4-7l2.8-2.8c2.3,2.3,4.4,5,6,7.9L327.2-785.3z
					 M288.9-801.2l-1-3.9c3.2-0.9,6.5-1.3,9.8-1.3l0,4C294.8-802.3,291.8-801.9,288.9-801.2z M314.8-797.8c-2.6-1.5-5.3-2.6-8.2-3.4
					l1-3.9c3.2,0.9,6.3,2.1,9.2,3.8L314.8-797.8z"/>
			</g>
		</g>
		<g id="circle116246_00000026137935916786059540000004297275579325177249_">
			<path fill="#38797F" d="M222.6-563.2c-13,0-23.5-10.5-23.5-23.5s10.5-23.5,23.5-23.5s23.5,10.5,23.5,23.5
				S235.5-563.2,222.6-563.2z M222.6-609.2c-12.4,0-22.5,10.1-22.5,22.5s10.1,22.5,22.5,22.5s22.5-10.1,22.5-22.5
				S235-609.2,222.6-609.2z"/>
		</g>
		<g id="path116250_00000042721832720548643570000016897368566504777125_">
			<path fill="#5AC4D5" d="M223.1-554.6h-1v-4.5h1V-554.6z M227.7-555l-0.8-4.4l1-0.2l0.8,4.4L227.7-555z M217.5-555l-1-0.2l0.8-4.4
				l1,0.2L217.5-555z M233.1-556.3l-1.5-4.2l0.9-0.3l1.5,4.2L233.1-556.3z M212.1-556.3l-0.9-0.3l1.5-4.2l0.9,0.3L212.1-556.3z
				 M238.2-558.6l-2.3-3.9l0.9-0.5l2.3,3.9L238.2-558.6z M207-558.6l-0.9-0.5l2.3-3.9l0.9,0.5L207-558.6z M242.9-561.8l-2.9-3.4
				l0.8-0.6l2.9,3.4L242.9-561.8z M202.3-561.8l-0.8-0.6l2.9-3.4l0.8,0.6L202.3-561.8z M246.9-565.7l-3.4-2.9l0.6-0.8l3.4,2.9
				L246.9-565.7z M198.3-565.7l-0.6-0.8l3.4-2.9l0.6,0.8L198.3-565.7z M250.2-570.2l-3.9-2.3l0.5-0.9l3.9,2.3L250.2-570.2z
				 M195-570.2l-0.5-0.9l3.9-2.3l0.5,0.9L195-570.2z M192.6-575.2l-0.3-0.9l4.2-1.5l0.3,0.9L192.6-575.2z M252.6-575.2l-4.2-1.5
				l0.3-0.9l4.2,1.5L252.6-575.2z M254.2-580.6l-4.4-0.8l0.2-1l4.4,0.8L254.2-580.6z M191-580.6l-0.2-1l4.4-0.8l0.2,1L191-580.6z
				 M254.7-586.2h-4.5v-1h4.5V-586.2z M195-586.2h-4.5v-1h4.5V-586.2z M249.9-591l-0.2-1l4.4-0.8l0.2,1L249.9-591z M195.3-591
				l-4.4-0.8l0.2-1l4.4,0.8L195.3-591z M196.4-595.7l-4.2-1.5l0.3-0.9l4.2,1.5L196.4-595.7z M248.7-595.7l-0.3-0.9l4.2-1.5l0.3,0.9
				L248.7-595.7z M246.8-600.1l-0.5-0.9l3.9-2.3l0.5,0.9L246.8-600.1z M198.4-600.1l-3.9-2.3l0.5-0.9l3.9,2.3L198.4-600.1z
				 M244.1-604.1l-0.6-0.8l3.4-2.9l0.6,0.8L244.1-604.1z M201.1-604.1l-3.4-2.9l0.6-0.8l3.4,2.9L201.1-604.1z M240.7-607.5l-0.8-0.6
				l2.9-3.4l0.8,0.6L240.7-607.5z M204.4-607.5l-2.9-3.4l0.8-0.6l2.9,3.4L204.4-607.5z M236.8-610.4l-0.9-0.5l2.3-3.9l0.9,0.5
				L236.8-610.4z M208.3-610.4l-2.3-3.9l0.9-0.5l2.3,3.9L208.3-610.4z M232.5-612.5l-0.9-0.3l1.5-4.2l0.9,0.3L232.5-612.5z
				 M212.7-612.5l-1.5-4.2l0.9-0.3l1.5,4.2L212.7-612.5z M227.9-613.8l-1-0.2l0.8-4.4l1,0.2L227.9-613.8z M217.3-613.8l-0.8-4.4
				l1-0.2l0.8,4.4L217.3-613.8z M223.1-614.3h-1v-4.5h1V-614.3z"/>
		</g>
		<g id="circle117178_00000055703758712943146120000001149611176706783675_">
			<path fill="#5AC4D5" d="M222.6-545.4c-0.2,0-0.5,0-0.7,0c-0.3,0-0.5-0.2-0.5-0.5c0-0.3,0.2-0.5,0.5-0.5c0,0,0,0,0,0
				c0.2,0,0.5,0,0.7,0h0.3c0,0,0,0,0,0c0.3,0,0.5,0.2,0.5,0.5c0,0.3-0.2,0.5-0.5,0.5H222.6C222.6-545.4,222.6-545.4,222.6-545.4z
				 M225.8-545.5c-0.3,0-0.5-0.2-0.5-0.5c0-0.3,0.2-0.5,0.5-0.5c0.3,0,0.7-0.1,1-0.1c0.3,0,0.5,0.2,0.5,0.4c0,0.3-0.2,0.5-0.4,0.5
				C226.6-545.6,226.2-545.5,225.8-545.5C225.9-545.5,225.9-545.5,225.8-545.5z M218.9-545.6C218.8-545.6,218.8-545.6,218.9-545.6
				c-0.4,0-0.7-0.1-1.1-0.1c-0.3,0-0.5-0.3-0.4-0.6c0-0.3,0.3-0.5,0.6-0.4c0.3,0,0.7,0.1,1,0.1c0.3,0,0.5,0.3,0.5,0.5
				C219.3-545.8,219.1-545.6,218.9-545.6z M229.8-546c-0.2,0-0.4-0.2-0.5-0.4c0-0.3,0.1-0.5,0.4-0.6c0.3-0.1,0.6-0.1,1-0.2
				c0.3-0.1,0.5,0.1,0.6,0.4c0.1,0.3-0.1,0.5-0.4,0.6C230.6-546.2,230.2-546.1,229.8-546C229.9-546,229.8-546,229.8-546z
				 M214.9-546.1C214.9-546.1,214.8-546.1,214.9-546.1c-0.4-0.1-0.8-0.1-1.1-0.2c-0.3-0.1-0.4-0.3-0.4-0.6c0.1-0.3,0.3-0.4,0.6-0.4
				c0.3,0.1,0.6,0.1,1,0.2c0.3,0.1,0.4,0.3,0.4,0.6C215.3-546.3,215.1-546.1,214.9-546.1z M233.7-546.9c-0.2,0-0.4-0.1-0.5-0.4
				c-0.1-0.3,0.1-0.5,0.3-0.6c0.3-0.1,0.6-0.2,0.9-0.3c0.3-0.1,0.5,0.1,0.6,0.3c0.1,0.3-0.1,0.5-0.3,0.6c-0.3,0.1-0.6,0.2-1,0.3
				C233.8-546.9,233.7-546.9,233.7-546.9z M211-547.1c0,0-0.1,0-0.1,0c-0.3-0.1-0.6-0.2-1-0.3c-0.3-0.1-0.4-0.4-0.3-0.6
				c0.1-0.3,0.4-0.4,0.6-0.3c0.3,0.1,0.6,0.2,0.9,0.3c0.3,0.1,0.4,0.4,0.3,0.6C211.4-547.2,211.2-547.1,211-547.1z M237.5-548.2
				c-0.2,0-0.4-0.1-0.5-0.3c-0.1-0.3,0-0.5,0.3-0.6c0.3-0.1,0.6-0.2,0.9-0.4c0.3-0.1,0.5,0,0.7,0.3c0.1,0.3,0,0.5-0.3,0.7
				c-0.3,0.1-0.6,0.3-0.9,0.4C237.6-548.2,237.6-548.2,237.5-548.2z M207.2-548.4c-0.1,0-0.1,0-0.2,0c-0.3-0.1-0.6-0.3-0.9-0.4
				c-0.3-0.1-0.4-0.4-0.3-0.7c0.1-0.3,0.4-0.4,0.7-0.3c0.3,0.1,0.6,0.3,0.9,0.4c0.3,0.1,0.4,0.4,0.3,0.7
				C207.6-548.5,207.4-548.4,207.2-548.4z M241.1-549.8c-0.2,0-0.4-0.1-0.4-0.3c-0.1-0.2,0-0.5,0.2-0.7c0.3-0.1,0.6-0.3,0.9-0.5
				c0.2-0.1,0.5,0,0.7,0.2c0.1,0.2,0,0.5-0.2,0.7c-0.3,0.2-0.6,0.3-0.9,0.5C241.3-549.9,241.2-549.8,241.1-549.8z M203.6-550.1
				c-0.1,0-0.2,0-0.2-0.1c-0.3-0.2-0.6-0.3-0.9-0.5c-0.2-0.1-0.3-0.4-0.2-0.7c0.1-0.2,0.4-0.3,0.7-0.2c0.3,0.2,0.6,0.3,0.9,0.5
				c0.2,0.1,0.3,0.4,0.2,0.7C204-550.2,203.8-550.1,203.6-550.1z M244.6-551.8c-0.2,0-0.3-0.1-0.4-0.2c-0.1-0.2-0.1-0.5,0.1-0.7
				c0.3-0.2,0.6-0.4,0.8-0.5c0.2-0.2,0.5-0.1,0.7,0.1c0.2,0.2,0.1,0.5-0.1,0.7c-0.3,0.2-0.6,0.4-0.8,0.6
				C244.8-551.9,244.7-551.8,244.6-551.8z M200.2-552.1c-0.1,0-0.2,0-0.3-0.1c-0.3-0.2-0.6-0.4-0.8-0.6c-0.2-0.2-0.3-0.5-0.1-0.7
				c0.2-0.2,0.5-0.3,0.7-0.1c0.3,0.2,0.5,0.4,0.8,0.6c0.2,0.2,0.3,0.5,0.1,0.7C200.5-552.2,200.3-552.1,200.2-552.1z M247.8-554.1
				c-0.1,0-0.3-0.1-0.4-0.2c-0.2-0.2-0.1-0.5,0.1-0.7c0.3-0.2,0.5-0.4,0.8-0.6c0.2-0.2,0.5-0.1,0.7,0.1c0.2,0.2,0.1,0.5-0.1,0.7
				c-0.3,0.2-0.5,0.4-0.8,0.6C248.1-554.2,248-554.1,247.8-554.1z M196.9-554.5c-0.1,0-0.2,0-0.3-0.1c-0.3-0.2-0.5-0.4-0.8-0.6
				c-0.2-0.2-0.2-0.5-0.1-0.7c0.2-0.2,0.5-0.2,0.7-0.1c0.3,0.2,0.5,0.4,0.8,0.6c0.2,0.2,0.2,0.5,0.1,0.7
				C197.2-554.5,197.1-554.5,196.9-554.5z M250.9-556.8c-0.1,0-0.3-0.1-0.4-0.2c-0.2-0.2-0.2-0.5,0-0.7c0.2-0.2,0.5-0.5,0.7-0.7
				c0.2-0.2,0.5-0.2,0.7,0c0.2,0.2,0.2,0.5,0,0.7c-0.2,0.2-0.5,0.5-0.7,0.7C251.1-556.8,251-556.8,250.9-556.8z M194-557.1
				c-0.1,0-0.3,0-0.4-0.1c-0.2-0.2-0.5-0.5-0.7-0.7c-0.2-0.2-0.2-0.5,0-0.7c0.2-0.2,0.5-0.2,0.7,0c0.2,0.2,0.5,0.5,0.7,0.7
				c0.2,0.2,0.2,0.5,0,0.7C194.2-557.2,194.1-557.1,194-557.1z M253.6-559.7c-0.1,0-0.2,0-0.3-0.1c-0.2-0.2-0.2-0.5-0.1-0.7
				c0.2-0.2,0.4-0.5,0.6-0.8c0.2-0.2,0.5-0.2,0.7-0.1c0.2,0.2,0.2,0.5,0.1,0.7c-0.2,0.3-0.4,0.5-0.6,0.8
				C253.9-559.7,253.7-559.7,253.6-559.7z M191.2-560.1c-0.1,0-0.3-0.1-0.4-0.2c-0.2-0.3-0.4-0.5-0.6-0.8c-0.2-0.2-0.1-0.5,0.1-0.7
				c0.2-0.2,0.5-0.1,0.7,0.1c0.2,0.3,0.4,0.5,0.6,0.8c0.2,0.2,0.1,0.5-0.1,0.7C191.5-560.1,191.4-560.1,191.2-560.1z M256.1-562.8
				c-0.1,0-0.2,0-0.3-0.1c-0.2-0.2-0.3-0.5-0.1-0.7c0.2-0.3,0.4-0.5,0.6-0.8c0.2-0.2,0.5-0.3,0.7-0.1c0.2,0.2,0.3,0.5,0.1,0.7
				c-0.2,0.3-0.4,0.6-0.6,0.8C256.4-562.9,256.2-562.8,256.1-562.8z M188.8-563.3c-0.2,0-0.3-0.1-0.4-0.2c-0.2-0.3-0.4-0.6-0.6-0.8
				c-0.1-0.2-0.1-0.5,0.1-0.7c0.2-0.1,0.5-0.1,0.7,0.1c0.2,0.3,0.4,0.5,0.5,0.8c0.2,0.2,0.1,0.5-0.1,0.7
				C189-563.3,188.9-563.3,188.8-563.3z M258.2-566.2c-0.1,0-0.2,0-0.2-0.1c-0.2-0.1-0.3-0.4-0.2-0.7c0.2-0.3,0.3-0.6,0.5-0.9
				c0.1-0.2,0.4-0.3,0.7-0.2c0.2,0.1,0.3,0.4,0.2,0.7c-0.2,0.3-0.3,0.6-0.5,0.9C258.5-566.3,258.4-566.2,258.2-566.2z M186.8-566.7
				c-0.2,0-0.3-0.1-0.4-0.3c-0.2-0.3-0.3-0.6-0.5-0.9c-0.1-0.2,0-0.5,0.2-0.7c0.2-0.1,0.5,0,0.7,0.2c0.1,0.3,0.3,0.6,0.5,0.9
				c0.1,0.2,0,0.5-0.2,0.7C186.9-566.7,186.8-566.7,186.8-566.7z M260-569.8c-0.1,0-0.1,0-0.2,0c-0.3-0.1-0.4-0.4-0.3-0.7
				c0.1-0.3,0.3-0.6,0.4-0.9c0.1-0.3,0.4-0.4,0.7-0.3c0.3,0.1,0.4,0.4,0.3,0.7c-0.1,0.3-0.3,0.6-0.4,0.9
				C260.3-569.9,260.2-569.8,260-569.8z M185-570.3c-0.2,0-0.4-0.1-0.5-0.3c-0.1-0.3-0.3-0.6-0.4-0.9c-0.1-0.3,0-0.5,0.3-0.7
				c0.3-0.1,0.5,0,0.7,0.3c0.1,0.3,0.2,0.6,0.4,0.9c0.1,0.3,0,0.5-0.3,0.7C185.1-570.3,185.1-570.3,185-570.3z M261.4-573.5
				c-0.1,0-0.1,0-0.2,0c-0.3-0.1-0.4-0.4-0.3-0.6c0.1-0.3,0.2-0.6,0.3-0.9c0.1-0.3,0.4-0.4,0.6-0.3c0.3,0.1,0.4,0.4,0.3,0.6
				c-0.1,0.3-0.2,0.6-0.3,1C261.8-573.7,261.6-573.5,261.4-573.5z M183.6-574c-0.2,0-0.4-0.1-0.5-0.4c-0.1-0.3-0.2-0.6-0.3-1
				c-0.1-0.3,0.1-0.5,0.3-0.6c0.3-0.1,0.5,0.1,0.6,0.3c0.1,0.3,0.2,0.6,0.3,0.9c0.1,0.3-0.1,0.5-0.3,0.6
				C183.7-574,183.7-574,183.6-574z M262.4-577.4c0,0-0.1,0-0.1,0c-0.3-0.1-0.4-0.3-0.4-0.6c0.1-0.3,0.1-0.6,0.2-1
				c0.1-0.3,0.3-0.4,0.6-0.4c0.3,0.1,0.4,0.3,0.4,0.6c-0.1,0.3-0.1,0.7-0.2,1C262.9-577.6,262.7-577.4,262.4-577.4z M182.6-577.9
				c-0.2,0-0.4-0.2-0.5-0.4c-0.1-0.3-0.1-0.7-0.2-1c0-0.3,0.1-0.5,0.4-0.6c0.3,0,0.5,0.1,0.6,0.4c0.1,0.3,0.1,0.6,0.2,1
				c0.1,0.3-0.1,0.5-0.4,0.6C182.7-577.9,182.7-577.9,182.6-577.9z M263.1-581.3C263.1-581.3,263.1-581.3,263.1-581.3
				c-0.3,0-0.5-0.3-0.5-0.6c0-0.3,0.1-0.7,0.1-1c0-0.3,0.3-0.5,0.5-0.5c0.3,0,0.5,0.3,0.5,0.5c0,0.3-0.1,0.7-0.1,1
				C263.6-581.5,263.4-581.3,263.1-581.3z M182-581.8c-0.3,0-0.5-0.2-0.5-0.4c0-0.3-0.1-0.7-0.1-1c0-0.3,0.2-0.5,0.5-0.5
				c0.2,0,0.5,0.2,0.5,0.5c0,0.3,0.1,0.7,0.1,1C182.5-582.1,182.3-581.8,182-581.8C182-581.8,182-581.8,182-581.8z M263.4-585.3
				C263.4-585.3,263.4-585.3,263.4-585.3c-0.3,0-0.5-0.2-0.5-0.5c0-0.3,0-0.6,0-0.9v-0.1c0-0.3,0.2-0.5,0.5-0.5s0.5,0.2,0.5,0.5v0.1
				c0,0.3,0,0.6,0,0.9C263.9-585.6,263.7-585.3,263.4-585.3z M181.8-585.8c-0.3,0-0.5-0.2-0.5-0.5l0-0.4l0-0.6
				c0-0.3,0.2-0.5,0.5-0.5c0,0,0,0,0,0c0.3,0,0.5,0.2,0.5,0.5l0,0.6l0,0.4C182.3-586,182.1-585.8,181.8-585.8
				C181.8-585.8,181.8-585.8,181.8-585.8z M263.3-589.3c-0.3,0-0.5-0.2-0.5-0.5c0-0.3-0.1-0.7-0.1-1c0-0.3,0.2-0.5,0.4-0.5
				c0.3,0,0.5,0.2,0.5,0.4c0,0.3,0.1,0.7,0.1,1C263.8-589.6,263.6-589.4,263.3-589.3C263.3-589.3,263.3-589.3,263.3-589.3z
				 M181.9-589.8C181.9-589.8,181.9-589.8,181.9-589.8c-0.3,0-0.5-0.3-0.5-0.5c0-0.3,0.1-0.7,0.1-1c0-0.3,0.3-0.5,0.6-0.4
				c0.3,0,0.5,0.3,0.4,0.6c0,0.3-0.1,0.7-0.1,1C182.4-590,182.2-589.8,181.9-589.8z M262.8-593.3c-0.2,0-0.4-0.2-0.5-0.4
				c-0.1-0.3-0.1-0.6-0.2-1c-0.1-0.3,0.1-0.5,0.4-0.6c0.3-0.1,0.5,0.1,0.6,0.4c0.1,0.3,0.1,0.7,0.2,1
				C263.3-593.6,263.1-593.4,262.8-593.3C262.8-593.3,262.8-593.3,262.8-593.3z M182.5-593.8C182.4-593.8,182.4-593.8,182.5-593.8
				c-0.4-0.1-0.5-0.3-0.5-0.6c0.1-0.3,0.1-0.7,0.2-1c0.1-0.3,0.3-0.4,0.6-0.4c0.3,0.1,0.4,0.3,0.4,0.6c-0.1,0.3-0.1,0.6-0.2,1
				C182.9-593.9,182.7-593.8,182.5-593.8z M261.9-597.2c-0.2,0-0.4-0.1-0.5-0.4c-0.1-0.3-0.2-0.6-0.3-0.9c-0.1-0.3,0.1-0.5,0.3-0.6
				c0.3-0.1,0.5,0.1,0.6,0.3c0.1,0.3,0.2,0.6,0.3,1c0.1,0.3-0.1,0.5-0.3,0.6C262-597.2,261.9-597.2,261.9-597.2z M183.4-597.7
				c0,0-0.1,0-0.1,0c-0.3-0.1-0.4-0.4-0.3-0.6c0.1-0.3,0.2-0.6,0.3-1c0.1-0.3,0.4-0.4,0.6-0.3c0.3,0.1,0.4,0.4,0.3,0.6
				c-0.1,0.3-0.2,0.6-0.3,0.9C183.8-597.8,183.6-597.7,183.4-597.7z M260.6-601c-0.2,0-0.4-0.1-0.5-0.3c-0.1-0.3-0.2-0.6-0.4-0.9
				c-0.1-0.3,0-0.5,0.3-0.7c0.3-0.1,0.5,0,0.7,0.3c0.1,0.3,0.3,0.6,0.4,0.9c0.1,0.3,0,0.5-0.3,0.6C260.8-601,260.7-601,260.6-601z
				 M184.7-601.4c-0.1,0-0.1,0-0.2,0c-0.3-0.1-0.4-0.4-0.3-0.7c0.1-0.3,0.3-0.6,0.4-0.9c0.1-0.3,0.4-0.4,0.7-0.3
				c0.3,0.1,0.4,0.4,0.3,0.7c-0.1,0.3-0.3,0.6-0.4,0.9C185.1-601.5,184.9-601.4,184.7-601.4z M259-604.6c-0.2,0-0.4-0.1-0.4-0.3
				c-0.1-0.3-0.3-0.6-0.5-0.9c-0.1-0.2,0-0.5,0.2-0.7c0.2-0.1,0.5,0,0.7,0.2c0.2,0.3,0.3,0.6,0.5,0.9c0.1,0.2,0,0.5-0.2,0.7
				C259.2-604.6,259.1-604.6,259-604.6z M186.4-605.1c-0.1,0-0.2,0-0.2-0.1c-0.2-0.1-0.3-0.4-0.2-0.7c0.2-0.3,0.3-0.6,0.5-0.9
				c0.1-0.2,0.4-0.3,0.7-0.2c0.2,0.1,0.3,0.4,0.2,0.7c-0.2,0.3-0.3,0.6-0.5,0.9C186.7-605.2,186.6-605.1,186.4-605.1z M257-608.1
				c-0.2,0-0.3-0.1-0.4-0.2c-0.2-0.3-0.4-0.6-0.5-0.8c-0.2-0.2-0.1-0.5,0.1-0.7c0.2-0.2,0.5-0.1,0.7,0.1c0.2,0.3,0.4,0.6,0.6,0.8
				c0.1,0.2,0.1,0.5-0.2,0.7C257.2-608.1,257.1-608.1,257-608.1z M188.4-608.5c-0.1,0-0.2,0-0.3-0.1c-0.2-0.2-0.3-0.5-0.1-0.7
				c0.2-0.3,0.4-0.6,0.6-0.8c0.2-0.2,0.5-0.3,0.7-0.1c0.2,0.2,0.3,0.5,0.1,0.7c-0.2,0.3-0.4,0.5-0.6,0.8
				C188.7-608.6,188.6-608.5,188.4-608.5z M254.7-611.4c-0.1,0-0.3-0.1-0.4-0.2c-0.2-0.3-0.4-0.5-0.6-0.8c-0.2-0.2-0.1-0.5,0.1-0.7
				s0.5-0.1,0.7,0.1c0.2,0.3,0.4,0.5,0.6,0.8c0.2,0.2,0.1,0.5-0.1,0.7C254.9-611.4,254.8-611.4,254.7-611.4z M190.8-611.8
				c-0.1,0-0.2,0-0.3-0.1c-0.2-0.2-0.2-0.5-0.1-0.7c0.2-0.3,0.4-0.5,0.6-0.8c0.2-0.2,0.5-0.2,0.7-0.1c0.2,0.2,0.2,0.5,0.1,0.7
				c-0.2,0.3-0.4,0.5-0.6,0.8C191.1-611.8,190.9-611.8,190.8-611.8z M252.1-614.4c-0.1,0-0.3-0.1-0.4-0.2c-0.2-0.2-0.5-0.5-0.7-0.7
				c-0.2-0.2-0.2-0.5,0-0.7c0.2-0.2,0.5-0.2,0.7,0c0.2,0.2,0.5,0.5,0.7,0.7c0.2,0.2,0.2,0.5,0,0.7
				C252.4-614.4,252.2-614.4,252.1-614.4z M193.4-614.7c-0.1,0-0.3,0-0.3-0.1c-0.2-0.2-0.2-0.5,0-0.7c0.2-0.2,0.5-0.5,0.7-0.7
				c0.2-0.2,0.5-0.2,0.7,0c0.2,0.2,0.2,0.5,0,0.7c-0.2,0.2-0.5,0.5-0.7,0.7C193.7-614.8,193.5-614.7,193.4-614.7z M249.2-617.1
				c-0.1,0-0.2,0-0.3-0.1c-0.2-0.2-0.5-0.4-0.8-0.6c-0.2-0.2-0.2-0.5-0.1-0.7c0.2-0.2,0.5-0.2,0.7-0.1c0.3,0.2,0.5,0.4,0.8,0.7
				c0.2,0.2,0.2,0.5,0.1,0.7C249.5-617.2,249.4-617.1,249.2-617.1z M196.3-617.5c-0.1,0-0.3-0.1-0.4-0.2c-0.2-0.2-0.2-0.5,0.1-0.7
				c0.3-0.2,0.5-0.4,0.8-0.6c0.2-0.2,0.5-0.1,0.7,0.1c0.2,0.2,0.1,0.5-0.1,0.7c-0.3,0.2-0.5,0.4-0.8,0.6
				C196.6-617.5,196.5-617.5,196.3-617.5z M246.1-619.6c-0.1,0-0.2,0-0.3-0.1c-0.3-0.2-0.5-0.4-0.8-0.6c-0.2-0.2-0.3-0.5-0.1-0.7
				c0.2-0.2,0.5-0.3,0.7-0.1c0.3,0.2,0.6,0.4,0.8,0.6c0.2,0.2,0.3,0.5,0.1,0.7C246.4-619.7,246.2-619.6,246.1-619.6z M199.5-619.9
				c-0.2,0-0.3-0.1-0.4-0.2c-0.2-0.2-0.1-0.5,0.1-0.7c0.3-0.2,0.6-0.4,0.8-0.6c0.2-0.1,0.5-0.1,0.7,0.1c0.2,0.2,0.1,0.5-0.1,0.7
				c-0.3,0.2-0.5,0.4-0.8,0.5C199.7-619.9,199.6-619.9,199.5-619.9z M242.7-621.7c-0.1,0-0.2,0-0.2-0.1c-0.3-0.2-0.6-0.3-0.9-0.5
				c-0.2-0.1-0.3-0.4-0.2-0.7c0.1-0.2,0.4-0.3,0.7-0.2c0.3,0.2,0.6,0.3,0.9,0.5c0.2,0.1,0.3,0.4,0.2,0.7
				C243-621.8,242.9-621.7,242.7-621.7z M202.9-622c-0.2,0-0.3-0.1-0.4-0.3c-0.1-0.2,0-0.5,0.2-0.7c0.3-0.2,0.6-0.3,0.9-0.5
				c0.2-0.1,0.5,0,0.7,0.2c0.1,0.2,0,0.5-0.2,0.7c-0.3,0.2-0.6,0.3-0.9,0.5C203.1-622,203-622,202.9-622z M239.1-623.5
				c-0.1,0-0.1,0-0.2,0c-0.3-0.1-0.6-0.3-0.9-0.4c-0.3-0.1-0.4-0.4-0.3-0.7c0.1-0.3,0.4-0.4,0.7-0.3c0.3,0.1,0.6,0.3,0.9,0.4
				c0.3,0.1,0.4,0.4,0.3,0.7C239.5-623.6,239.3-623.5,239.1-623.5z M206.5-623.7c-0.2,0-0.4-0.1-0.5-0.3c-0.1-0.3,0-0.5,0.3-0.7
				c0.3-0.1,0.6-0.3,0.9-0.4c0.3-0.1,0.5,0,0.6,0.3c0.1,0.3,0,0.5-0.3,0.6c-0.3,0.1-0.6,0.2-0.9,0.4
				C206.6-623.7,206.6-623.7,206.5-623.7z M235.4-625c-0.1,0-0.1,0-0.2,0c-0.3-0.1-0.6-0.2-0.9-0.3c-0.3-0.1-0.4-0.4-0.3-0.6
				c0.1-0.3,0.4-0.4,0.6-0.3c0.3,0.1,0.6,0.2,1,0.3c0.3,0.1,0.4,0.4,0.3,0.6C235.8-625.1,235.6-625,235.4-625z M210.3-625.1
				c-0.2,0-0.4-0.1-0.5-0.3c-0.1-0.3,0.1-0.5,0.3-0.6c0.3-0.1,0.6-0.2,1-0.3c0.3-0.1,0.5,0.1,0.6,0.3c0.1,0.3-0.1,0.5-0.3,0.6
				c-0.3,0.1-0.6,0.2-0.9,0.3C210.4-625.1,210.3-625.1,210.3-625.1z M231.5-626c0,0-0.1,0-0.1,0c-0.3-0.1-0.6-0.1-1-0.2
				c-0.3-0.1-0.4-0.3-0.4-0.6c0.1-0.3,0.3-0.5,0.6-0.4c0.3,0.1,0.7,0.1,1,0.2c0.3,0.1,0.4,0.3,0.4,0.6
				C231.9-626.2,231.7-626,231.5-626z M214.1-626.1c-0.2,0-0.4-0.2-0.5-0.4c-0.1-0.3,0.1-0.5,0.4-0.6c0.3-0.1,0.7-0.1,1-0.2
				c0.3,0,0.5,0.1,0.6,0.4c0.1,0.3-0.1,0.5-0.4,0.6c-0.3,0.1-0.6,0.1-1,0.2C214.2-626.1,214.2-626.1,214.1-626.1z M227.6-626.7
				C227.6-626.7,227.5-626.7,227.6-626.7c-0.4,0-0.7-0.1-1-0.1c-0.3,0-0.5-0.3-0.5-0.5c0-0.3,0.3-0.5,0.5-0.5c0.3,0,0.7,0.1,1,0.1
				c0.3,0,0.5,0.3,0.4,0.6C228-626.9,227.8-626.7,227.6-626.7z M218.1-626.8c-0.3,0-0.5-0.2-0.5-0.4c0-0.3,0.2-0.5,0.4-0.6
				c0.3,0,0.7-0.1,1-0.1c0.3,0,0.5,0.2,0.5,0.5s-0.2,0.5-0.5,0.5C218.8-626.8,218.4-626.8,218.1-626.8
				C218.1-626.8,218.1-626.8,218.1-626.8z M223.6-627C223.6-627,223.6-627,223.6-627c-0.3,0-0.7,0-1,0l-0.5,0c0,0,0,0,0,0
				c-0.3,0-0.5-0.2-0.5-0.5c0-0.3,0.2-0.5,0.5-0.5l0.5,0c0.3,0,0.7,0,1,0c0.3,0,0.5,0.2,0.5,0.5C224.1-627.2,223.9-627,223.6-627z"
				/>
		</g>
	</g>
</g>
</svg>
