<?xml version="1.0" encoding="utf-8"?>
<!-- Generator: Adobe Illustrator 26.4.1, SVG Export Plug-In . SVG Version: 6.00 Build 0)  -->
<svg version="1.1" xmlns="http://www.w3.org/2000/svg" xmlns:xlink="http://www.w3.org/1999/xlink" x="0px" y="0px" width="100px"
	 height="100px" viewBox="0 0 100 100" enable-background="new 0 0 100 100" xml:space="preserve">
<g id="BACKGROUND">
</g>
<g id="OBJECTS" xmlns:sodipodi="http://sodipodi.sourceforge.net/DTD/sodipodi-0.dtd" xmlns:svg="http://www.w3.org/2000/svg" xmlns:inkscape="http://www.inkscape.org/namespaces/inkscape" inkscape:version="1.2.1 (1:1.2+202205161848+dc2aedaf03)" sodipodi:docname="24 Agustus 2022.svg">
	<g id="g116568_00000016074078502090118410000000794127733557818773_" transform="translate(-172.58727,938.92522)">
		<g id="circle116562_00000150806702399198158410000002934598115548321957_">
			<path fill="#38797F" d="M222.6-845.3c-24,0-43.6-19.5-43.6-43.6s19.5-43.6,43.6-43.6s43.6,19.5,43.6,43.6
				S246.6-845.3,222.6-845.3z M222.6-928.5c-21.8,0-39.6,17.8-39.6,39.6s17.8,39.6,39.6,39.6s39.6-17.8,39.6-39.6
				S244.4-928.5,222.6-928.5z"/>
		</g>
		<g id="g116556_00000087374009199335411280000017187080052656222853_" transform="translate(18.724083,127.74169)">
			<g id="path116552_00000067196588967701485270000016791066488149870483_">
				<path fill="#5AC4D5" d="M203.9-970.2c-0.3,0-0.5-0.2-0.5-0.5v-23c0-0.3,0.2-0.5,0.5-0.5s0.5,0.2,0.5,0.5v23
					C204.4-970.5,204.1-970.2,203.9-970.2z M203.9-1039.1c-0.3,0-0.5-0.2-0.5-0.5v-23c0-0.3,0.2-0.5,0.5-0.5s0.5,0.2,0.5,0.5v23
					C204.4-1039.4,204.1-1039.1,203.9-1039.1z"/>
			</g>
			<g id="path116554_00000149360160578252559940000005374762737670327425_">
				<path fill="#5AC4D5" d="M249.8-1016.2h-23c-0.3,0-0.5-0.2-0.5-0.5s0.2-0.5,0.5-0.5h23c0.3,0,0.5,0.2,0.5,0.5
					S250.1-1016.2,249.8-1016.2z M180.9-1016.2h-23c-0.3,0-0.5-0.2-0.5-0.5s0.2-0.5,0.5-0.5h23c0.3,0,0.5,0.2,0.5,0.5
					S181.2-1016.2,180.9-1016.2z"/>
			</g>
		</g>
		<g id="g116560_00000062912342295550072470000017772649896526104449_" inkscape:path-effect="#path-effect116656">
			<g id="path116558_00000165948195373357685240000016571727602144556190_">
				<path fill="#5AC4D5" d="M233.9-846.8l-1-3.9c13.6-3.7,24.4-14.4,28-28l3.9,1C260.7-862.6,248.9-850.8,233.9-846.8z M211.3-846.8
					c-15-4-26.8-15.8-30.9-30.9l3.9-1c3.7,13.6,14.4,24.4,28,28L211.3-846.8z M260.9-899.2c-3.7-13.6-14.4-24.4-28-28l1-3.9
					c15,4,26.8,15.8,30.9,30.9L260.9-899.2z M184.3-899.2l-3.9-1c4-15,15.8-26.8,30.9-30.9l1,3.9C198.7-923.6,188-912.8,184.3-899.2
					z"/>
			</g>
			<g id="path119478_00000049216399845466002610000011373190801088942754_">
				<path fill="#5AC4D5" d="M229.8-861.9l-1-3.9c8.2-2.2,14.7-8.7,16.9-16.9l3.9,1C247-872.1,239.4-864.5,229.8-861.9z M215.4-861.9
					c-9.6-2.6-17.2-10.1-19.8-19.8l3.9-1c2.2,8.2,8.7,14.7,16.9,16.9L215.4-861.9z M245.7-895.1c-2.2-8.2-8.7-14.7-16.9-16.9l1-3.9
					c9.6,2.6,17.2,10.1,19.8,19.8L245.7-895.1z M199.5-895.1l-3.9-1c2.6-9.6,10.1-17.2,19.8-19.8l1,3.9
					C208.2-909.8,201.7-903.4,199.5-895.1z"/>
			</g>
		</g>
		<g id="path116564_00000176724032728714014900000016941520048191148210_">
			<path fill="#5AC4D5" d="M223.9-869.1l-0.4-4.3l1-0.1l0.4,4.3L223.9-869.1z M221.3-869.1l-1-0.1l0.4-4.3l1,0.1L221.3-869.1z
				 M227.4-869.7l-1.2-4.2l1-0.3l1.2,4.2L227.4-869.7z M217.8-869.7l-1-0.3l1.2-4.2l1,0.3L217.8-869.7z M214.4-870.8l-0.9-0.4
				l1.9-3.9l0.9,0.4L214.4-870.8z M230.8-870.8l-1.9-3.9l0.9-0.4l1.9,3.9L230.8-870.8z M233.9-872.6l-2.6-3.5l0.8-0.6l2.6,3.5
				L233.9-872.6z M211.3-872.6l-0.8-0.6l2.6-3.5l0.8,0.6L211.3-872.6z M236.6-874.8l-3.1-3l0.7-0.7l3.1,3L236.6-874.8z M208.6-874.8
				l-0.7-0.7l3.1-3l0.7,0.7L208.6-874.8z M238.9-877.6l-3.6-2.4l0.6-0.8l3.6,2.4L238.9-877.6z M206.3-877.6l-0.6-0.8l3.6-2.4
				l0.6,0.8L206.3-877.6z M240.7-880.7l-4-1.7l0.4-0.9l4,1.7L240.7-880.7z M204.5-880.7l-0.4-0.9l4-1.7l0.4,0.9L204.5-880.7z
				 M241.8-884l-4.2-1l0.2-1l4.2,1L241.8-884z M203.3-884l-0.2-1l4.2-1l0.2,1L203.3-884z M242.4-887.5l-4.3-0.2l0-1l4.3,0.2
				L242.4-887.5z M202.8-887.5l0-1l4.3-0.2l0,1L202.8-887.5z M238-890.5l-0.1-1l4.3-0.6l0.1,1L238-890.5z M207.1-890.5l-4.3-0.6
				l0.1-1l4.3,0.6L207.1-890.5z M237.5-893.2l-0.3-1l4.1-1.3l0.3,1L237.5-893.2z M207.7-893.2l-4.1-1.3l0.3-1l4.1,1.3L207.7-893.2z
				 M236.5-895.8l-0.5-0.9l3.8-2.1l0.5,0.9L236.5-895.8z M208.7-895.8l-3.8-2.1l0.5-0.9l3.8,2.1L208.7-895.8z M235-898.2l-0.6-0.8
				l3.4-2.7l0.6,0.8L235-898.2z M210.1-898.2l-3.4-2.7l0.6-0.8l3.4,2.7L210.1-898.2z M233.2-900.3l-0.8-0.7l2.9-3.3l0.8,0.7
				L233.2-900.3z M212-900.3l-2.9-3.3l0.8-0.7l2.9,3.3L212-900.3z M231-902l-0.9-0.5l2.2-3.7l0.9,0.5L231-902z M214.2-902l-2.2-3.7
				l0.9-0.5l2.2,3.7L214.2-902z M216.7-903.3l-1.5-4.1l0.9-0.4l1.5,4.1L216.7-903.3z M228.5-903.3l-0.9-0.4l1.5-4.1l0.9,0.4
				L228.5-903.3z M225.8-904.1l-1-0.2l0.8-4.3l1,0.2L225.8-904.1z M219.3-904.1l-0.8-4.3l1-0.2l0.8,4.3L219.3-904.1z M223.1-904.4
				h-1v-4.3h1V-904.4z"/>
		</g>
		<g id="path116566_00000151516418106146885870000007054301666166370448_">
			<path fill="#5AC4D5" d="M223.1-852.4h-1v-5.1h1V-852.4z M216.7-852.8l-1-0.2l0.9-5l1,0.2L216.7-852.8z M228.4-852.8l-0.9-5l1-0.2
				l0.9,5L228.4-852.8z M234.6-854.4l-1.8-4.8l0.9-0.3l1.8,4.8L234.6-854.4z M210.6-854.4l-0.9-0.3l1.8-4.8l0.9,0.3L210.6-854.4z
				 M204.7-857l-0.9-0.5l2.6-4.4l0.9,0.5L204.7-857z M240.4-857l-2.6-4.4l0.9-0.5l2.6,4.4L240.4-857z M245.7-860.6l-3.3-3.9l0.8-0.6
				l3.3,3.9L245.7-860.6z M199.5-860.6l-0.8-0.6l3.3-3.9l0.8,0.6L199.5-860.6z M250.3-865l-3.9-3.3l0.6-0.8l3.9,3.3L250.3-865z
				 M194.9-865l-0.6-0.8l3.9-3.3l0.6,0.8L194.9-865z M191.2-870.2l-0.5-0.9l4.4-2.6l0.5,0.9L191.2-870.2z M254-870.2l-4.4-2.6
				l0.5-0.9l4.4,2.6L254-870.2z M256.8-875.9l-4.8-1.8l0.3-0.9l4.8,1.8L256.8-875.9z M188.4-875.9l-0.3-0.9l4.8-1.8l0.3,0.9
				L188.4-875.9z M258.5-882.1l-5-0.9l0.2-1l5,0.9L258.5-882.1z M186.7-882.1l-0.2-1l5-0.9l0.2,1L186.7-882.1z M259.1-888.4H254v-1
				h5.1V-888.4z M191.2-888.4H186v-1h5.1V-888.4z M253.6-893.9l-0.2-1l5-0.9l0.2,1L253.6-893.9z M191.6-893.9l-5-0.9l0.2-1l5,0.9
				L191.6-893.9z M252.3-899.2l-0.3-0.9l4.8-1.8l0.3,0.9L252.3-899.2z M192.9-899.2l-4.8-1.8l0.3-0.9l4.8,1.8L192.9-899.2z
				 M250.1-904.2l-0.5-0.9l4.4-2.6l0.5,0.9L250.1-904.2z M195.1-904.2l-4.4-2.6l0.5-0.9l4.4,2.6L195.1-904.2z M247-908.7l-0.6-0.8
				l3.9-3.3l0.6,0.8L247-908.7z M198.2-908.7l-3.9-3.3l0.6-0.8l3.9,3.3L198.2-908.7z M243.2-912.7l-0.8-0.6l3.3-3.9l0.8,0.6
				L243.2-912.7z M202-912.7l-3.3-3.9l0.8-0.6l3.3,3.9L202-912.7z M206.4-915.9l-2.6-4.4l0.9-0.5l2.6,4.4L206.4-915.9z M238.7-915.9
				l-0.9-0.5l2.6-4.4l0.9,0.5L238.7-915.9z M211.4-918.3l-1.8-4.8l0.9-0.3l1.8,4.8L211.4-918.3z M233.8-918.3l-0.9-0.3l1.8-4.8
				l0.9,0.3L233.8-918.3z M216.6-919.8l-0.9-5l1-0.2l0.9,5L216.6-919.8z M228.5-919.8l-1-0.2l0.9-5l1,0.2L228.5-919.8z M223.1-920.3
				h-1v-5.1h1V-920.3z"/>
		</g>
	</g>
</g>
</svg>
