<?xml version="1.0" encoding="utf-8"?>
<!-- Generator: Adobe Illustrator 26.4.1, SVG Export Plug-In . SVG Version: 6.00 Build 0)  -->
<svg version="1.1" xmlns="http://www.w3.org/2000/svg" xmlns:xlink="http://www.w3.org/1999/xlink" x="0px" y="0px" width="100px"
	 height="100px" viewBox="0 0 100 100" enable-background="new 0 0 100 100" xml:space="preserve">
<g id="BACKGROUND">
</g>
<g id="OBJECTS" xmlns:sodipodi="http://sodipodi.sourceforge.net/DTD/sodipodi-0.dtd" xmlns:svg="http://www.w3.org/2000/svg" xmlns:inkscape="http://www.inkscape.org/namespaces/inkscape" inkscape:version="1.2.1 (1:1.2+202205161848+dc2aedaf03)" sodipodi:docname="24 Agustus 2022.svg">
	<g id="g107958_00000017504000002013862740000005471476661363149958_" transform="translate(-15.99346,485.59302)">
		<g id="g107946_00000140001808710625346100000010170459413723340722_" transform="translate(18.724083,127.74169)">
			<g id="path107942_00000009577969517737628290000010442862666644448951_">
				<path fill="#5AC4D5" d="M47.3-516.9c-0.3,0-0.5-0.2-0.5-0.5v-23c0-0.3,0.2-0.5,0.5-0.5s0.5,0.2,0.5,0.5v23
					C47.8-517.1,47.5-516.9,47.3-516.9z M47.3-585.8c-0.3,0-0.5-0.2-0.5-0.5v-23c0-0.3,0.2-0.5,0.5-0.5s0.5,0.2,0.5,0.5v23
					C47.8-586,47.5-585.8,47.3-585.8z"/>
			</g>
			<g id="path107944_00000153680397057040957670000010238960379970670466_">
				<path fill="#5AC4D5" d="M93.2-562.8h-23c-0.3,0-0.5-0.2-0.5-0.5s0.2-0.5,0.5-0.5h23c0.3,0,0.5,0.2,0.5,0.5
					S93.5-562.8,93.2-562.8z M24.3-562.8h-23c-0.3,0-0.5-0.2-0.5-0.5s0.2-0.5,0.5-0.5h23c0.3,0,0.5,0.2,0.5,0.5
					S24.6-562.8,24.3-562.8z"/>
			</g>
		</g>
		<g id="g107950_00000041257866814231822220000002608887482926193825_" inkscape:path-effect="#path-effect107962">
			<g id="path107948_00000038407430817690079060000010015971829592256945_">
				<path fill="#5AC4D5" d="M66-397.6c-3.3,0-6.6-0.4-9.8-1.3l1-3.9c5.8,1.5,11.9,1.5,17.6,0l1,3.9C72.6-398,69.3-397.6,66-397.6z
					 M102.7-425.8l-3.9-1c1.5-5.8,1.5-11.9,0-17.6l3.9-1C104.4-439,104.4-432.2,102.7-425.8z M29.3-425.8c-1.7-6.4-1.7-13.2,0-19.7
					l3.9,1c-1.5,5.8-1.5,11.9,0,17.6L29.3-425.8z M74.8-468.5c-5.8-1.5-11.8-1.5-17.6,0l-1-3.9c6.4-1.7,13.2-1.7,19.7,0L74.8-468.5z
					"/>
			</g>
			<g id="path115867_00000098193820774559577640000015253844994019136945_">
				<path fill="#5AC4D5" d="M66-397.6c-3.3,0-6.6-0.4-9.8-1.3l1-3.9c5.8,1.5,11.9,1.5,17.6,0l1,3.9C72.6-398,69.3-397.6,66-397.6z
					 M102.7-425.8l-3.9-1c1.5-5.8,1.5-11.9,0-17.6l3.9-1C104.4-439,104.4-432.2,102.7-425.8z M29.3-425.8c-1.7-6.4-1.7-13.2,0-19.7
					l3.9,1c-1.5,5.8-1.5,11.9,0,17.6L29.3-425.8z M74.8-468.5c-5.8-1.5-11.8-1.5-17.6,0l-1-3.9c6.4-1.7,13.2-1.7,19.7,0L74.8-468.5z
					"/>
			</g>
		</g>
		<g id="circle107952_00000044892738364025218860000006736084542334755495_">
			<path fill="#5AC4D5" d="M66-406.4c-16.1,0-29.2-13.1-29.2-29.2c0-16.1,13.1-29.2,29.2-29.2s29.2,13.1,29.2,29.2
				C95.2-419.5,82.1-406.4,66-406.4z M66-463.8c-15.5,0-28.2,12.6-28.2,28.2s12.6,28.2,28.2,28.2s28.2-12.6,28.2-28.2
				S81.5-463.8,66-463.8z"/>
		</g>
		<g id="path107954_00000117665024376811518050000005142923691915327116_">
			<path fill="#5AC4D5" d="M67.5-414l-8.2-10.8l5.2,10.3l-0.9,0.5l-6.1-12.1l3.3,11.1l-1,0.3l-3.9-13l1.3,11.5l-1,0.1l-1.5-13.5
				l-0.8,11.5l-1-0.1l1-13.6L51-420.7l-1-0.2l3.4-13.2l-4.8,10.5l-0.9-0.4l5.7-12.4l-6.6,9.5l-0.8-0.6l7.8-11.1l-8.2,8.1l-0.7-0.7
				l9.6-9.6l-9.5,6.6l-0.6-0.8l11.2-7.7L45-438l-0.4-0.9l12.4-5.6l-11.2,2.8l-0.2-1l13.2-3.3l-11.5,0.7l-0.1-1l13.6-0.9l-11.5-1.3
				l0.1-1l13.5,1.6l-11.1-3.4l0.3-1l13,4l-10.3-5.3l0.5-0.9l12.1,6.2l-9.2-7l0.6-0.8l10.8,8.3l-7.8-8.6l0.7-0.7l9.1,10.1l-6.1-9.8
				l0.8-0.5l7.2,11.5l-4.3-10.7l0.9-0.4l5,12.6L73-455.5l1-0.2l2.7,13.3l-0.2-11.6l1,0l0.3,13.6l1.8-11.4l1,0.2l-2.2,13.4l3.9-10.9
				l0.9,0.3l-4.5,12.8l5.7-10l0.9,0.5l-6.8,11.8l7.4-8.8l0.8,0.6L78-431.5l8.9-7.4l0.6,0.8L77-429.4l10.1-5.7l0.5,0.9l-11.8,6.7
				l10.9-3.8l0.3,0.9l-12.8,4.4l11.4-1.8l0.2,1l-13.4,2.1l11.6,0.3l0,1l-13.6-0.4l11.3,2.4l-0.2,1L68-423.1l10.7,4.3l-0.4,0.9
				l-12.6-5.1l9.8,6.2l-0.5,0.8l-11.5-7.3l8.5,7.8l-0.7,0.7l-10-9.2l7,9.2L67.5-414z M64.7-424.8l1.9,0l1.9-0.3l1.8-0.6l1.7-1
				l1.5-1.2l1.3-1.5l1-1.7l0.6-1.8l0.3-1.9l0-1.9l-0.4-1.9l-0.7-1.8l-1-1.7l-1.3-1.4l-1.5-1.2l-1.7-0.9l-1.9-0.6l-1.9-0.2l-1.9,0.1
				l-1.9,0.5l-1.8,0.8l-1.6,1.1l-1.4,1.4l-1.1,1.6l-0.8,1.8l-0.5,1.9l-0.1,1.9l0.2,1.9l0.6,1.9l0.9,1.7l1.2,1.6l1.4,1.3l1.6,1
				l1.8,0.7L64.7-424.8z"/>
		</g>
		<g id="path107956_00000034077341143001217310000001391523124017486776_">
			<path fill="#5AC4D5" d="M66.2-404.1h-0.5v-2.3h0.5V-404.1z M68.2-404.2l-0.2-2.3l0.5,0l0.2,2.3L68.2-404.2z M63.8-404.2l-0.5,0
				l0.2-2.3l0.5,0L63.8-404.2z M70.6-404.4l-0.3-2.2l0.5-0.1l0.3,2.2L70.6-404.4z M61.4-404.4l-0.5-0.1l0.3-2.2l0.5,0.1L61.4-404.4z
				 M59.1-404.9l-0.5-0.1l0.5-2.2l0.5,0.1L59.1-404.9z M72.9-404.9l-0.5-2.2l0.5-0.1l0.5,2.2L72.9-404.9z M75.3-405.5l-0.7-2.2
				l0.5-0.2l0.7,2.2L75.3-405.5z M56.7-405.5l-0.5-0.2l0.7-2.2l0.5,0.2L56.7-405.5z M77.5-406.3l-0.9-2.1l0.5-0.2l0.9,2.1
				L77.5-406.3z M54.5-406.3l-0.5-0.2l0.9-2.1l0.5,0.2L54.5-406.3z M79.7-407.3l-1-2l0.4-0.2l1,2L79.7-407.3z M52.2-407.3l-0.4-0.2
				l1-2l0.4,0.2L52.2-407.3z M81.9-408.4l-1.2-2l0.4-0.3l1.2,2L81.9-408.4z M50.1-408.4l-0.4-0.3l1.2-2l0.4,0.3L50.1-408.4z
				 M83.9-409.7l-1.3-1.9l0.4-0.3l1.3,1.9L83.9-409.7z M48.1-409.7l-0.4-0.3l1.3-1.9l0.4,0.3L48.1-409.7z M85.8-411.1l-1.4-1.8
				l0.4-0.3l1.4,1.8L85.8-411.1z M46.2-411.1l-0.4-0.3l1.4-1.8l0.4,0.3L46.2-411.1z M87.6-412.7l-1.6-1.6l0.4-0.3l1.6,1.6
				L87.6-412.7z M44.3-412.7l-0.4-0.3l1.6-1.6l0.4,0.3L44.3-412.7z M89.3-414.5l-1.7-1.5l0.3-0.4l1.7,1.5L89.3-414.5z M42.7-414.5
				l-0.3-0.4l1.7-1.5l0.3,0.4L42.7-414.5z M90.9-416.3l-1.8-1.4l0.3-0.4l1.8,1.4L90.9-416.3z M41.1-416.3l-0.3-0.4l1.8-1.4l0.3,0.4
				L41.1-416.3z M92.3-418.3l-1.9-1.2l0.3-0.4l1.9,1.2L92.3-418.3z M39.7-418.3l-0.3-0.4l1.9-1.2l0.3,0.4L39.7-418.3z M93.5-420.3
				l-2-1.1l0.2-0.4l2,1.1L93.5-420.3z M38.5-420.3l-0.2-0.4l2-1.1l0.2,0.4L38.5-420.3z M94.6-422.5l-2.1-0.9l0.2-0.5l2.1,0.9
				L94.6-422.5z M37.4-422.5l-0.2-0.5l2.1-0.9l0.2,0.5L37.4-422.5z M95.5-424.7l-2.1-0.8l0.2-0.5l2.1,0.8L95.5-424.7z M36.5-424.7
				l-0.2-0.5l2.1-0.8l0.2,0.5L36.5-424.7z M35.7-427l-0.1-0.5l2.2-0.6l0.1,0.5L35.7-427z M96.3-427l-2.2-0.6l0.1-0.5l2.2,0.6
				L96.3-427z M96.9-429.3l-2.2-0.4l0.1-0.5l2.2,0.4L96.9-429.3z M35.1-429.3l-0.1-0.5l2.2-0.4l0.1,0.5L35.1-429.3z M97.2-431.7
				L95-432l0.1-0.5l2.3,0.3L97.2-431.7z M34.7-431.7l-0.1-0.5l2.3-0.3L37-432L34.7-431.7z M97.4-434.1l-2.3-0.1l0-0.5l2.3,0.1
				L97.4-434.1z M34.5-434.1l0-0.5l2.3-0.1l0,0.5L34.5-434.1z M95.2-436.5l0-0.5l2.3-0.1l0,0.5L95.2-436.5z M36.8-436.5l-2.3-0.1
				l0-0.5l2.3,0.1L36.8-436.5z M95-438.7l-0.1-0.5l2.3-0.3l0.1,0.5L95-438.7z M37-438.7l-2.3-0.3l0.1-0.5l2.3,0.3L37-438.7z
				 M94.7-440.9l-0.1-0.5l2.2-0.4l0.1,0.5L94.7-440.9z M37.3-440.9l-2.2-0.4l0.1-0.5l2.2,0.4L37.3-440.9z M94.2-443.1l-0.1-0.5
				l2.2-0.6l0.1,0.5L94.2-443.1z M37.8-443.1l-2.2-0.6l0.1-0.5l2.2,0.6L37.8-443.1z M93.6-445.2l-0.2-0.5l2.1-0.8l0.2,0.5
				L93.6-445.2z M38.4-445.2l-2.1-0.8l0.2-0.5l2.1,0.8L38.4-445.2z M92.7-447.3l-0.2-0.5l2.1-0.9l0.2,0.5L92.7-447.3z M39.2-447.3
				l-2.1-0.9l0.2-0.5l2.1,0.9L39.2-447.3z M91.8-449.3l-0.2-0.4l2-1.1l0.2,0.4L91.8-449.3z M40.2-449.3l-2-1.1l0.2-0.4l2,1.1
				L40.2-449.3z M90.6-451.2l-0.3-0.4l1.9-1.2l0.3,0.4L90.6-451.2z M41.3-451.2l-1.9-1.2l0.3-0.4l1.9,1.2L41.3-451.2z M89.4-453.1
				l-0.3-0.4l1.8-1.4l0.3,0.4L89.4-453.1z M42.6-453.1l-1.8-1.4l0.3-0.4l1.8,1.4L42.6-453.1z M88-454.8l-0.3-0.4l1.7-1.5l0.3,0.4
				L88-454.8z M44-454.8l-1.7-1.5l0.3-0.4l1.7,1.5L44-454.8z M86.4-456.5l-0.4-0.3l1.6-1.6l0.4,0.3L86.4-456.5z M45.6-456.5
				l-1.6-1.6l0.4-0.3l1.6,1.6L45.6-456.5z M84.8-458l-0.4-0.3l1.4-1.8l0.4,0.3L84.8-458z M47.2-458l-1.4-1.8l0.4-0.3l1.4,1.8
				L47.2-458z M83-459.3l-0.4-0.3l1.3-1.9l0.4,0.3L83-459.3z M49-459.3l-1.3-1.9l0.4-0.3l1.3,1.9L49-459.3z M81.1-460.6l-0.4-0.3
				l1.2-2l0.4,0.3L81.1-460.6z M50.9-460.6l-1.2-2l0.4-0.3l1.2,2L50.9-460.6z M79.2-461.6l-0.4-0.2l1-2l0.4,0.2L79.2-461.6z
				 M52.8-461.6l-1-2l0.4-0.2l1,2L52.8-461.6z M54.8-462.6l-0.9-2.1l0.5-0.2l0.9,2.1L54.8-462.6z M77.1-462.6l-0.5-0.2l0.8-2.1
				l0.5,0.2L77.1-462.6z M75-463.4l-0.5-0.2l0.7-2.2l0.5,0.2L75-463.4z M56.9-463.4l-0.7-2.2l0.5-0.2l0.7,2.2L56.9-463.4z M72.9-464
				l-0.5-0.1l0.5-2.2l0.5,0.1L72.9-464z M59.1-464l-0.5-2.2l0.5-0.1l0.5,2.2L59.1-464z M70.7-464.4l-0.5-0.1l0.3-2.2l0.5,0.1
				L70.7-464.4z M61.3-464.4l-0.3-2.2l0.5-0.1l0.3,2.2L61.3-464.4z M68.5-464.7l-0.5,0l0.2-2.3l0.5,0L68.5-464.7z M63.5-464.7
				l-0.2-2.3l0.5,0l0.2,2.3L63.5-464.7z M66.2-464.8h-0.5v-2.3h0.5V-464.8z"/>
		</g>
		
			<g id="g108054_00000093140009588217045200000003583411593260235159_" transform="matrix(0.63109733,0,0,0.63109733,350.42295,-144.63748)" inkscape:path-effect="#path-effect108058">
			<g id="path108052_00000054969629980529131320000016721094115329842609_">
				<path fill="#5AC4D5" d="M-450.7-424.2c-1.5,0-3-0.1-4.5-0.3l0.2-1.6c2.9,0.4,5.9,0.3,8.8,0l0.2,1.6
					C-447.5-424.3-449.1-424.2-450.7-424.2z M-487.2-456.3c-0.4-3-0.4-6.1,0-9.2l1.6,0.2c-0.4,2.9-0.3,5.9,0,8.8L-487.2-456.3z
					 M-414.2-456.6l-1.6-0.2c0.4-2.9,0.3-5.9,0-8.8l1.6-0.2C-413.8-462.7-413.8-459.6-414.2-456.6z M-455.2-496l-0.2-1.6
					c3-0.4,6.1-0.4,9.2,0l-0.2,1.6C-449.3-496.4-452.3-496.3-455.2-496z"/>
			</g>
		</g>
		<g id="circle108060_00000065762749262256966880000012313938484939748775_">
			<path fill="#38797F" d="M66-426.1c-5.2,0-9.5-4.3-9.5-9.5s4.3-9.5,9.5-9.5s9.5,4.3,9.5,9.5S71.2-426.1,66-426.1z M66-444.1
				c-4.7,0-8.5,3.8-8.5,8.5s3.8,8.5,8.5,8.5s8.5-3.8,8.5-8.5S70.7-444.1,66-444.1z"/>
		</g>
		
			<g id="g115873_00000090982277350567682030000000025253964132415618_" transform="matrix(0.61569568,0.35547207,-0.35547207,0.61569568,225.6814,-488.34121)" inkscape:path-effect="#path-effect115877">
			<g id="path115869_00000125596959340263399750000007590585484218581686_">
				<path fill="#5AC4D5" d="M-147.4,214.1c-6.6,1.8-13.5,1.8-20.1,0l1.5-5.4c5.6,1.5,11.6,1.5,17.2,0L-147.4,214.1z M-119.9,186.6
					l-5.4-1.5c1.5-5.6,1.5-11.6,0-17.2l5.4-1.5C-118.2,173.1-118.2,180-119.9,186.6z M-189.5,185.2l-5.4,1.5
					c-1.8-6.6-1.8-13.5,0-20.1l5.4,1.5C-191,173.6-191,179.5-189.5,185.2z M-148.8,144.5c-5.6-1.5-11.6-1.5-17.2,0l-1.5-5.4
					c6.6-1.8,13.5-1.8,20.1,0L-148.8,144.5z"/>
			</g>
			<g id="path115871_00000008112857175899020510000003185338129774397068_">
				<path fill="#5AC4D5" d="M-147.4,214.1c-6.6,1.8-13.5,1.8-20.1,0l1.5-5.4c5.6,1.5,11.6,1.5,17.2,0L-147.4,214.1z M-119.9,186.6
					l-5.4-1.5c1.5-5.6,1.5-11.6,0-17.2l5.4-1.5C-118.2,173.1-118.2,180-119.9,186.6z M-189.5,185.2l-5.4,1.5
					c-1.8-6.6-1.8-13.5,0-20.1l5.4,1.5C-191,173.6-191,179.5-189.5,185.2z M-148.8,144.5c-5.6-1.5-11.6-1.5-17.2,0l-1.5-5.4
					c6.6-1.8,13.5-1.8,20.1,0L-148.8,144.5z"/>
			</g>
		</g>
		
			<g id="g115883_00000018215000336234789220000004879955877984521866_" transform="matrix(0.35547207,0.61569568,-0.61569568,0.35547207,370.84229,-837.55639)" inkscape:path-effect="#path-effect115887">
			<g id="path115879_00000059303248760050383190000018149542748241937294_">
				<path fill="#5AC4D5" d="M312.8,664.1l-5.4-1.5c1.5-5.6,1.5-11.6,0-17.2l5.4-1.5C314.5,650.6,314.5,657.5,312.8,664.1z
					 M285.3,691.6c-6.6,1.8-13.5,1.8-20.1,0l1.5-5.4c5.6,1.5,11.6,1.5,17.2,0L285.3,691.6z M283.8,622c-5.6-1.5-11.6-1.5-17.2,0
					l-1.5-5.4c6.6-1.8,13.5-1.8,20.1,0L283.8,622z M243.2,662.6l-5.4,1.5c-1.8-6.6-1.8-13.5,0-20.1l5.4,1.5
					C241.7,651.1,241.7,657,243.2,662.6z"/>
			</g>
			<g id="path115881_00000003083387493389871810000007993552243981584053_">
				<path fill="#5AC4D5" d="M312.8,664.1l-5.4-1.5c1.5-5.6,1.5-11.6,0-17.2l5.4-1.5C314.5,650.6,314.5,657.5,312.8,664.1z
					 M285.3,691.6c-6.6,1.8-13.5,1.8-20.1,0l1.5-5.4c5.6,1.5,11.6,1.5,17.2,0L285.3,691.6z M283.8,622c-5.6-1.5-11.6-1.5-17.2,0
					l-1.5-5.4c6.6-1.8,13.5-1.8,20.1,0L283.8,622z M243.2,662.6l-5.4,1.5c-1.8-6.6-1.8-13.5,0-20.1l5.4,1.5
					C241.7,651.1,241.7,657,243.2,662.6z"/>
			</g>
		</g>
	</g>
</g>
</svg>
