<?xml version="1.0" encoding="utf-8"?>
<!-- Generator: Adobe Illustrator 26.4.1, SVG Export Plug-In . SVG Version: 6.00 Build 0)  -->
<svg version="1.1" xmlns="http://www.w3.org/2000/svg" xmlns:xlink="http://www.w3.org/1999/xlink" x="0px" y="0px" width="100px"
	 height="100px" viewBox="0 0 100 100" enable-background="new 0 0 100 100" xml:space="preserve">
<g id="BACKGROUND">
</g>
<g id="OBJECTS" xmlns:sodipodi="http://sodipodi.sourceforge.net/DTD/sodipodi-0.dtd" xmlns:svg="http://www.w3.org/2000/svg" xmlns:inkscape="http://www.inkscape.org/namespaces/inkscape" inkscape:version="1.2.1 (1:1.2+202205161848+dc2aedaf03)" sodipodi:docname="24 Agustus 2022.svg">
	<g id="g116290_00000032648481520600005180000009789305972391646856_" transform="translate(-15.99346,636.70375)">
		<g id="g116258_00000173127106228352231810000005551952807853542276_" transform="translate(18.724083,127.74169)">
			<g id="path116254_00000087406786989742501000000009236957928294890162_">
				<path fill="#5AC4D5" d="M46.8-668.1c-0.3,0-0.5-0.2-0.5-0.5v-23c0-0.3,0.2-0.5,0.5-0.5s0.5,0.2,0.5,0.5v23
					C47.3-668.4,47-668.1,46.8-668.1z M46.8-737c-0.3,0-0.5-0.2-0.5-0.5v-23c0-0.3,0.2-0.5,0.5-0.5s0.5,0.2,0.5,0.5v23
					C47.3-737.2,47-737,46.8-737z"/>
			</g>
			<g id="path116256_00000124121708551977428990000016716234028772734381_">
				<path fill="#5AC4D5" d="M92.7-714h-23c-0.3,0-0.5-0.2-0.5-0.5s0.2-0.5,0.5-0.5h23c0.3,0,0.5,0.2,0.5,0.5S93-714,92.7-714z
					 M23.8-714h-23c-0.3,0-0.5-0.2-0.5-0.5s0.2-0.5,0.5-0.5h23c0.3,0,0.5,0.2,0.5,0.5S24.1-714,23.8-714z"/>
			</g>
		</g>
		<g id="g116264_00000011028121142916981110000002821348873589826198_" inkscape:path-effect="#path-effect116352">
			<g id="path116260_00000005260937747641488340000000744347246586780838_">
				<path fill="#5AC4D5" d="M65.5-548.8c-3.3,0-6.6-0.4-9.8-1.3l1-3.9c5.8,1.5,11.9,1.5,17.6,0l1,3.9
					C72.1-549.2,68.8-548.8,65.5-548.8z M102.2-577l-3.9-1c1.5-5.8,1.5-11.8,0-17.6l3.9-1C103.9-590.2,103.9-583.4,102.2-577z
					 M28.8-577c-1.7-6.4-1.7-13.2,0-19.7l3.9,1c-1.5,5.8-1.5,11.8,0,17.6L28.8-577z M74.3-619.7c-5.8-1.5-11.8-1.5-17.6,0l-1-3.9
					c6.4-1.7,13.2-1.7,19.7,0L74.3-619.7z"/>
			</g>
			<g id="path116262_00000118374060342377966210000005872491257758632067_">
				<path fill="#5AC4D5" d="M65.5-548.8c-3.3,0-6.6-0.4-9.8-1.3l1-3.9c5.8,1.5,11.9,1.5,17.6,0l1,3.9
					C72.1-549.2,68.8-548.8,65.5-548.8z M102.2-577l-3.9-1c1.5-5.8,1.5-11.8,0-17.6l3.9-1C103.9-590.2,103.9-583.4,102.2-577z
					 M28.8-577c-1.7-6.4-1.7-13.2,0-19.7l3.9,1c-1.5,5.8-1.5,11.8,0,17.6L28.8-577z M74.3-619.7c-5.8-1.5-11.8-1.5-17.6,0l-1-3.9
					c6.4-1.7,13.2-1.7,19.7,0L74.3-619.7z"/>
			</g>
		</g>
		<g id="circle116266_00000037688591411701635630000010346790477349892788_">
			<path fill="#5AC4D5" d="M65.5-557.6c-16.1,0-29.2-13.1-29.2-29.2S49.4-616,65.5-616s29.2,13.1,29.2,29.2S81.6-557.6,65.5-557.6z
				 M65.5-615c-15.5,0-28.2,12.6-28.2,28.2s12.6,28.2,28.2,28.2s28.2-12.6,28.2-28.2S81-615,65.5-615z"/>
		</g>
		<g id="path116270_00000117656407205517415350000012761394418474789823_">
			<path fill="#5AC4D5" d="M65.7-555.3h-0.5v-2.3h0.5V-555.3z M67.7-555.4l-0.2-2.3l0.5,0l0.2,2.3L67.7-555.4z M63.3-555.4l-0.5,0
				l0.2-2.3l0.5,0L63.3-555.4z M70.1-555.6l-0.3-2.2l0.5-0.1l0.3,2.2L70.1-555.6z M60.9-555.6l-0.5-0.1l0.3-2.2l0.5,0.1L60.9-555.6z
				 M58.6-556.1l-0.5-0.1l0.5-2.2l0.5,0.1L58.6-556.1z M72.4-556.1l-0.5-2.2l0.5-0.1l0.5,2.2L72.4-556.1z M74.8-556.7l-0.7-2.2
				l0.5-0.2l0.7,2.2L74.8-556.7z M56.2-556.7l-0.5-0.2l0.7-2.2l0.5,0.2L56.2-556.7z M77-557.5l-0.9-2.1l0.5-0.2l0.9,2.1L77-557.5z
				 M54-557.5l-0.5-0.2l0.9-2.1l0.5,0.2L54-557.5z M79.2-558.5l-1-2l0.4-0.2l1,2L79.2-558.5z M51.7-558.5l-0.4-0.2l1-2l0.4,0.2
				L51.7-558.5z M81.4-559.6l-1.2-2l0.4-0.3l1.2,2L81.4-559.6z M49.6-559.6l-0.4-0.3l1.2-2l0.4,0.3L49.6-559.6z M83.4-560.9
				l-1.3-1.9l0.4-0.3l1.3,1.9L83.4-560.9z M47.6-560.9l-0.4-0.3l1.3-1.9l0.4,0.3L47.6-560.9z M85.3-562.4l-1.4-1.8l0.4-0.3l1.4,1.8
				L85.3-562.4z M45.7-562.4l-0.4-0.3l1.4-1.8l0.4,0.3L45.7-562.4z M87.1-563.9l-1.6-1.6l0.4-0.3l1.6,1.6L87.1-563.9z M43.8-563.9
				l-0.4-0.3l1.6-1.6l0.4,0.3L43.8-563.9z M88.8-565.7l-1.7-1.5l0.3-0.4l1.7,1.5L88.8-565.7z M42.2-565.7l-0.3-0.4l1.7-1.5l0.3,0.4
				L42.2-565.7z M90.4-567.5l-1.8-1.4l0.3-0.4l1.8,1.4L90.4-567.5z M40.6-567.5l-0.3-0.4l1.8-1.4l0.3,0.4L40.6-567.5z M91.8-569.5
				l-1.9-1.2l0.3-0.4l1.9,1.2L91.8-569.5z M39.2-569.5l-0.3-0.4l1.9-1.2l0.3,0.4L39.2-569.5z M93-571.5l-2-1.1l0.2-0.4l2,1.1
				L93-571.5z M38-571.5l-0.2-0.4l2-1.1l0.2,0.4L38-571.5z M94.1-573.7l-2.1-0.9l0.2-0.5l2.1,0.9L94.1-573.7z M36.9-573.7l-0.2-0.5
				l2.1-0.9l0.2,0.5L36.9-573.7z M95-575.9l-2.1-0.8l0.2-0.5l2.1,0.8L95-575.9z M36-575.9l-0.2-0.5l2.1-0.8l0.2,0.5L36-575.9z
				 M35.2-578.2l-0.1-0.5l2.2-0.6l0.1,0.5L35.2-578.2z M95.8-578.2l-2.2-0.6l0.1-0.5l2.2,0.6L95.8-578.2z M96.4-580.6l-2.2-0.4
				l0.1-0.5l2.2,0.4L96.4-580.6z M34.6-580.6l-0.1-0.5l2.2-0.4l0.1,0.5L34.6-580.6z M96.7-582.9l-2.3-0.3l0.1-0.5l2.3,0.3
				L96.7-582.9z M34.2-582.9l-0.1-0.5l2.3-0.3l0.1,0.5L34.2-582.9z M96.9-585.3l-2.3-0.1l0-0.5l2.3,0.1L96.9-585.3z M34-585.3l0-0.5
				l2.3-0.1l0,0.5L34-585.3z M94.7-587.7l0-0.5l2.3-0.1l0,0.5L94.7-587.7z M36.3-587.7l-2.3-0.1l0-0.5l2.3,0.1L36.3-587.7z
				 M94.5-589.9l-0.1-0.5l2.3-0.3l0.1,0.5L94.5-589.9z M36.5-589.9l-2.3-0.3l0.1-0.5l2.3,0.3L36.5-589.9z M94.2-592.1l-0.1-0.5
				l2.2-0.4l0.1,0.5L94.2-592.1z M36.8-592.1l-2.2-0.4l0.1-0.5l2.2,0.4L36.8-592.1z M93.7-594.3l-0.1-0.5l2.2-0.6l0.1,0.5
				L93.7-594.3z M37.3-594.3l-2.2-0.6l0.1-0.5l2.2,0.6L37.3-594.3z M93.1-596.4l-0.2-0.5l2.1-0.8l0.2,0.5L93.1-596.4z M37.9-596.4
				l-2.1-0.8l0.2-0.5l2.1,0.8L37.9-596.4z M92.2-598.5L92-599l2.1-0.9l0.2,0.5L92.2-598.5z M38.7-598.5l-2.1-0.9l0.2-0.5l2.1,0.9
				L38.7-598.5z M91.3-600.5L91-601l2-1.1l0.2,0.4L91.3-600.5z M39.7-600.5l-2-1.1l0.2-0.4l2,1.1L39.7-600.5z M90.1-602.5l-0.3-0.4
				l1.9-1.2l0.3,0.4L90.1-602.5z M40.8-602.5l-1.9-1.2l0.3-0.4l1.9,1.2L40.8-602.5z M88.9-604.3l-0.3-0.4l1.8-1.4l0.3,0.4
				L88.9-604.3z M42.1-604.3l-1.8-1.4l0.3-0.4l1.8,1.4L42.1-604.3z M87.5-606l-0.3-0.4l1.7-1.5l0.3,0.4L87.5-606z M43.5-606
				l-1.7-1.5l0.3-0.4l1.7,1.5L43.5-606z M85.9-607.7l-0.4-0.3l1.6-1.6l0.4,0.3L85.9-607.7z M45.1-607.7l-1.6-1.6l0.4-0.3l1.6,1.6
				L45.1-607.7z M84.3-609.2l-0.4-0.3l1.4-1.8l0.4,0.3L84.3-609.2z M46.7-609.2l-1.4-1.8l0.4-0.3l1.4,1.8L46.7-609.2z M82.5-610.5
				l-0.4-0.3l1.3-1.9l0.4,0.3L82.5-610.5z M48.5-610.5l-1.3-1.9l0.4-0.3l1.3,1.9L48.5-610.5z M80.6-611.8l-0.4-0.3l1.2-2l0.4,0.3
				L80.6-611.8z M50.4-611.8l-1.2-2l0.4-0.3l1.2,2L50.4-611.8z M78.7-612.9l-0.4-0.2l1-2l0.4,0.2L78.7-612.9z M52.3-612.9l-1-2
				l0.4-0.2l1,2L52.3-612.9z M54.3-613.8l-0.9-2.1l0.5-0.2l0.9,2.1L54.3-613.8z M76.6-613.8l-0.5-0.2l0.8-2.1l0.5,0.2L76.6-613.8z
				 M74.5-614.6l-0.5-0.2l0.7-2.2l0.5,0.2L74.5-614.6z M56.4-614.6l-0.7-2.2l0.5-0.2l0.7,2.2L56.4-614.6z M72.4-615.2l-0.5-0.1
				l0.5-2.2l0.5,0.1L72.4-615.2z M58.6-615.2l-0.5-2.2l0.5-0.1l0.5,2.2L58.6-615.2z M70.2-615.6l-0.5-0.1l0.3-2.2l0.5,0.1
				L70.2-615.6z M60.8-615.6l-0.3-2.2l0.5-0.1l0.3,2.2L60.8-615.6z M68-615.9l-0.5,0l0.2-2.3l0.5,0L68-615.9z M63-615.9l-0.2-2.3
				l0.5,0l0.2,2.3L63-615.9z M65.7-616h-0.5v-2.3h0.5V-616z"/>
		</g>
		
			<g id="g116274_00000025403206276659611500000000943522982161991315_" transform="matrix(0.63109733,0,0,0.63109733,350.42295,-144.63748)" inkscape:path-effect="#path-effect116364">
			<g id="path116272_00000060736233894522114050000009402090545676897163_">
				<path fill="#5AC4D5" d="M-451.5-663.8c-1.5,0-3-0.1-4.5-0.3l0.2-1.6c2.9,0.4,5.9,0.3,8.8,0l0.2,1.6
					C-448.3-663.9-449.9-663.8-451.5-663.8z M-488-695.9c-0.4-3-0.4-6.1,0-9.2l1.6,0.2c-0.4,2.9-0.3,5.9,0,8.8L-488-695.9z
					 M-414.9-696.2l-1.6-0.2c0.4-2.9,0.3-5.9,0-8.8l1.6-0.2C-414.6-702.3-414.6-699.2-414.9-696.2z M-456-735.6l-0.2-1.6
					c3-0.4,6.1-0.4,9.2,0l-0.2,1.6C-450.1-736-453.1-736-456-735.6z"/>
			</g>
		</g>
		<g id="circle116276_00000010276631302268684380000004360972016451742640_">
			<path fill="#38797F" d="M65.5-566.3c-11.3,0-20.5-9.2-20.5-20.5s9.2-20.5,20.5-20.5S86-598.1,86-586.8S76.8-566.3,65.5-566.3z
				 M65.5-606.3c-10.7,0-19.5,8.7-19.5,19.5s8.7,19.5,19.5,19.5S85-576.1,85-586.8S76.2-606.3,65.5-606.3z"/>
		</g>
	</g>
</g>
</svg>
