<?xml version="1.0" encoding="utf-8"?>
<!-- Generator: Adobe Illustrator 26.4.1, SVG Export Plug-In . SVG Version: 6.00 Build 0)  -->
<svg version="1.1" xmlns="http://www.w3.org/2000/svg" xmlns:xlink="http://www.w3.org/1999/xlink" x="0px" y="0px" width="100px"
	 height="100px" viewBox="0 0 100 100" enable-background="new 0 0 100 100" xml:space="preserve">
<g id="BACKGROUND">
</g>
<g id="OBJECTS" xmlns:sodipodi="http://sodipodi.sourceforge.net/DTD/sodipodi-0.dtd" xmlns:svg="http://www.w3.org/2000/svg" xmlns:inkscape="http://www.inkscape.org/namespaces/inkscape" inkscape:version="1.2.1 (1:1.2+202205161848+dc2aedaf03)" sodipodi:docname="24 Agustus 2022.svg">
	<g id="g116634_00000166646956676924721980000015766459036889162145_" transform="rotate(45,-113.10661,247.27619)">
		<g id="g116616_00000009590535008494055950000010492900553346067091_" transform="translate(18.724083,127.74169)">
			<g id="path116608_00000059276555538870542850000003166150977816362154_">
				<path fill="#5AC4D5" d="M-155.6-94.2c-0.1,0.1-0.2,0.1-0.4,0.1c-0.3,0-0.5-0.2-0.5-0.5v-20.4c0-0.3,0.2-0.5,0.5-0.5
					s0.5,0.2,0.5,0.5v20.4C-155.5-94.4-155.5-94.2-155.6-94.2z M-155.6-155.3c-0.1,0.1-0.2,0.1-0.4,0.1c-0.3,0-0.5-0.2-0.5-0.5
					v-20.4c0-0.3,0.2-0.5,0.5-0.5s0.5,0.2,0.5,0.5v20.4C-155.5-155.5-155.5-155.4-155.6-155.3z"/>
			</g>
			<g id="path116610_00000181804034744450629130000000585897316176246175_">
				<path fill="#5AC4D5" d="M-114.9-134.9c-0.1,0.1-0.2,0.1-0.4,0.1h-20.4c-0.3,0-0.5-0.2-0.5-0.5s0.2-0.5,0.5-0.5h20.4
					c0.3,0,0.5,0.2,0.5,0.5C-114.7-135.2-114.8-135-114.9-134.9z M-176-134.9c-0.1,0.1-0.2,0.1-0.4,0.1h-20.4
					c-0.3,0-0.5-0.2-0.5-0.5s0.2-0.5,0.5-0.5h20.4c0.3,0,0.5,0.2,0.5,0.5C-175.9-135.2-175.9-135-176-134.9z"/>
			</g>
			<g id="path116612_00000148648213549597698130000017702901728906468494_">
				<path fill="#5AC4D5" d="M-123.2-102.5c-0.2,0.2-0.5,0.2-0.7,0l-16.2-16.2c-0.2-0.2-0.2-0.5,0-0.7c0.2-0.2,0.5-0.2,0.7,0
					l16.2,16.2C-123-103-123-102.7-123.2-102.5z M-171.9-151.2c-0.2,0.2-0.5,0.2-0.7,0l-16.2-16.2c-0.2-0.2-0.2-0.5,0-0.7
					c0.2-0.2,0.5-0.2,0.7,0l16.2,16.2C-171.7-151.7-171.7-151.4-171.9-151.2z"/>
			</g>
			<g id="path116614_00000129173993922765438190000015001188334475649706_">
				<path fill="#5AC4D5" d="M-123.2-167.4l-16.2,16.2c-0.2,0.2-0.5,0.2-0.7,0c-0.2-0.2-0.2-0.5,0-0.7l16.2-16.2
					c0.2-0.2,0.5-0.2,0.7,0C-123-167.9-123-167.6-123.2-167.4z M-171.9-118.7l-16.2,16.2c-0.2,0.2-0.5,0.2-0.7,0
					c-0.2-0.2-0.2-0.5,0-0.7l16.2-16.2c0.2-0.2,0.5-0.2,0.7,0C-171.7-119.2-171.7-118.9-171.9-118.7z"/>
			</g>
		</g>
		
			<g id="g116620_00000111163780281847773610000006306606651595842476_" transform="rotate(45,949.90623,-392.0749)" inkscape:path-effect="#path-effect116692">
			<g id="path116618_00000098192903939407935840000010891700088482344835_">
				<path fill="#5AC4D5" d="M491.2,626.5l-3.5,2c-3.5-6.1-8.6-11.1-14.7-14.7l2-3.5C481.8,614.3,487.3,619.9,491.2,626.5z
					 M491.2,670.6c-3.9,6.7-9.4,12.3-16.1,16.1l-2-3.5c6.1-3.5,11.1-8.6,14.7-14.7L491.2,670.6z M433,613.9
					c-6.1,3.5-11.1,8.6-14.7,14.7l-3.5-2c3.9-6.7,9.4-12.3,16.1-16.1L433,613.9z M433,683.3l-2,3.5c-6.7-3.9-12.3-9.4-16.1-16.1
					l3.5-2C421.9,674.7,427,679.7,433,683.3z"/>
			</g>
		</g>
		<g id="circle116622_00000058579639612373515670000014023501311341391281_">
			<path fill="#5AC4D5" d="M-111.5,18.2c-6.6,6.6-15.7,10.7-25.7,10.7c-20.1,0-36.4-16.3-36.4-36.4c0-20.1,16.3-36.4,36.4-36.4l0,0
				c20.1,0,36.4,16.3,36.4,36.4C-100.8,2.5-104.9,11.6-111.5,18.2z M-161.6-31.9c-6.2,6.2-10.1,14.8-10.1,24.3
				c0,19,15.4,34.4,34.4,34.4s34.4-15.4,34.4-34.4c0-19-15.4-34.4-34.4-34.4C-146.8-42-155.4-38.1-161.6-31.9z"/>
		</g>
		<g id="path116624_00000063618450543622031100000015935196426063808909_">
			<path fill="#5AC4D5" d="M-121.3,8.1l-0.4,0.4l-3.5-3.5l0.4-0.4L-121.3,8.1z M-119.3,5.8l-4-2.9l0.3-0.4l4,2.9L-119.3,5.8z
				 M-123.9,10.4l-0.4,0.3l-2.9-4l0.4-0.3L-123.9,10.4z M-117.5,2.8l-4.4-2.2l0.2-0.4l4.4,2.2L-117.5,2.8z M-126.9,12.2l-0.4,0.2
				l-2.2-4.4l0.4-0.2L-126.9,12.2z M-116.1-0.4l-4.6-1.5l0.2-0.5l4.6,1.5L-116.1-0.4z M-130.1,13.6l-0.5,0.2l-1.5-4.6l0.5-0.2
				L-130.1,13.6z M-115.2-3.8l-4.8-0.8l0.1-0.5l4.8,0.8L-115.2-3.8z M-133.5,14.5l-0.5,0.1l-0.8-4.8l0.5-0.1L-133.5,14.5z
				 M-114.9-7.3h-4.9v-0.5h4.9V-7.3z M-137,14.8h-0.5V9.9h0.5V14.8z M-115.2-10.8L-120-10l-0.1-0.5l4.8-0.8L-115.2-10.8z
				 M-140.5,14.6l-0.5-0.1l0.8-4.8l0.5,0.1L-140.5,14.6z M-115.9-14.2l-4.6,1.5l-0.2-0.5l4.6-1.5L-115.9-14.2z M-143.9,13.8
				l-0.5-0.2l1.5-4.6l0.5,0.2L-143.9,13.8z M-117.2-17.5l-4.4,2.2l-0.2-0.4l4.4-2.2L-117.2-17.5z M-147.2,12.5l-0.4-0.2l2.2-4.4
				l0.4,0.2L-147.2,12.5z M-119-20.5l-4,2.9l-0.3-0.4l4-2.9L-119-20.5z M-150.2,10.7l-0.4-0.3l2.9-4l0.4,0.3L-150.2,10.7z
				 M-121.3-23.2l-3.5,3.5l-0.4-0.4l3.5-3.5L-121.3-23.2z M-149.4,5l-3.5,3.5l-0.4-0.4l3.5-3.5L-149.4,5z M-126.8-21.5l-0.4-0.3
				l2.9-4l0.4,0.3L-126.8-21.5z M-151.3,2.9l-4,2.9l-0.3-0.4l4-2.9L-151.3,2.9z M-129.1-23l-0.4-0.2l2.2-4.4l0.4,0.2L-129.1-23z
				 M-152.7,0.6l-4.4,2.2l-0.2-0.4l4.4-2.2L-152.7,0.6z M-131.6-24.1l-0.5-0.2l1.5-4.6l0.5,0.2L-131.6-24.1z M-153.8-1.9l-4.6,1.5
				l-0.2-0.5l4.6-1.5L-153.8-1.9z M-154.5-4.6l-4.8,0.8l-0.1-0.5l4.8-0.8L-154.5-4.6z M-134.3-24.8l-0.5-0.1l0.8-4.8l0.5,0.1
				L-134.3-24.8z M-137-25h-0.5v-4.9h0.5V-25z M-154.7-7.3h-4.9v-0.5h4.9V-7.3z M-139.8-24.8l-0.5,0.1l-0.8-4.8l0.5-0.1L-139.8-24.8
				z M-154.6-10l-4.8-0.8l0.1-0.5l4.8,0.8L-154.6-10z M-142.4-24.2l-0.5,0.2l-1.5-4.6l0.5-0.2L-142.4-24.2z M-154-12.7l-4.6-1.5
				l0.2-0.5l4.6,1.5L-154-12.7z M-145-23.2l-0.4,0.2l-2.2-4.4l0.4-0.2L-145-23.2z M-152.9-15.3l-4.4-2.2l0.2-0.4l4.4,2.2
				L-152.9-15.3z M-147.3-21.8l-0.4,0.3l-2.9-4l0.4-0.3L-147.3-21.8z M-151.5-17.6l-4-2.9l0.3-0.4l4,2.9L-151.5-17.6z M-149.4-20.1
				l-0.4,0.4l-3.5-3.5l0.4-0.4L-149.4-20.1z"/>
		</g>
		
			<g id="g116630_00000153693858208023456490000002210633179690540679_" transform="matrix(0.44209471,0.44209471,-0.44209471,0.44209471,356.62348,-638.68918)" inkscape:path-effect="#path-effect116704">
			<g id="path116628_00000134928339261960902890000003956608431946295179_">
				<path fill="#5AC4D5" d="M183.9,1255.8l-2.8,1.6c-2.6-4.5-6.4-8.3-10.9-10.9l1.6-2.8C176.8,1246.6,181,1250.8,183.9,1255.8z
					 M183.9,1288.9c-2.9,5-7.1,9.2-12.1,12.1l-1.6-2.8c4.5-2.6,8.3-6.4,10.9-10.9L183.9,1288.9z M140.3,1298.3l-1.6,2.8
					c-5-2.9-9.2-7.1-12.1-12.1l2.8-1.6C131.9,1291.9,135.7,1295.7,140.3,1298.3z M140.3,1246.5c-4.5,2.6-8.3,6.4-10.9,10.9l-2.8-1.6
					c2.9-5,7.1-9.2,12.1-12.1L140.3,1246.5z"/>
			</g>
		</g>
		<g id="circle117948_00000061452152679990674040000007419615772364531616_">
			<path fill="#38797F" d="M-113.7,16c-6.3,6.3-14.6,9.7-23.5,9.7c-18.3,0-33.3-14.9-33.3-33.3c0-8.9,3.5-17.2,9.7-23.5
				c6.3-6.3,14.6-9.7,23.5-9.7l0,0l0,0c8.9,0,17.2,3.5,23.5,9.7s9.7,14.6,9.7,23.5S-107.5,9.7-113.7,16z M-160.1-30.4
				c-6.1,6.1-9.5,14.2-9.5,22.8c0,17.8,14.5,32.3,32.3,32.3c8.6,0,16.7-3.4,22.8-9.5c6.1-6.1,9.5-14.2,9.5-22.8s-3.4-16.7-9.5-22.8
				s-14.2-9.5-22.8-9.5l0,0C-145.9-39.8-154-36.5-160.1-30.4z"/>
		</g>
	</g>
</g>
</svg>
