<?xml version="1.0" encoding="utf-8"?>
<!-- Generator: Adobe Illustrator 26.4.1, SVG Export Plug-In . SVG Version: 6.00 Build 0)  -->
<svg version="1.1" xmlns="http://www.w3.org/2000/svg" xmlns:xlink="http://www.w3.org/1999/xlink" x="0px" y="0px" width="100px"
	 height="100px" viewBox="0 0 100 100" enable-background="new 0 0 100 100" xml:space="preserve">
<g id="BACKGROUND">
</g>
<g id="OBJECTS" xmlns:sodipodi="http://sodipodi.sourceforge.net/DTD/sodipodi-0.dtd" xmlns:svg="http://www.w3.org/2000/svg" xmlns:inkscape="http://www.inkscape.org/namespaces/inkscape" inkscape:version="1.2.1 (1:1.2+202205161848+dc2aedaf03)" sodipodi:docname="24 Agustus 2022.svg">
	<g id="g116606_00000136380808025656862880000008258669388112926377_" transform="translate(-15.99346,938.92522)">
		<g id="circle116592_00000060734987364280820190000017797408247295301044_">
			<path fill="#38797F" d="M65.3-867.8c-11.7,0-21.2-9.5-21.2-21.2s9.5-21.2,21.2-21.2s21.2,9.5,21.2,21.2S77-867.8,65.3-867.8z
				 M65.3-904.1c-8.4,0-15.2,6.8-15.2,15.2s6.8,15.2,15.2,15.2s15.2-6.8,15.2-15.2S73.7-904.1,65.3-904.1z"/>
		</g>
		<g id="g116574_00000165923907693392978180000012168347545715697050_" transform="translate(18.724083,127.74169)">
			<g id="path116570_00000060731959510521971230000007689504534276183682_">
				<path fill="#5AC4D5" d="M46.6-970.2c-0.3,0-0.5-0.2-0.5-0.5v-23c0-0.3,0.2-0.5,0.5-0.5s0.5,0.2,0.5,0.5v23
					C47.1-970.5,46.9-970.2,46.6-970.2z M46.6-1039.1c-0.3,0-0.5-0.2-0.5-0.5v-23c0-0.3,0.2-0.5,0.5-0.5s0.5,0.2,0.5,0.5v23
					C47.1-1039.4,46.9-1039.1,46.6-1039.1z"/>
			</g>
			<g id="path116572_00000066479013560747166700000002313528382036348591_">
				<path fill="#5AC4D5" d="M92.5-1016.2h-23c-0.3,0-0.5-0.2-0.5-0.5s0.2-0.5,0.5-0.5h23c0.3,0,0.5,0.2,0.5,0.5
					S92.8-1016.2,92.5-1016.2z M23.7-1016.2h-23c-0.3,0-0.5-0.2-0.5-0.5s0.2-0.5,0.5-0.5h23c0.3,0,0.5,0.2,0.5,0.5
					S23.9-1016.2,23.7-1016.2z"/>
			</g>
			<g id="path117960_00000057863705512793713670000004368527165567370121_">
				<path fill="#5AC4D5" d="M14.1-983.7c-0.1,0-0.3,0-0.4-0.1c-0.2-0.2-0.2-0.5,0-0.7l12-12c0.2-0.2,0.5-0.2,0.7,0s0.2,0.5,0,0.7
					l-12,12C14.4-983.7,14.3-983.7,14.1-983.7z M67.1-1036.7c-0.1,0-0.3,0-0.4-0.1c-0.2-0.2-0.2-0.5,0-0.7l12-12
					c0.2-0.2,0.5-0.2,0.7,0s0.2,0.5,0,0.7l-12,12C67.4-1036.7,67.2-1036.7,67.1-1036.7z"/>
			</g>
			<g id="path117962_00000038380760641684417010000016564237600786418102_">
				<path fill="#5AC4D5" d="M79.1-983.7c-0.1,0-0.3,0-0.4-0.1l-12-12c-0.2-0.2-0.2-0.5,0-0.7s0.5-0.2,0.7,0l12,12
					c0.2,0.2,0.2,0.5,0,0.7C79.3-983.7,79.2-983.7,79.1-983.7z M26.1-1036.7c-0.1,0-0.3,0-0.4-0.1l-12-12c-0.2-0.2-0.2-0.5,0-0.7
					s0.5-0.2,0.7,0l12,12c0.2,0.2,0.2,0.5,0,0.7C26.4-1036.7,26.2-1036.7,26.1-1036.7z"/>
			</g>
		</g>
		<g id="g116580_00000097485663332102458530000006525681140589276567_" inkscape:path-effect="#path-effect116668">
			<g id="path116576_00000021812517471707111820000014441403659030188448_">
				<path fill="#5AC4D5" d="M65.3-850.9c-3.3,0-6.6-0.4-9.8-1.3l1-3.9c5.8,1.5,11.9,1.5,17.6,0l1,3.9
					C72-851.3,68.6-850.9,65.3-850.9z M102.1-879.1l-3.9-1c1.5-5.8,1.5-11.8,0-17.6l3.9-1C103.8-892.3,103.8-885.5,102.1-879.1z
					 M28.6-879.1c-1.7-6.4-1.7-13.2,0-19.7l3.9,1c-1.5,5.8-1.5,11.9,0,17.6L28.6-879.1z M74.1-921.8c-5.8-1.5-11.8-1.5-17.6,0
					l-1-3.9c6.4-1.7,13.2-1.7,19.7,0L74.1-921.8z"/>
			</g>
			<g id="path116578_00000121963311564767767450000011418845242044033440_">
				<path fill="#5AC4D5" d="M65.3-850.9c-7.4,0-14.8-2.2-21.3-6.6l2.2-3.3c11.6,7.9,26.6,7.9,38.2-0.1l2.3,3.3
					C80.3-853.1,72.8-850.9,65.3-850.9z M33.9-867.5c-8.8-13-8.9-29.7-0.1-42.7l3.3,2.2c-7.9,11.6-7.9,26.6,0.1,38.2L33.9-867.5z
					 M96.8-867.6l-3.3-2.2c7.9-11.6,7.9-26.6-0.1-38.2l3.3-2.3C105.6-897.4,105.6-880.6,96.8-867.6z M46.2-917l-2.3-3.3
					c13-8.8,29.7-8.9,42.7-0.1l-2.2,3.3C72.8-925,57.8-924.9,46.2-917z"/>
			</g>
		</g>
		<g id="circle116582_00000024687206857521110490000016486657649535124102_">
			<path fill="#5AC4D5" d="M65.3-859.8c-16.1,0-29.2-13.1-29.2-29.2s13.1-29.2,29.2-29.2s29.2,13.1,29.2,29.2S81.4-859.8,65.3-859.8
				z M65.3-917.1c-15.5,0-28.2,12.6-28.2,28.2s12.6,28.2,28.2,28.2s28.2-12.6,28.2-28.2S80.9-917.1,65.3-917.1z"/>
		</g>
		<g id="path116584_00000088118824438756601950000000925044542398906293_">
			<path fill="#5AC4D5" d="M66.8-869.3l-3.6-2.3l0.5-0.8l3.6,2.3L66.8-869.3z M63.3-869.3l-3.1-2.9l0.7-0.7l3.1,2.9L63.3-869.3z
				 M70.3-869.8l-3.9-1.6l0.4-0.9l3.9,1.6L70.3-869.8z M59.8-870l-2.5-3.4l0.8-0.6l2.5,3.4L59.8-870z M73.6-871l-4.1-0.9l0.2-1
				l4.1,0.9L73.6-871z M56.5-871.3l-1.9-3.8l0.9-0.4l1.9,3.8L56.5-871.3z M76.7-872.8l-4.2-0.2l0-1l4.2,0.2L76.7-872.8z M53.5-873.2
				l-1.2-4.1l1-0.3l1.2,4.1L53.5-873.2z M75.2-874.5l-0.1-1l4.2-0.6l0.1,1L75.2-874.5z M50.9-875.5l-0.4-4.2l1-0.1l0.4,4.2
				L50.9-875.5z M77.6-876.5l-0.3-0.9l4-1.3l0.3,0.9L77.6-876.5z M49.7-878.2l-1-0.1l0.4-4.2l1,0.1L49.7-878.2z M79.6-878.9
				l-0.5-0.9l3.7-2l0.5,0.9L79.6-878.9z M48.1-881.2l-1-0.3l1.1-4.1l1,0.3L48.1-881.2z M81.2-881.6l-0.6-0.8l3.3-2.7l0.6,0.8
				L81.2-881.6z M47-884.4l-0.9-0.4l1.8-3.8l0.9,0.4L47-884.4z M82.2-884.5l-0.8-0.7l2.8-3.2l0.8,0.7L82.2-884.5z M82.8-887.6
				l-0.9-0.5l2.2-3.7l0.9,0.5L82.8-887.6z M46.5-887.8l-0.8-0.6l2.5-3.5l0.8,0.6L46.5-887.8z M82.7-890.7l-0.9-0.3l1.5-4l0.9,0.3
				L82.7-890.7z M46.5-891.2l-0.7-0.7l3-3l0.7,0.7L46.5-891.2z M82.1-893.8l-1-0.2l0.7-4.2l1,0.2L82.1-893.8z M47.2-894.5l-0.6-0.8
				l3.5-2.4l0.6,0.8L47.2-894.5z M80-896.7l0-4.2l1,0l0,4.2L80-896.7z M48.5-897.6l-0.4-0.9l3.9-1.7l0.4,0.9L48.5-897.6z
				 M78.3-899.2l-0.8-4.2l1-0.2l0.8,4.2L78.3-899.2z M50.4-900.5l-0.2-1l4.1-1l0.2,1L50.4-900.5z M76.3-901.4l-1.5-4l0.9-0.4l1.5,4
				L76.3-901.4z M52.7-903l-0.1-1l4.2-0.2l0.1,1L52.7-903z M73.9-903.1l-2.2-3.6l0.9-0.5l2.2,3.6L73.9-903.1z M71.2-904.4l-2.8-3.2
				l0.7-0.7l2.8,3.2L71.2-904.4z M59.6-904.5l-4.2-0.5l0.1-1l4.2,0.5L59.6-904.5z M68.4-905.2l-3.3-2.6l0.6-0.8L69-906L68.4-905.2z
				 M62.4-905.2l-4-1.3l0.3-1l4,1.3L62.4-905.2z M65.4-905.5l-3.8-2l0.5-0.9l3.8,2L65.4-905.5z"/>
		</g>
		<g id="path116586_00000154427782080907846190000011127143562606782370_">
			<path fill="#5AC4D5" d="M65.6-860.3h-0.5v-2.1h0.5V-860.3z M67.3-860.4l-0.2-2.1l0.5,0l0.2,2.1L67.3-860.4z M63.4-860.4l-0.5,0
				l0.2-2.1l0.5,0L63.4-860.4z M69.5-860.6l-0.3-2l0.5-0.1l0.3,2L69.5-860.6z M61.2-860.6l-0.5-0.1l0.3-2l0.5,0.1L61.2-860.6z
				 M71.6-861l-0.5-2l0.5-0.1l0.5,2L71.6-861z M59.1-861l-0.5-0.1l0.5-2l0.5,0.1L59.1-861z M73.7-861.6l-0.6-2l0.5-0.2l0.6,2
				L73.7-861.6z M57-861.6l-0.5-0.2l0.6-2l0.5,0.2L57-861.6z M54.9-862.3l-0.5-0.2l0.8-1.9l0.5,0.2L54.9-862.3z M75.8-862.3
				l-0.8-1.9l0.5-0.2l0.8,1.9L75.8-862.3z M77.8-863.2l-0.9-1.8l0.4-0.2l0.9,1.8L77.8-863.2z M52.9-863.2l-0.4-0.2l0.9-1.8l0.4,0.2
				L52.9-863.2z M79.7-864.2l-1.1-1.8l0.4-0.3l1.1,1.8L79.7-864.2z M51-864.2l-0.4-0.3l1.1-1.8L52-866L51-864.2z M81.6-865.4
				l-1.2-1.7l0.4-0.3l1.2,1.7L81.6-865.4z M49.1-865.4l-0.4-0.3l1.2-1.7l0.4,0.3L49.1-865.4z M83.3-866.7l-1.3-1.6l0.4-0.3l1.3,1.6
				L83.3-866.7z M47.4-866.7L47-867l1.3-1.6l0.4,0.3L47.4-866.7z M85-868.2l-1.4-1.5l0.4-0.3l1.4,1.5L85-868.2z M45.7-868.2
				l-0.4-0.3l1.4-1.5l0.4,0.3L45.7-868.2z M86.5-869.7l-1.5-1.4l0.3-0.4l1.5,1.4L86.5-869.7z M44.2-869.7l-0.3-0.4l1.5-1.4l0.3,0.4
				L44.2-869.7z M87.9-871.4l-1.6-1.3l0.3-0.4l1.6,1.3L87.9-871.4z M42.8-871.4l-0.3-0.4l1.6-1.3l0.3,0.4L42.8-871.4z M89.2-873.2
				l-1.7-1.1l0.3-0.4l1.7,1.1L89.2-873.2z M41.5-873.2l-0.3-0.4l1.7-1.1l0.3,0.4L41.5-873.2z M90.3-875l-1.8-1l0.2-0.4l1.8,1
				L90.3-875z M40.4-875l-0.2-0.4l1.8-1l0.2,0.4L40.4-875z M91.3-877l-1.9-0.8l0.2-0.5l1.9,0.8L91.3-877z M39.4-877l-0.2-0.5
				l1.9-0.8l0.2,0.5L39.4-877z M92.1-879l-1.9-0.7l0.2-0.5l1.9,0.7L92.1-879z M38.5-879l-0.2-0.5l1.9-0.7l0.2,0.5L38.5-879z
				 M92.8-881.1l-2-0.5l0.1-0.5l2,0.5L92.8-881.1z M37.9-881.1l-0.1-0.5l2-0.5l0.1,0.5L37.9-881.1z M93.3-883.2l-2-0.4l0.1-0.5
				l2,0.4L93.3-883.2z M37.3-883.2l-0.1-0.5l2-0.4l0.1,0.5L37.3-883.2z M93.7-885.4l-2-0.2l0.1-0.5l2,0.2L93.7-885.4z M37-885.4
				l-0.1-0.5l2-0.2l0.1,0.5L37-885.4z M93.9-887.6l-2.1-0.1l0-0.5l2.1,0.1L93.9-887.6z M36.8-887.6l0-0.5l2.1-0.1l0,0.5L36.8-887.6z
				 M91.8-889.7l0-0.5l2.1-0.1l0,0.5L91.8-889.7z M38.8-889.7l-2.1-0.1l0-0.5l2.1,0.1L38.8-889.7z M91.7-891.7l-0.1-0.5l2-0.2
				l0.1,0.5L91.7-891.7z M39-891.7l-2-0.2l0.1-0.5l2,0.2L39-891.7z M91.4-893.7l-0.1-0.5l2-0.4l0.1,0.5L91.4-893.7z M39.3-893.7
				l-2-0.4l0.1-0.5l2,0.4L39.3-893.7z M91-895.7l-0.1-0.5l2-0.5l0.1,0.5L91-895.7z M39.7-895.7l-2-0.5l0.1-0.5l2,0.5L39.7-895.7z
				 M90.4-897.6l-0.2-0.5l1.9-0.7l0.2,0.5L90.4-897.6z M40.3-897.6l-1.9-0.7l0.2-0.5l1.9,0.7L40.3-897.6z M89.6-899.5l-0.2-0.5
				l1.9-0.8l0.2,0.5L89.6-899.5z M41.1-899.5l-1.9-0.8l0.2-0.5l1.9,0.8L41.1-899.5z M41.9-901.4l-1.8-1l0.2-0.4l1.8,1L41.9-901.4z
				 M88.7-901.4l-0.2-0.4l1.8-1l0.2,0.4L88.7-901.4z M87.7-903.1l-0.3-0.4l1.7-1.1l0.3,0.4L87.7-903.1z M43-903.1l-1.7-1.1l0.3-0.4
				l1.7,1.1L43-903.1z M86.6-904.8l-0.3-0.4l1.6-1.3l0.3,0.4L86.6-904.8z M44.1-904.8l-1.6-1.3l0.3-0.4l1.6,1.3L44.1-904.8z
				 M85.3-906.4l-0.3-0.4l1.5-1.4l0.3,0.4L85.3-906.4z M45.4-906.4l-1.5-1.4l0.3-0.4l1.5,1.4L45.4-906.4z M83.9-907.8l-0.4-0.3
				l1.4-1.5l0.4,0.3L83.9-907.8z M46.8-907.8l-1.4-1.5l0.4-0.3l1.4,1.5L46.8-907.8z M82.4-909.2l-0.4-0.3l1.3-1.6l0.4,0.3
				L82.4-909.2z M48.3-909.2l-1.3-1.6l0.4-0.3l1.3,1.6L48.3-909.2z M80.8-910.5l-0.4-0.3l1.2-1.7l0.4,0.3L80.8-910.5z M49.9-910.5
				l-1.2-1.7l0.4-0.3l1.2,1.7L49.9-910.5z M79.1-911.6l-0.4-0.3l1.1-1.8l0.4,0.3L79.1-911.6z M51.6-911.6l-1.1-1.8l0.4-0.3l1.1,1.8
				L51.6-911.6z M77.3-912.6l-0.4-0.2l0.9-1.8l0.4,0.2L77.3-912.6z M53.4-912.6l-0.9-1.8l0.4-0.2l0.9,1.8L53.4-912.6z M55.2-913.4
				l-0.8-1.9l0.5-0.2l0.8,1.9L55.2-913.4z M75.5-913.4l-0.5-0.2l0.8-1.9l0.5,0.2L75.5-913.4z M73.6-914.1l-0.5-0.2l0.6-2l0.5,0.2
				L73.6-914.1z M57.1-914.1l-0.6-2l0.5-0.2l0.6,2L57.1-914.1z M59.1-914.7l-0.5-2l0.5-0.1l0.5,2L59.1-914.7z M71.6-914.7l-0.5-0.1
				l0.5-2l0.5,0.1L71.6-914.7z M61-915.1l-0.3-2l0.5-0.1l0.3,2L61-915.1z M69.6-915.1l-0.5-0.1l0.3-2l0.5,0.1L69.6-915.1z
				 M67.6-915.3l-0.5,0l0.2-2.1l0.5,0L67.6-915.3z M63.1-915.3l-0.2-2.1l0.5,0l0.2,2.1L63.1-915.3z M65.6-915.4h-0.5v-2.1h0.5
				V-915.4z"/>
		</g>
		
			<g id="g116590_00000080886639415501754530000005630718607692660635_" transform="matrix(0.63109733,0,0,0.63109733,350.42295,-144.63748)" inkscape:path-effect="#path-effect116680">
			<g id="path116588_00000009583077597106896490000018271773816004679854_">
				<path fill="#5AC4D5" d="M-451.7-1142.5c-1.5,0-3-0.1-4.5-0.3l0.2-1.6c2.9,0.4,5.9,0.3,8.8,0l0.2,1.6
					C-448.6-1142.6-450.2-1142.5-451.7-1142.5z M-488.2-1174.7c-0.4-3-0.4-6.1,0-9.2l1.6,0.2c-0.4,2.9-0.3,5.9,0,8.8L-488.2-1174.7z
					 M-415.2-1174.9l-1.6-0.2c0.4-2.9,0.3-5.9,0-8.8l1.6-0.2C-414.8-1181-414.8-1177.9-415.2-1174.9z M-456.2-1214.3l-0.2-1.6
					c3-0.4,6.1-0.4,9.2,0l-0.2,1.6C-450.4-1214.7-453.3-1214.7-456.2-1214.3z"/>
			</g>
		</g>
		
			<g id="g117954_00000144316625307469049950000017772815722175983517_" transform="rotate(45,949.90623,-392.0749)" inkscape:path-effect="#path-effect117958">
			<g id="path117950_00000052089350774033744230000008029420759555178684_">
				<path fill="#5AC4D5" d="M10.9-113.8l-4-0.4c0.3-2.4,0.3-4.8,0-7.2l4-0.4C11.2-119.1,11.2-116.4,10.9-113.8z M-23-80.1
					c-2.7,0.3-5.3,0.3-8,0l0.4-4c2.4,0.3,4.8,0.3,7.2,0L-23-80.1z M-23.2-151.7c-2.4-0.3-4.8-0.3-7.2,0l-0.4-4c2.7-0.3,5.3-0.3,8,0
					L-23.2-151.7z M-60.7-114.4l-4,0.4c-0.3-2.7-0.3-5.3,0-8l4,0.4C-61-119.2-61-116.8-60.7-114.4z"/>
			</g>
		</g>
	</g>
</g>
</svg>
