<?xml version="1.0" encoding="utf-8"?>
<!-- Generator: Adobe Illustrator 26.4.1, SVG Export Plug-In . SVG Version: 6.00 Build 0)  -->
<svg version="1.1" xmlns="http://www.w3.org/2000/svg" xmlns:xlink="http://www.w3.org/1999/xlink" x="0px" y="0px" width="100px"
	 height="100px" viewBox="0 0 100 100" enable-background="new 0 0 100 100" xml:space="preserve">
<g id="BACKGROUND">
</g>
<g id="OBJECTS" xmlns:sodipodi="http://sodipodi.sourceforge.net/DTD/sodipodi-0.dtd" xmlns:svg="http://www.w3.org/2000/svg" xmlns:inkscape="http://www.inkscape.org/namespaces/inkscape" inkscape:version="1.2.1 (1:1.2+202205161848+dc2aedaf03)" sodipodi:docname="24 Agustus 2022.svg">
	<g id="g119504_00000181052411367462832390000018182802673601219205_" transform="rotate(45,-34.739775,436.47047)">
		<g id="g119488_00000085928902231326578120000006052644131223789743_" transform="translate(18.724083,127.74169)">
			<g id="path119480_00000062887698579850554720000014263894739118008992_">
				<path fill="#5AC4D5" d="M-266.5,16.7c-0.1,0.1-0.2,0.1-0.4,0.1c-0.3,0-0.5-0.2-0.5-0.5V-4.1c0-0.3,0.2-0.5,0.5-0.5
					s0.5,0.2,0.5,0.5v20.4C-266.3,16.5-266.4,16.6-266.5,16.7z M-266.5-44.5c-0.1,0.1-0.2,0.1-0.4,0.1c-0.3,0-0.5-0.2-0.5-0.5v-20.4
					c0-0.3,0.2-0.5,0.5-0.5s0.5,0.2,0.5,0.5v20.4C-266.3-44.7-266.4-44.6-266.5-44.5z"/>
			</g>
			<g id="path119482_00000039095774057462837340000015848217748601249199_">
				<path fill="#5AC4D5" d="M-225.7-24.1c-0.1,0.1-0.2,0.1-0.4,0.1h-20.4c-0.3,0-0.5-0.2-0.5-0.5c0-0.3,0.2-0.5,0.5-0.5h20.4
					c0.3,0,0.5,0.2,0.5,0.5C-225.5-24.3-225.6-24.2-225.7-24.1z M-286.9-24.1c-0.1,0.1-0.2,0.1-0.4,0.1h-20.4
					c-0.3,0-0.5-0.2-0.5-0.5c0-0.3,0.2-0.5,0.5-0.5h20.4c0.3,0,0.5,0.2,0.5,0.5C-286.7-24.3-286.8-24.2-286.9-24.1z"/>
			</g>
			<g id="path119484_00000149380293755951474770000016750510132244668312_">
				<path fill="#5AC4D5" d="M-234,8.4c-0.2,0.2-0.5,0.2-0.7,0l-16.2-16.2c-0.2-0.2-0.2-0.5,0-0.7s0.5-0.2,0.7,0L-234,7.6
					C-233.8,7.8-233.8,8.2-234,8.4z M-282.7-40.3c-0.2,0.2-0.5,0.2-0.7,0l-16.2-16.2c-0.2-0.2-0.2-0.5,0-0.7c0.2-0.2,0.5-0.2,0.7,0
					l16.2,16.2C-282.5-40.9-282.5-40.5-282.7-40.3z"/>
			</g>
			<g id="path119486_00000026160079127643285870000013688016331937672104_">
				<path fill="#5AC4D5" d="M-234-56.6l-16.2,16.2c-0.2,0.2-0.5,0.2-0.7,0c-0.2-0.2-0.2-0.5,0-0.7l16.2-16.2c0.2-0.2,0.5-0.2,0.7,0
					C-233.8-57.1-233.8-56.8-234-56.6z M-282.7-7.9l-16.2,16.2c-0.2,0.2-0.5,0.2-0.7,0c-0.2-0.2-0.2-0.5,0-0.7l16.2-16.2
					c0.2-0.2,0.5-0.2,0.7,0C-282.5-8.4-282.5-8.1-282.7-7.9z"/>
			</g>
		</g>
		
			<g id="g119492_00000036957485522022298640000012082051263870074786_" transform="rotate(45,949.90623,-392.0749)" inkscape:path-effect="#path-effect119508">
			<g id="path119490_00000019664881817779008660000005521805825893527466_">
				<path fill="#5AC4D5" d="M480.3,789.6l-3.5,2c-2.4-4.2-5.9-7.6-10-10l2-3.5C473.6,780.8,477.5,784.8,480.3,789.6z M480.3,821
					c-2.8,4.8-6.7,8.8-11.5,11.5l-2-3.5c4.2-2.4,7.6-5.9,10-10L480.3,821z M439.3,781.5c-4.2,2.4-7.6,5.9-10,10l-3.5-2
					c2.8-4.8,6.7-8.8,11.5-11.5L439.3,781.5z M439.3,829.1l-2,3.5c-4.8-2.8-8.8-6.7-11.5-11.5l3.5-2
					C431.7,823.2,435.2,826.7,439.3,829.1z"/>
			</g>
		</g>
		<g id="circle119494_00000000189551287614839840000003112433861031618959_">
			<path fill="#5AC4D5" d="M-218.7,132.6c-7.8,7.8-18.3,12.2-29.3,12.2c-22.9,0-41.5-18.6-41.5-41.5c0-11.1,4.3-21.5,12.2-29.3
				c7.8-7.8,18.3-12.2,29.3-12.2l0,0c0,0,0,0,0,0c11.1,0,21.5,4.3,29.3,12.2s12.2,18.3,12.2,29.3
				C-206.6,114.4-210.9,124.8-218.7,132.6z M-276,75.3c-7.5,7.5-11.6,17.4-11.6,27.9c0,21.8,17.7,39.5,39.5,39.5
				c10.6,0,20.5-4.1,27.9-11.6c7.5-7.5,11.6-17.4,11.6-27.9c0-10.6-4.1-20.5-11.6-27.9c-7.5-7.5-17.4-11.6-27.9-11.6l0,0
				C-258.6,63.8-268.6,67.9-276,75.3z"/>
		</g>
		
			<g id="g119500_00000163761900701822652270000007294030753285003955_" transform="matrix(0.44209471,0.44209471,-0.44209471,0.44209471,356.62348,-638.68918)" inkscape:path-effect="#path-effect119516">
			<g id="path119498_00000132073609445710369790000014839005212554748043_">
				<path fill="#5AC4D5" d="M183.9,1539.6c-2.9,5-7.1,9.2-12.1,12.1l-1.6-2.8c4.5-2.6,8.3-6.4,10.9-10.9L183.9,1539.6z
					 M183.9,1506.5l-2.8,1.6c-2.6-4.5-6.4-8.3-10.9-10.9l1.6-2.8C176.8,1497.3,181,1501.5,183.9,1506.5z M140.3,1497.2
					c-4.5,2.6-8.3,6.4-10.9,10.9l-2.8-1.6c2.9-5,7.1-9.2,12.1-12.1L140.3,1497.2z M140.3,1549l-1.6,2.8c-5-2.9-9.2-7.1-12.1-12.1
					l2.8-1.6C131.9,1542.6,135.7,1546.3,140.3,1549z"/>
			</g>
			<g id="path119556_00000003808028034518442070000016422566722778515114_">
				<path fill="#5AC4D5" d="M189.7,1503.1l-2.8,1.6c-3.2-5.6-7.8-10.2-13.4-13.4l1.6-2.8C181.2,1492.1,186.2,1497.1,189.7,1503.1z
					 M189.7,1543c-3.5,6-8.5,11.1-14.6,14.6l-1.6-2.8c5.6-3.2,10.2-7.9,13.4-13.4L189.7,1543z M136.9,1491.3
					c-5.6,3.2-10.2,7.9-13.4,13.4l-2.8-1.6c3.5-6,8.5-11.1,14.6-14.6L136.9,1491.3z M136.9,1554.8l-1.6,2.8
					c-6-3.5-11.1-8.5-14.6-14.6l2.8-1.6C126.7,1547,131.3,1551.6,136.9,1554.8z"/>
			</g>
		</g>
		<g id="circle119502_00000036973173614751444610000016063217834456513159_">
			<path fill="#38797F" d="M-221.5,129.9c-6.8,6.8-16.2,11.1-26.6,11.1c-20.8,0-37.7-16.9-37.7-37.7s16.9-37.7,37.7-37.7l0,0
				c10.1,0,19.5,3.9,26.6,11c7.1,7.1,11,16.6,11,26.6C-210.4,113.7-214.6,123.1-221.5,129.9z M-274,77.3
				c-6.6,6.6-10.8,15.8-10.8,25.9c0,20.2,16.5,36.7,36.7,36.7c20.2,0,36.7-16.5,36.7-36.7c0-9.8-3.8-19-10.7-25.9
				s-16.1-10.7-25.9-10.7C-258.2,66.6-267.4,70.7-274,77.3z"/>
		</g>
		
			<g id="g119562_00000120536600654892406960000006939357101769040001_" transform="matrix(0,0.62521634,-0.62521634,0,704.77461,-985.97179)" inkscape:path-effect="#path-effect119566">
			<g id="path119558_00000076568879625085127040000005744414942401228723_">
				<path fill="#5AC4D5" d="M1765.6,1500.7c2,2,3.8,4.3,5.3,6.9l-2.8,1.6c-2.6-4.5-6.4-8.3-10.9-10.9l1.6-2.8
					C1761.3,1496.8,1763.6,1498.6,1765.6,1500.7z M1725.6,1495.4l1.6,2.8c-4.5,2.6-8.3,6.4-10.9,10.9l-2.8-1.6
					C1716.4,1502.5,1720.6,1498.3,1725.6,1495.4z M1770.9,1540.6c-2.9,5-7.1,9.2-12.1,12.1l-1.6-2.8c4.5-2.6,8.3-6.4,10.9-10.9
					L1770.9,1540.6z M1716.3,1539c2.6,4.5,6.4,8.3,10.9,10.9l-1.6,2.8c-5-2.9-9.2-7.1-12.1-12.1L1716.3,1539z"/>
			</g>
			<g id="path119560_00000108308076849523245940000013807219907259304842_">
				<path fill="#5AC4D5" d="M1778.4,1487.8c3.2,3.2,5.9,6.7,8.1,10.6l-2.8,1.6c-4.2-7.3-10.3-13.4-17.6-17.6l1.6-2.8
					C1771.7,1481.9,1775.3,1484.7,1778.4,1487.8z M1786.6,1549.7c-4.5,7.8-11,14.3-18.8,18.8l-1.6-2.8c7.3-4.2,13.4-10.3,17.6-17.6
					L1786.6,1549.7z M1716.6,1479.7l1.6,2.8c-7.3,4.2-13.4,10.3-17.6,17.6l-2.8-1.6C1702.3,1490.7,1708.8,1484.2,1716.6,1479.7z
					 M1700.6,1548.1c4.2,7.3,10.3,13.4,17.6,17.6l-1.6,2.8c-7.8-4.5-14.3-11-18.8-18.8L1700.6,1548.1z"/>
			</g>
		</g>
	</g>
</g>
</svg>
