<?xml version="1.0" encoding="utf-8"?>
<!-- Generator: Adobe Illustrator 26.4.1, SVG Export Plug-In . SVG Version: 6.00 Build 0)  -->
<svg version="1.1" xmlns="http://www.w3.org/2000/svg" xmlns:xlink="http://www.w3.org/1999/xlink" x="0px" y="0px" width="100px"
	 height="100px" viewBox="0 0 100 100" enable-background="new 0 0 100 100" xml:space="preserve">
<g id="BACKGROUND">
</g>
<g id="OBJECTS" xmlns:sodipodi="http://sodipodi.sourceforge.net/DTD/sodipodi-0.dtd" xmlns:svg="http://www.w3.org/2000/svg" xmlns:inkscape="http://www.inkscape.org/namespaces/inkscape" inkscape:version="1.2.1 (1:1.2+202205161848+dc2aedaf03)" sodipodi:docname="24 Agustus 2022.svg">
	<g id="g116318_00000056401498506227243240000007531344868326133143_" transform="rotate(45,251.70697,96.165453)">
		<g id="g116300_00000104673301315646063550000003922766064023215011_" transform="translate(18.724083,127.74169)">
			<g id="path116292_00000034049191207936464270000002452630934617629876_">
				<path fill="#5AC4D5" d="M59,124.3c-0.1,0.1-0.2,0.1-0.4,0.1c-0.3,0-0.5-0.2-0.5-0.5l0-23c0-0.3,0.2-0.5,0.5-0.5s0.5,0.2,0.5,0.5
					l0,23C59.1,124.1,59.1,124.2,59,124.3z M59,55.4c-0.1,0.1-0.2,0.1-0.4,0.1c-0.3,0-0.5-0.2-0.5-0.5v-23c0-0.3,0.2-0.5,0.5-0.5
					s0.5,0.2,0.5,0.5v23C59.1,55.2,59.1,55.3,59,55.4z"/>
			</g>
			<g id="path116294_00000010288579176575241620000012341457304064629386_">
				<path fill="#5AC4D5" d="M104.9,78.4c-0.1,0.1-0.2,0.1-0.4,0.1h-23c-0.3,0-0.5-0.2-0.5-0.5c0-0.3,0.2-0.5,0.5-0.5h23
					c0.3,0,0.5,0.2,0.5,0.5C105,78.2,105,78.3,104.9,78.4z M36,78.4c-0.1,0.1-0.2,0.1-0.4,0.1h-23c-0.3,0-0.5-0.2-0.5-0.5
					c0-0.3,0.2-0.5,0.5-0.5h23c0.3,0,0.5,0.2,0.5,0.5C36.2,78.2,36.1,78.3,36,78.4z"/>
			</g>
			<g id="path116296_00000150817011271067381870000016814667478344276894_">
				<path fill="#5AC4D5" d="M91.5,110.8c-0.2,0.2-0.5,0.2-0.7,0L74.5,94.6c-0.2-0.2-0.2-0.5,0-0.7c0.2-0.2,0.5-0.2,0.7,0l16.2,16.2
					C91.6,110.3,91.6,110.6,91.5,110.8z M42.7,62.1c-0.2,0.2-0.5,0.2-0.7,0L25.8,45.9c-0.2-0.2-0.2-0.5,0-0.7c0.2-0.2,0.5-0.2,0.7,0
					l16.2,16.2C42.9,61.6,42.9,61.9,42.7,62.1z"/>
			</g>
			<g id="path116298_00000104688889483189627160000014287886595094659769_">
				<path fill="#5AC4D5" d="M91.5,45.9L75.2,62.1c-0.2,0.2-0.5,0.2-0.7,0c-0.2-0.2-0.2-0.5,0-0.7l16.2-16.2c0.2-0.2,0.5-0.2,0.7,0
					C91.6,45.4,91.6,45.7,91.5,45.9z M42.7,94.6l-16.2,16.2c-0.2,0.2-0.5,0.2-0.7,0c-0.2-0.2-0.2-0.5,0-0.7L42,93.9
					c0.2-0.2,0.5-0.2,0.7,0C42.9,94.1,42.9,94.4,42.7,94.6z"/>
			</g>
		</g>
		<g id="circle116306_00000088101036579559102130000002956721002815061407_">
			<path fill="#5AC4D5" d="M103.1,231.5c-6.9,6.9-16,10.7-25.8,10.7c-9.7,0-18.9-3.8-25.8-10.7c-6.9-6.9-10.7-16-10.7-25.8
				c0-20.1,16.3-36.4,36.4-36.4l0,0c9.7,0,18.9,3.8,25.8,10.7c6.9,6.9,10.7,16,10.7,25.8C113.8,215.5,110,224.6,103.1,231.5z
				 M53,181.4c-6.2,6.2-10.1,14.8-10.1,24.3c0,9.2,3.6,17.8,10.1,24.3c6.5,6.5,15.1,10.1,24.3,10.1s17.8-3.6,24.3-10.1
				c6.5-6.5,10.1-15.1,10.1-24.3c0-9.2-3.6-17.8-10.1-24.3c-6.5-6.5-15.1-10.1-24.3-10.1C67.9,171.3,59.3,175.2,53,181.4z"/>
		</g>
		
			<g id="g116314_00000165216031081453961100000002882198449166376639_" transform="matrix(0.44209471,0.44209471,-0.44209471,0.44209471,356.62348,-638.68918)" inkscape:path-effect="#path-effect116388">
			<g id="path116312_00000089563483370419628200000000317706144940949901_">
				<path fill="#38797F" d="M689.3,1270.9c0,4.4-0.6,8.7-1.7,13l-6.2-1.7c2-7.4,2-15.2,0-22.6l6.2-1.7
					C688.8,1262.2,689.3,1266.5,689.3,1270.9z M652.2,1319.3c-8.5,2.3-17.5,2.3-26,0l1.7-6.2c7.4,2,15.2,2,22.6,0L652.2,1319.3z
					 M652.2,1222.5l-1.7,6.2c-7.4-2-15.2-2-22.6,0l-1.7-6.2C634.7,1220.2,643.7,1220.2,652.2,1222.5z M597,1282.2l-6.2,1.7
					c-2.3-8.5-2.3-17.5,0-26l6.2,1.7C595,1267,595,1274.8,597,1282.2z"/>
			</g>
		</g>
		<g id="circle116316_00000143613712970645675070000003769647555064522140_">
			<path fill="#5AC4D5" d="M94.2,222.6c-4.3,4.3-10.3,7-16.9,7c-13.2,0-23.9-10.7-23.9-23.9c0-13.2,10.7-23.9,23.9-23.9
				c13.2,0,23.9,10.7,23.9,23.9C101.2,212.3,98.5,218.3,94.2,222.6z M61.9,190.3c-4,4-6.4,9.4-6.4,15.4c0,12.1,9.8,21.9,21.9,21.9
				c12.1,0,21.9-9.8,21.9-21.9c0-12.1-9.8-21.9-21.9-21.9C71.3,183.9,65.9,186.3,61.9,190.3z"/>
		</g>
	</g>
</g>
</svg>
