<?xml version="1.0" encoding="utf-8"?>
<!-- Generator: Adobe Illustrator 26.4.1, SVG Export Plug-In . SVG Version: 6.00 Build 0)  -->
<svg version="1.1" xmlns="http://www.w3.org/2000/svg" xmlns:xlink="http://www.w3.org/1999/xlink" x="0px" y="0px" width="100px"
	 height="100px" viewBox="0 0 100 100" enable-background="new 0 0 100 100" xml:space="preserve">
<g id="BACKGROUND">
</g>
<g id="OBJECTS" xmlns:sodipodi="http://sodipodi.sourceforge.net/DTD/sodipodi-0.dtd" xmlns:svg="http://www.w3.org/2000/svg" xmlns:inkscape="http://www.inkscape.org/namespaces/inkscape" inkscape:version="1.2.1 (1:1.2+202205161848+dc2aedaf03)" sodipodi:docname="24 Agustus 2022.svg">
	<g id="g116336_00000165948597629026097290000016951018859500869777_" transform="translate(297.47393,636.70375)">
		<g id="g116324_00000165235385030622650590000010022481988745763755_" transform="translate(18.724083,127.74169)">
			<g id="path116320_00000009555154028660597240000014976021558730994319_">
				<path fill="#5AC4D5" d="M-267.2-667.2c-0.3,0-0.5-0.2-0.5-0.5v-23c0-0.3,0.2-0.5,0.5-0.5s0.5,0.2,0.5,0.5v23
					C-266.7-667.4-266.9-667.2-267.2-667.2z M-267.2-736c-0.3,0-0.5-0.2-0.5-0.5v-23c0-0.3,0.2-0.5,0.5-0.5s0.5,0.2,0.5,0.5v23
					C-266.7-736.3-266.9-736-267.2-736z"/>
			</g>
			<g id="path116322_00000066512904023815579800000010779173762592602016_">
				<path fill="#5AC4D5" d="M-221.3-713.1h-23c-0.3,0-0.5-0.2-0.5-0.5s0.2-0.5,0.5-0.5h23c0.3,0,0.5,0.2,0.5,0.5
					S-221-713.1-221.3-713.1z M-290.2-713.1h-23c-0.3,0-0.5-0.2-0.5-0.5s0.2-0.5,0.5-0.5h23c0.3,0,0.5,0.2,0.5,0.5
					S-289.9-713.1-290.2-713.1z"/>
			</g>
		</g>
		<g id="g116330_00000075857315870772412840000000587252014975450294_" inkscape:path-effect="#path-effect116392">
			<g id="path116328_00000098904189717568453110000007808694975547032247_">
				<path fill="#5AC4D5" d="M-266-549c0,0-0.1,0-0.1,0c-9.3-2.5-16.7-9.8-19.2-19.2c0-0.1,0-0.3,0.1-0.4c0.1-0.1,0.2-0.2,0.3-0.3
					l25.6-6.9c0.2,0,0.4,0,0.5,0.1s0.2,0.3,0.1,0.5l-6.9,25.6C-265.5-549.2-265.8-549-266-549z M-284.1-567.9
					c2.5,8.5,9.2,15.2,17.7,17.7l6.5-24.2L-284.1-567.9z M-230.9-549c-0.2,0-0.5-0.2-0.5-0.4l-6.9-25.6c-0.1-0.2,0-0.4,0.1-0.5
					s0.3-0.2,0.5-0.1l25.6,6.9c0.3,0.1,0.5,0.4,0.4,0.7c-2.5,9.3-9.8,16.7-19.2,19.2C-230.9-549-230.9-549-230.9-549z M-237.1-574.4
					l6.5,24.2c8.5-2.5,15.2-9.2,17.7-17.7L-237.1-574.4z M-259.1-595.9c0,0-0.1,0-0.1,0l-25.6-6.9c-0.1,0-0.3-0.1-0.3-0.3
					c-0.1-0.1-0.1-0.3-0.1-0.4c2.5-9.3,9.8-16.7,19.2-19.2c0.1,0,0.3,0,0.4,0.1c0.1,0.1,0.2,0.2,0.3,0.3l6.9,25.6
					c0.1,0.2,0,0.4-0.1,0.5C-258.8-596-259-595.9-259.1-595.9z M-284.1-603.7l24.2,6.5l-6.5-24.2
					C-274.9-619-281.6-612.3-284.1-603.7z M-237.8-595.9c-0.1,0-0.3-0.1-0.4-0.2c-0.1-0.1-0.2-0.3-0.1-0.5l6.9-25.6
					c0-0.1,0.1-0.3,0.3-0.3c0.1-0.1,0.3-0.1,0.4-0.1c9.3,2.5,16.7,9.8,19.2,19.2c0.1,0.3-0.1,0.6-0.4,0.7l-25.6,6.9
					C-237.7-596-237.8-595.9-237.8-595.9z M-230.6-621.5l-6.5,24.2l24.2-6.5C-215.3-612.3-222-619-230.6-621.5z"/>
			</g>
		</g>
		<g id="circle116332_00000155125808306521312850000017303006791024794789_">
			<path fill="#5AC4D5" d="M-248.5-550.2c-19.7,0-35.7-16-35.7-35.7s16-35.7,35.7-35.7s35.7,16,35.7,35.7S-228.8-550.2-248.5-550.2z
				 M-248.5-619.5c-18.6,0-33.7,15.1-33.7,33.7s15.1,33.7,33.7,33.7s33.7-15.1,33.7-33.7S-229.9-619.5-248.5-619.5z"/>
		</g>
		<g id="circle116334_00000046313677255932555380000014746146880594026938_">
			<path fill="#38797F" d="M-248.5-561.7c-13.3,0-24.2-10.8-24.2-24.2c0-13.3,10.8-24.2,24.2-24.2c13.3,0,24.2,10.8,24.2,24.2
				C-224.3-572.5-235.1-561.7-248.5-561.7z M-248.5-608c-12.2,0-22.2,9.9-22.2,22.2s9.9,22.2,22.2,22.2s22.2-9.9,22.2-22.2
				S-236.2-608-248.5-608z"/>
		</g>
	</g>
</g>
</svg>
