<?xml version="1.0" encoding="utf-8"?>
<!-- Generator: Adobe Illustrator 26.4.1, SVG Export Plug-In . SVG Version: 6.00 Build 0)  -->
<svg version="1.1" xmlns="http://www.w3.org/2000/svg" xmlns:xlink="http://www.w3.org/1999/xlink" x="0px" y="0px" width="100px"
	 height="100px" viewBox="0 0 100 100" enable-background="new 0 0 100 100" xml:space="preserve">
<g id="BACKGROUND">
</g>
<g id="OBJECTS" xmlns:sodipodi="http://sodipodi.sourceforge.net/DTD/sodipodi-0.dtd" xmlns:svg="http://www.w3.org/2000/svg" xmlns:inkscape="http://www.inkscape.org/namespaces/inkscape" inkscape:version="1.2.1 (1:1.2+202205161848+dc2aedaf03)" sodipodi:docname="24 Agustus 2022.svg">
	<g id="g107541_00000080904788464141392500000007710918775025651376_" transform="translate(-172.58727,485.59302)">
		<g id="g107393_00000103958335298845827360000009856911447695812783_" transform="translate(18.724083,127.74169)">
			<g id="path102080_00000119822122492300699910000004720557409805632902_">
				<path fill="#5AC4D5" d="M203.9-516.9c-0.3,0-0.5-0.2-0.5-0.5v-23c0-0.3,0.2-0.5,0.5-0.5s0.5,0.2,0.5,0.5v23
					C204.4-517.1,204.1-516.9,203.9-516.9z M203.9-585.8c-0.3,0-0.5-0.2-0.5-0.5v-23c0-0.3,0.2-0.5,0.5-0.5s0.5,0.2,0.5,0.5v23
					C204.4-586,204.1-585.8,203.9-585.8z"/>
			</g>
			<g id="path107389_00000160164549503326718020000015167525632806660758_">
				<path fill="#5AC4D5" d="M249.8-562.8h-23c-0.3,0-0.5-0.2-0.5-0.5s0.2-0.5,0.5-0.5h23c0.3,0,0.5,0.2,0.5,0.5
					S250.1-562.8,249.8-562.8z M180.9-562.8h-23c-0.3,0-0.5-0.2-0.5-0.5s0.2-0.5,0.5-0.5h23c0.3,0,0.5,0.2,0.5,0.5
					S181.2-562.8,180.9-562.8z"/>
			</g>
		</g>
		<g id="g107454_00000070826617100227192270000017824166608711282063_" inkscape:path-effect="#path-effect107456">
			<g id="path107447_00000005260505984882382860000005540608106997404574_">
				<path fill="#5AC4D5" d="M232.4-398.9l-1-3.9c11.7-3.1,20.9-12.4,24.1-24.1l3.9,1C255.8-412.7,245.5-402.4,232.4-398.9z
					 M212.7-398.9c-13.1-3.5-23.4-13.8-26.9-26.9l3.9-1c3.1,11.7,12.4,20.9,24.1,24.1L212.7-398.9z M255.4-444.4
					c-3.1-11.7-12.4-20.9-24.1-24.1l1-3.9c13.1,3.5,23.4,13.8,26.9,26.9L255.4-444.4z M189.7-444.4l-3.9-1
					c3.5-13.1,13.8-23.4,26.9-26.9l1,3.9C202.1-465.3,192.9-456.1,189.7-444.4z"/>
			</g>
		</g>
		<g id="path107458_00000023272962521788555050000012849862070353722773_">
			<path fill="#38797F" d="M222.6-410.1c-14,0-25.5-11.4-25.5-25.5s11.4-25.5,25.5-25.5s25.5,11.4,25.5,25.5
				S236.6-410.1,222.6-410.1z M222.6-457.1c-11.8,0-21.5,9.6-21.5,21.5c0,11.8,9.6,21.5,21.5,21.5s21.5-9.6,21.5-21.5
				C244-447.4,234.4-457.1,222.6-457.1z"/>
		</g>
		<g id="path107523_00000181080383278971772760000010768650523254256771_">
			<path fill="#5AC4D5" d="M223.9-415.8l-0.4-4.3l1-0.1l0.4,4.3L223.9-415.8z M221.3-415.8l-1-0.1l0.4-4.3l1,0.1L221.3-415.8z
				 M227.4-416.4l-1.2-4.2l1-0.3l1.2,4.2L227.4-416.4z M217.8-416.4l-1-0.3l1.2-4.2l1,0.3L217.8-416.4z M230.7-417.5l-1.9-3.9
				l0.9-0.4l1.9,3.9L230.7-417.5z M214.5-417.5l-0.9-0.4l1.9-3.9l0.9,0.4L214.5-417.5z M211.4-419.3l-0.8-0.6l2.5-3.5l0.8,0.6
				L211.4-419.3z M233.8-419.3l-2.5-3.5l0.8-0.6l2.5,3.5L233.8-419.3z M236.5-421.6l-3.1-3l0.7-0.7l3.1,3L236.5-421.6z M208.6-421.6
				l-0.7-0.7l3.1-3l0.7,0.7L208.6-421.6z M206.3-424.3l-0.6-0.8l3.6-2.4l0.6,0.8L206.3-424.3z M238.8-424.3l-3.6-2.4l0.6-0.8
				l3.6,2.4L238.8-424.3z M240.6-427.4l-4-1.7l0.4-0.9l4,1.7L240.6-427.4z M204.6-427.4l-0.4-0.9l4-1.7l0.4,0.9L204.6-427.4z
				 M203.4-430.7l-0.2-1l4.2-1l0.2,1L203.4-430.7z M241.8-430.7l-4.2-1l0.2-1l4.2,1L241.8-430.7z M242.3-434.2l-4.3-0.2l0-1l4.3,0.2
				L242.3-434.2z M202.8-434.2l0-1l4.3-0.2l0,1L202.8-434.2z M238-437.2l-0.1-1l4.3-0.6l0.1,1L238-437.2z M207.2-437.2l-4.3-0.6
				l0.1-1l4.3,0.6L207.2-437.2z M237.4-439.9l-0.3-1l4.1-1.3l0.3,1L237.4-439.9z M207.7-439.9l-4.1-1.3l0.3-1l4.1,1.3L207.7-439.9z
				 M236.4-442.5l-0.5-0.9l3.8-2.1l0.5,0.9L236.4-442.5z M208.7-442.5l-3.8-2.1l0.5-0.9l3.8,2.1L208.7-442.5z M235-444.8l-0.6-0.8
				l3.4-2.7l0.6,0.8L235-444.8z M210.2-444.8l-3.4-2.7l0.6-0.8l3.4,2.7L210.2-444.8z M233.1-446.9l-0.8-0.7l2.8-3.3l0.8,0.7
				L233.1-446.9z M212-446.9l-2.8-3.3l0.8-0.7l2.8,3.3L212-446.9z M230.9-448.6l-0.9-0.5l2.2-3.7l0.9,0.5L230.9-448.6z M214.2-448.6
				l-2.2-3.7l0.9-0.5l2.2,3.7L214.2-448.6z M228.5-449.9l-0.9-0.4l1.5-4.1l0.9,0.4L228.5-449.9z M216.7-449.9l-1.5-4.1l0.9-0.4
				l1.5,4.1L216.7-449.9z M225.8-450.7l-1-0.2l0.8-4.3l1,0.2L225.8-450.7z M219.3-450.7l-0.8-4.3l1-0.2l0.8,4.3L219.3-450.7z
				 M223.1-451.1h-1v-4.3h1V-451.1z"/>
		</g>
		<g id="path107527_00000181074130343982439010000016479506405195186604_">
			<path fill="#5AC4D5" d="M223.1-403.4h-1v-4.5h1V-403.4z M227.7-403.8l-0.8-4.4l1-0.2l0.8,4.4L227.7-403.8z M217.5-403.8l-1-0.2
				l0.8-4.4l1,0.2L217.5-403.8z M233.1-405.2l-1.5-4.2l0.9-0.3l1.5,4.2L233.1-405.2z M212.1-405.2l-0.9-0.3l1.5-4.2l0.9,0.3
				L212.1-405.2z M238.2-407.5l-2.3-3.9l0.9-0.5l2.3,3.9L238.2-407.5z M207-407.5l-0.9-0.5l2.3-3.9l0.9,0.5L207-407.5z M242.9-410.6
				l-2.9-3.4l0.8-0.6l2.9,3.4L242.9-410.6z M202.3-410.6l-0.8-0.6l2.9-3.4l0.8,0.6L202.3-410.6z M246.9-414.5l-3.4-2.9l0.6-0.8
				l3.4,2.9L246.9-414.5z M198.3-414.5l-0.6-0.8l3.4-2.9l0.6,0.8L198.3-414.5z M250.2-419.1l-3.9-2.3l0.5-0.9l3.9,2.3L250.2-419.1z
				 M195-419.1l-0.5-0.9l3.9-2.3l0.5,0.9L195-419.1z M192.6-424.1l-0.3-0.9l4.2-1.5l0.3,0.9L192.6-424.1z M252.6-424.1l-4.2-1.5
				l0.3-0.9l4.2,1.5L252.6-424.1z M254.2-429.5l-4.4-0.8l0.2-1l4.4,0.8L254.2-429.5z M191-429.5l-0.2-1l4.4-0.8l0.2,1L191-429.5z
				 M254.7-435.1h-4.5v-1h4.5V-435.1z M195-435.1h-4.5v-1h4.5V-435.1z M249.9-439.9l-0.2-1l4.4-0.8l0.2,1L249.9-439.9z M195.3-439.9
				l-4.4-0.8l0.2-1l4.4,0.8L195.3-439.9z M248.7-444.6l-0.3-0.9l4.2-1.5l0.3,0.9L248.7-444.6z M196.4-444.6l-4.2-1.5l0.3-0.9
				l4.2,1.5L196.4-444.6z M246.8-449l-0.5-0.9l3.9-2.3l0.5,0.9L246.8-449z M198.4-449l-3.9-2.3l0.5-0.9l3.9,2.3L198.4-449z
				 M244.1-453l-0.6-0.8l3.4-2.9l0.6,0.8L244.1-453z M201.1-453l-3.4-2.9l0.6-0.8l3.4,2.9L201.1-453z M240.7-456.4l-0.8-0.6l2.9-3.4
				l0.8,0.6L240.7-456.4z M204.4-456.4l-2.9-3.4l0.8-0.6l2.9,3.4L204.4-456.4z M236.8-459.3l-0.9-0.5l2.3-3.9l0.9,0.5L236.8-459.3z
				 M208.3-459.3l-2.3-3.9l0.9-0.5l2.3,3.9L208.3-459.3z M232.5-461.4l-0.9-0.3l1.5-4.2l0.9,0.3L232.5-461.4z M212.7-461.4l-1.5-4.2
				l0.9-0.3l1.5,4.2L212.7-461.4z M227.9-462.7l-1-0.2l0.8-4.4l1,0.2L227.9-462.7z M217.3-462.7l-0.8-4.4l1-0.2l0.8,4.4L217.3-462.7
				z M223.1-463.2h-1v-4.5h1V-463.2z"/>
		</g>
	</g>
</g>
</svg>
