<?xml version="1.0" encoding="utf-8"?>
<!-- Generator: Adobe Illustrator 26.4.1, SVG Export Plug-In . SVG Version: 6.00 Build 0)  -->
<svg version="1.1" xmlns="http://www.w3.org/2000/svg" xmlns:xlink="http://www.w3.org/1999/xlink" x="0px" y="0px" width="100px"
	 height="100px" viewBox="0 0 100 100" enable-background="new 0 0 100 100" xml:space="preserve">
<g id="BACKGROUND">
</g>
<g id="OBJECTS" xmlns:sodipodi="http://sodipodi.sourceforge.net/DTD/sodipodi-0.dtd" xmlns:svg="http://www.w3.org/2000/svg" xmlns:inkscape="http://www.inkscape.org/namespaces/inkscape" inkscape:version="1.2.1 (1:1.2+202205161848+dc2aedaf03)" sodipodi:docname="24 Agustus 2022.svg">
	<g id="g108018_00000162353365285761686450000015215181925886790041_" transform="translate(297.47393,485.59302)">
		<g id="g108006_00000045611888697696789440000012921441681850953120_" transform="translate(18.724083,127.74169)">
			<g id="path108002_00000055667380240759500310000017687909882266912951_">
				<path fill="#5AC4D5" d="M-266.2-516.9c-0.3,0-0.5-0.2-0.5-0.5v-23c0-0.3,0.2-0.5,0.5-0.5s0.5,0.2,0.5,0.5v23
					C-265.7-517.1-265.9-516.9-266.2-516.9z M-266.2-585.8c-0.3,0-0.5-0.2-0.5-0.5v-23c0-0.3,0.2-0.5,0.5-0.5s0.5,0.2,0.5,0.5v23
					C-265.7-586-265.9-585.8-266.2-585.8z"/>
			</g>
			<g id="path108004_00000105388465121617660790000000464868716910475139_">
				<path fill="#5AC4D5" d="M-220.3-562.8h-23c-0.3,0-0.5-0.2-0.5-0.5s0.2-0.5,0.5-0.5h23c0.3,0,0.5,0.2,0.5,0.5
					S-220-562.8-220.3-562.8z M-289.2-562.8h-23c-0.3,0-0.5-0.2-0.5-0.5s0.2-0.5,0.5-0.5h23c0.3,0,0.5,0.2,0.5,0.5
					S-288.9-562.8-289.2-562.8z"/>
			</g>
		</g>
		<g id="g108010_00000134213469836211661900000002715824651989492880_" inkscape:path-effect="#path-effect108022">
			<g id="path108008_00000040571661286788144790000017313462926732957346_">
				<path fill="#5AC4D5" d="M-236.7-394.5c-0.2,0-0.3,0-0.5-0.1c-0.2-0.1-0.4-0.4-0.5-0.6l-5.4-20.1l1.9-0.5l5.1,19.1
					c13.2-3.9,23.5-14.3,27.4-27.4l-19.1-5.1l0.5-1.9l20.1,5.4c0.3,0.1,0.5,0.2,0.6,0.5s0.2,0.5,0.1,0.8
					c-3.9,14.6-15.4,26.2-30.1,30.1C-236.6-394.5-236.6-394.5-236.7-394.5z M-258.2-394.5c-0.1,0-0.2,0-0.3,0
					c-14.6-3.9-26.2-15.4-30.1-30.1c-0.1-0.5,0.2-1.1,0.7-1.2l20.1-5.4l0.5,1.9l-19.1,5.1c3.9,13.2,14.3,23.5,27.4,27.4l5.1-19.1
					l1.9,0.5l-5.4,20.1C-257.4-394.8-257.8-394.5-258.2-394.5z M-227.2-440l-0.5-1.9l19.1-5.1c-3.9-13.2-14.3-23.5-27.4-27.4
					l-5.1,19.1l-1.9-0.5l5.4-20.1c0.1-0.3,0.2-0.5,0.5-0.6s0.5-0.2,0.8-0.1c14.6,3.9,26.2,15.4,30.1,30.1c0.1,0.3,0,0.5-0.1,0.8
					s-0.4,0.4-0.6,0.5L-227.2-440z M-267.8-440l-20.1-5.4c-0.5-0.1-0.8-0.7-0.7-1.2c3.9-14.6,15.4-26.2,30.1-30.1
					c0.3-0.1,0.5,0,0.8,0.1c0.2,0.1,0.4,0.4,0.5,0.6l5.4,20.1l-1.9,0.5l-5.1-19.1c-13.2,3.9-23.5,14.3-27.4,27.4l19.1,5.1
					L-267.8-440z"/>
			</g>
			<g id="path116231_00000178200472284945686800000012833528000640234675_">
				<path fill="#5AC4D5" d="M-235.4-410c-0.2,0-0.5-0.2-0.5-0.4l-4.8-17.7c-0.1-0.2,0-0.4,0.1-0.5s0.3-0.2,0.5-0.1l17.7,4.8
					c0.3,0.1,0.5,0.4,0.4,0.7c-1.7,6.5-6.9,11.6-13.4,13.4C-235.3-410-235.3-410-235.4-410z M-239.3-427.5l4.4,16.3
					c5.7-1.7,10.2-6.2,11.9-11.9L-239.3-427.5z M-259.6-410c0,0-0.1,0-0.1,0c-6.5-1.7-11.6-6.9-13.4-13.4c0-0.1,0-0.3,0.1-0.4
					c0.1-0.1,0.2-0.2,0.3-0.3l17.7-4.8c0.2-0.1,0.4,0,0.5,0.1s0.2,0.3,0.1,0.5l-4.8,17.7C-259.1-410.1-259.3-410-259.6-410z
					 M-271.9-423.1c1.7,5.7,6.2,10.2,11.9,11.9l4.4-16.3L-271.9-423.1z M-240.1-442.4c-0.1,0-0.3-0.1-0.4-0.2
					c-0.1-0.1-0.2-0.3-0.1-0.5l4.8-17.7c0.1-0.3,0.4-0.5,0.7-0.4c6.5,1.7,11.6,6.9,13.4,13.4c0.1,0.3-0.1,0.6-0.4,0.7l-17.7,4.8
					C-240-442.4-240.1-442.4-240.1-442.4z M-235-460l-4.4,16.3l16.3-4.4C-224.8-453.8-229.3-458.3-235-460z M-254.8-442.4
					c0,0-0.1,0-0.1,0l-17.7-4.8c-0.1,0-0.3-0.1-0.3-0.3c-0.1-0.1-0.1-0.3-0.1-0.4c1.7-6.5,6.9-11.6,13.4-13.4
					c0.3-0.1,0.6,0.1,0.7,0.4l4.8,17.7c0.1,0.2,0,0.4-0.1,0.5C-254.6-442.5-254.7-442.4-254.8-442.4z M-271.9-448.1l16.3,4.4
					L-260-460C-265.7-458.3-270.2-453.8-271.9-448.1z"/>
			</g>
		</g>
		<g id="circle108012_00000093895993749505180620000004450731705040259519_">
			<path fill="#5AC4D5" d="M-247.5-399.9c-19.7,0-35.7-16-35.7-35.7s16-35.7,35.7-35.7s35.7,16,35.7,35.7S-227.8-399.9-247.5-399.9z
				 M-247.5-469.3c-18.6,0-33.7,15.1-33.7,33.7s15.1,33.7,33.7,33.7s33.7-15.1,33.7-33.7S-228.9-469.3-247.5-469.3z"/>
		</g>
		<g id="circle116234_00000056419103193099500620000015581441298896030344_">
			<path fill="#38797F" d="M-247.5-413.3c-12.3,0-22.3-10-22.3-22.3s10-22.3,22.3-22.3c12.3,0,22.3,10,22.3,22.3
				S-235.2-413.3-247.5-413.3z M-247.5-455.9c-11.2,0-20.3,9.1-20.3,20.3c0,11.2,9.1,20.3,20.3,20.3s20.3-9.1,20.3-20.3
				C-227.1-446.8-236.3-455.9-247.5-455.9z"/>
		</g>
	</g>
</g>
</svg>
