<?xml version="1.0" encoding="utf-8"?>
<!-- Generator: Adobe Illustrator 26.4.1, SVG Export Plug-In . SVG Version: 6.00 Build 0)  -->
<svg version="1.1" xmlns="http://www.w3.org/2000/svg" xmlns:xlink="http://www.w3.org/1999/xlink" x="0px" y="0px" width="100px"
	 height="100px" viewBox="0 0 100 100" enable-background="new 0 0 100 100" xml:space="preserve">
<g id="BACKGROUND">
</g>
<g id="OBJECTS" xmlns:sodipodi="http://sodipodi.sourceforge.net/DTD/sodipodi-0.dtd" xmlns:svg="http://www.w3.org/2000/svg" xmlns:inkscape="http://www.inkscape.org/namespaces/inkscape" inkscape:version="1.2.1 (1:1.2+202205161848+dc2aedaf03)" sodipodi:docname="24 Agustus 2022.svg">
	<g id="g116476_00000102515723961876020460000009183464929366297481_" transform="rotate(45,69.300172,171.72083)">
		<g id="g116458_00000053534515200737134910000003315489562516306065_" transform="translate(18.724083,127.74169)">
			<g id="path116450_00000093892522320284765770000017513627216736306323_">
				<path fill="#5AC4D5" d="M-47.7,18.3c-0.1,0.1-0.2,0.1-0.4,0.1c-0.3,0-0.5-0.2-0.5-0.5l0-23c0-0.3,0.2-0.5,0.5-0.5
					s0.5,0.2,0.5,0.5l0,23C-47.6,18.1-47.6,18.2-47.7,18.3z M-47.7-50.6c-0.1,0.1-0.2,0.1-0.4,0.1c-0.3,0-0.5-0.2-0.5-0.5v-23
					c0-0.3,0.2-0.5,0.5-0.5s0.5,0.2,0.5,0.5v23C-47.6-50.8-47.6-50.7-47.7-50.6z"/>
			</g>
			<g id="path116452_00000016757984239995789240000011080565926299725208_">
				<path fill="#5AC4D5" d="M-1.8-27.6c-0.1,0.1-0.2,0.1-0.4,0.1l-23,0c-0.3,0-0.5-0.2-0.5-0.5s0.2-0.5,0.5-0.5l23,0
					c0.3,0,0.5,0.2,0.5,0.5C-1.6-27.8-1.7-27.7-1.8-27.6z M-70.7-27.6c-0.1,0.1-0.2,0.1-0.4,0.1h-23c-0.3,0-0.5-0.2-0.5-0.5
					c0-0.3,0.2-0.5,0.5-0.5h23c0.3,0,0.5,0.2,0.5,0.5C-70.5-27.8-70.6-27.7-70.7-27.6z"/>
			</g>
			<g id="path116454_00000036215615637808620550000014756150826078130097_">
				<path fill="#5AC4D5" d="M-15.2,4.9c-0.2,0.2-0.5,0.2-0.7,0l-16.2-16.2c-0.2-0.2-0.2-0.5,0-0.7c0.2-0.2,0.5-0.2,0.7,0l16.2,16.2
					C-15,4.4-15,4.7-15.2,4.9z M-63.9-43.8c-0.2,0.2-0.5,0.2-0.7,0l-16.2-16.2c-0.2-0.2-0.2-0.5,0-0.7c0.2-0.2,0.5-0.2,0.7,0
					l16.2,16.2C-63.7-44.4-63.7-44-63.9-43.8z"/>
			</g>
			<g id="path116456_00000028326492328269364080000007619062024147400072_">
				<path fill="#5AC4D5" d="M-15.2-60.1l-16.2,16.2c-0.2,0.2-0.5,0.2-0.7,0c-0.2-0.2-0.2-0.5,0-0.7l16.2-16.2c0.2-0.2,0.5-0.2,0.7,0
					C-15-60.6-15-60.3-15.2-60.1z M-63.9-11.4L-80.2,4.9c-0.2,0.2-0.5,0.2-0.7,0c-0.2-0.2-0.2-0.5,0-0.7l16.2-16.2
					c0.2-0.2,0.5-0.2,0.7,0C-63.7-11.9-63.7-11.6-63.9-11.4z"/>
			</g>
		</g>
		<g id="g116462_00000117635440530916503280000004727829740062991024_" inkscape:path-effect="#path-effect116534">
			<g id="path116460_00000013890376453936275640000012322922646059458999_">
				<path fill="#5AC4D5" d="M3.6,132.7c-2.9,2.9-6.1,5.4-9.6,7.4l-2-3.5c6.5-3.7,11.8-9.1,15.6-15.6l3.5,2
					C9,126.6,6.5,129.8,3.6,132.7z M11,76.5l-3.5,2C3.8,72-1.6,66.7-8,62.9l2-3.5C1,63.5,6.9,69.4,11,76.5z M-52.6,140.1
					c-7.1-4.1-13-10-17-17l3.5-2c3.7,6.5,9.1,11.8,15.6,15.6L-52.6,140.1z M-50.6,62.9c-6.5,3.7-11.8,9.1-15.6,15.6l-3.5-2
					c4.1-7.1,10-13,17-17L-50.6,62.9z"/>
			</g>
		</g>
		<g id="path116466_00000084512100062607983540000016798493451682286475_">
			<path fill="#5AC4D5" d="M-15.5,113.4l-3.1-2.9l0.3-0.4l3.1,2.9L-15.5,113.4z M-17.7,115.4l-0.4,0.3l-2.5-3.4l0.4-0.3L-17.7,115.4
				z M-13.2,110.7l-3.5-2.3l0.3-0.4l3.5,2.3L-13.2,110.7z M-20.7,117.2l-0.5,0.2l-1.8-3.8l0.5-0.2L-20.7,117.2z M-11.6,107.7
				l-3.9-1.7l0.2-0.5l3.9,1.7L-11.6,107.7z M-23.9,118.5l-0.5,0.1l-1.1-4.1l0.5-0.1L-23.9,118.5z M-10.4,104.4l-4.1-0.9l0.1-0.5
				l4.1,0.9L-10.4,104.4z M-27.3,119.1l-0.5,0l-0.4-4.2l0.5,0L-27.3,119.1z M-9.9,100.9l-4.2-0.2l0-0.5l4.2,0.2L-9.9,100.9z
				 M-30.8,119.2l-0.5,0l0.4-4.2l0.5,0L-30.8,119.2z M-10,97.4l-4.2,0.6l-0.1-0.5l4.2-0.6L-10,97.4z M-34.3,118.6l-0.5-0.1l1.1-4.1
				l0.5,0.1L-34.3,118.6z M-10.8,94l-4,1.3l-0.2-0.5l4-1.3L-10.8,94z M-37.5,117.4l-0.5-0.2l1.8-3.8l0.5,0.2L-37.5,117.4z
				 M-12.1,90.8l-3.7,2l-0.2-0.4l3.7-2L-12.1,90.8z M-40.5,115.7l-0.4-0.3l2.5-3.4l0.4,0.3L-40.5,115.7z M-14,87.9l-3.3,2.6
				l-0.3-0.4l3.3-2.6L-14,87.9z M-40.1,110.5l-3.1,2.9l-0.3-0.4l3.1-2.9L-40.1,110.5z M-19.1,88.5l-0.4-0.3l2.8-3.2l0.4,0.3
				L-19.1,88.5z M-41.9,108.4l-3.5,2.3l-0.3-0.4l3.5-2.3L-41.9,108.4z M-21.3,86.9l-0.4-0.3l2.2-3.6l0.4,0.3L-21.3,86.9z M-43.2,106
				l-3.9,1.7l-0.2-0.5l3.9-1.7L-43.2,106z M-23.8,85.7l-0.5-0.2l1.5-4l0.5,0.2L-23.8,85.7z M-44.1,103.4l-4.1,0.9l-0.1-0.5l4.1-0.9
				L-44.1,103.4z M-26.4,84.9l-0.5-0.1l0.8-4.2l0.5,0.1L-26.4,84.9z M-44.5,100.7l-4.2,0.2l0-0.5l4.2-0.2L-44.5,100.7z M-29.1,84.6
				h-0.5v-4.3h0.5V84.6z M-44.4,98l-4.2-0.6l0.1-0.5l4.2,0.6L-44.4,98z M-31.8,84.8l-0.5,0.1l-0.8-4.2l0.5-0.1L-31.8,84.8z
				 M-43.8,95.3l-4-1.3l0.2-0.5l4,1.3L-43.8,95.3z M-34.4,85.5l-0.5,0.2l-1.5-4l0.5-0.2L-34.4,85.5z M-42.8,92.8l-3.7-2l0.2-0.4
				l3.7,2L-42.8,92.8z M-36.9,86.6l-0.4,0.3l-2.2-3.6l0.4-0.3L-36.9,86.6z M-41.4,90.5l-3.3-2.6l0.3-0.4l3.3,2.6L-41.4,90.5z
				 M-39.1,88.2l-0.4,0.3l-2.8-3.2l0.4-0.3L-39.1,88.2z"/>
		</g>
		<g id="path116468_00000054256891654348130770000015848572649526827167_">
			<path fill="#5AC4D5" d="M-3.4,125.1l-0.7,0.7l-3.6-3.6l0.7-0.7L-3.4,125.1z M-0.3,121.5l-4.1-3l0.6-0.8l4.1,3L-0.3,121.5z
				 M-7.6,128.8l-0.8,0.6l-3-4.1l0.8-0.6L-7.6,128.8z M2.7,116.7l-4.5-2.3l0.5-0.9l4.5,2.3L2.7,116.7z M-12.4,131.8l-0.9,0.5
				l-2.3-4.5l0.9-0.5L-12.4,131.8z M-17.7,134.1l-1,0.3l-1.6-4.8l1-0.3L-17.7,134.1z M5,111.5l-4.8-1.6l0.3-1l4.8,1.6L5,111.5z
				 M6.4,106l-5-0.8l0.2-1l5,0.8L6.4,106z M-23.2,135.5l-1,0.2l-0.8-5l1-0.2L-23.2,135.5z M6.9,100.3H1.8v-1h5.1V100.3z M-28.8,136
				h-1v-5.1h1V136z M6.5,94.6l-5,0.8l-0.2-1l5-0.8L6.5,94.6z M-34.5,135.7l-1-0.2l0.8-5l1,0.2L-34.5,135.7z M5.3,89.1l-4.8,1.6
				l-0.3-1L5,88.1L5.3,89.1z M-40,134.4l-1-0.3l1.6-4.8l1,0.3L-40,134.4z M-45.3,132.3l-0.9-0.5l2.3-4.5l0.9,0.5L-45.3,132.3z
				 M3.2,83.8l-4.5,2.3l-0.5-0.9l4.5-2.3L3.2,83.8z M0.3,78.9l-4.1,3l-0.6-0.8l4.1-3L0.3,78.9z M-50.2,129.4l-0.8-0.6l3-4.1l0.8,0.6
				L-50.2,129.4z M-3.4,74.5l-3.6,3.6l-0.7-0.7l3.6-3.6L-3.4,74.5z M-51,122.2l-3.6,3.6l-0.7-0.7l3.6-3.6L-51,122.2z M-10.6,74.9
				l-0.8-0.6l3-4.1l0.8,0.6L-10.6,74.9z M-54.2,118.5l-4.1,3l-0.6-0.8l4.1-3L-54.2,118.5z M-56.9,114.4l-4.5,2.3l-0.5-0.9l4.5-2.3
				L-56.9,114.4z M-14.7,72.3l-0.9-0.5l2.3-4.5l0.9,0.5L-14.7,72.3z M-19.2,70.3l-1-0.3l1.6-4.8l1,0.3L-19.2,70.3z M-58.8,109.9
				l-4.8,1.6l-0.3-1l4.8-1.6L-58.8,109.9z M-24,69.1l-1-0.2l0.8-5l1,0.2L-24,69.1z M-60,105.2l-5,0.8l-0.2-1l5-0.8L-60,105.2z
				 M-28.8,68.6h-1v-5.1h1V68.6z M-60.5,100.3h-5.1v-1h5.1V100.3z M-33.7,68.9l-1,0.2l-0.8-5l1-0.2L-33.7,68.9z M-60.2,95.4l-5-0.8
				l0.2-1l5,0.8L-60.2,95.4z M-59.1,90.6l-4.8-1.6l0.3-1l4.8,1.6L-59.1,90.6z M-38.5,70l-1,0.3l-1.6-4.8l1-0.3L-38.5,70z M-43,71.8
				l-0.9,0.5l-2.3-4.5l0.9-0.5L-43,71.8z M-57.3,86.1l-4.5-2.3l0.5-0.9l4.5,2.3L-57.3,86.1z M-47.2,74.3l-0.8,0.6l-3-4.1l0.8-0.6
				L-47.2,74.3z M-54.8,81.9l-4.1-3l0.6-0.8l4.1,3L-54.8,81.9z M-51,77.4l-0.7,0.7l-3.6-3.6l0.7-0.7L-51,77.4z"/>
		</g>
		<g id="circle116474_00000014624596026503677700000008041417166868600730_">
			<path fill="#38797F" d="M-12.5,116.6c-4.3,4.3-10.3,7-16.9,7c-6.4,0-12.4-2.5-16.9-7c-4.5-4.5-7-10.5-7-16.9
				c0-13.2,10.7-23.9,23.9-23.9l0,0c0,0,0,0,0,0c6.4,0,12.4,2.5,16.9,7s7,10.5,7,16.9C-5.5,106.4-8.1,112.3-12.5,116.6z M-44.8,84.3
				c-4,4-6.4,9.4-6.4,15.4c0,5.8,2.3,11.3,6.4,15.5c4.1,4.1,9.6,6.4,15.5,6.4c12.1,0,21.9-9.8,21.9-21.9c0-5.8-2.3-11.3-6.4-15.5
				c-4.1-4.1-9.6-6.4-15.5-6.4l0,0C-35.4,77.9-40.8,80.4-44.8,84.3z"/>
		</g>
		
			<g id="g117942_00000006708180158770761940000002289490546262924177_" transform="rotate(45,949.90623,-392.0749)" inkscape:path-effect="#path-effect117946">
			<g id="path117940_00000119118042061772337820000015730005086796609925_">
				<path fill="#5AC4D5" d="M645.6,624.9l-3.5,2c-3.7-6.5-9.1-11.8-15.6-15.6l2-3.5C635.6,611.9,641.5,617.8,645.6,624.9z
					 M645.6,671.4c-4.1,7.1-10,13-17,17l-2-3.5c6.5-3.7,11.8-9.1,15.6-15.6L645.6,671.4z M584,685l-2,3.5c-7.1-4.1-13-10-17-17
					l3.5-2C572.1,675.9,577.5,681.3,584,685z M584,611.3c-6.5,3.7-11.8,9.1-15.6,15.6l-3.5-2c4.1-7.1,10-13,17-17L584,611.3z"/>
			</g>
		</g>
	</g>
</g>
</svg>
