<?xml version="1.0" encoding="utf-8"?>
<!-- Generator: Adobe Illustrator 26.4.1, SVG Export Plug-In . SVG Version: 6.00 Build 0)  -->
<svg version="1.1" xmlns="http://www.w3.org/2000/svg" xmlns:xlink="http://www.w3.org/1999/xlink" x="0px" y="0px" width="500px"
	 height="500px" viewBox="0 0 500 500" style="enable-background:new 0 0 500 500;" xml:space="preserve">
<style type="text/css">
	.st0{fill:#FFFFFF;enable-background:new    ;}
	.st1{fill:none;stroke:#5AC4D5;stroke-linecap:round;stroke-linejoin:round;stroke-miterlimit:3;}
	.st2{fill:none;stroke:#5AC4D5;stroke-width:4;stroke-linejoin:round;stroke-miterlimit:3;}
	.st3{fill:none;stroke:#38797F;stroke-width:4;stroke-linejoin:round;stroke-miterlimit:3;}
	.st4{fill:none;stroke:#5AC4D5;stroke-linejoin:round;stroke-miterlimit:3;}
	.st5{fill:none;stroke:#5AC4D5;stroke-linejoin:round;stroke-miterlimit:4.5538;}
	.st6{fill:none;stroke:#5AC4D5;stroke-linejoin:round;stroke-miterlimit:3.2401;}
	.st7{fill:none;stroke:#5AC4D5;stroke-width:0.5;stroke-linejoin:round;stroke-miterlimit:4.4605;}
	.st8{fill:none;stroke:#5AC4D5;stroke-linejoin:round;stroke-miterlimit:1.8933;}
	.st9{fill:none;stroke:#38797F;stroke-linejoin:round;stroke-miterlimit:3;}
	.st10{fill:none;stroke:#5AC4D5;stroke-width:4;stroke-linejoin:round;stroke-miterlimit:2.1328;}
	.st11{fill:none;stroke:#5AC4D5;stroke-width:2;stroke-linejoin:round;stroke-miterlimit:3;}
	.st12{fill:none;stroke:#5AC4D5;stroke-width:0.5;stroke-linejoin:round;stroke-miterlimit:3.3891;}
	.st13{fill:none;stroke:#5AC4D5;stroke-linejoin:round;stroke-miterlimit:5.3927;}
	.st14{fill:none;stroke:#5AC4D5;stroke-width:4;stroke-linejoin:round;stroke-miterlimit:1.8757;}
	.st15{fill:none;stroke:#38797F;stroke-width:2;stroke-linejoin:round;stroke-miterlimit:3;}
	.st16{fill:none;stroke:#5AC4D5;stroke-width:1.0807;stroke-linejoin:round;stroke-miterlimit:3;}
	.st17{fill:none;stroke:#5AC4D5;stroke-linecap:round;stroke-linejoin:round;stroke-miterlimit:3;stroke-dasharray:1,3;}
	.st18{fill:none;stroke:#38797F;stroke-width:4;stroke-linejoin:round;stroke-miterlimit:1.8757;}
	.st19{fill:none;stroke:#5AC4D5;stroke-width:1;stroke-linejoin:round;stroke-miterlimit:3;}
	.st20{fill:none;stroke:#5AC4D5;stroke-linejoin:round;stroke-miterlimit:3.9577;}
	.st21{fill:none;stroke:#5AC4D5;stroke-linejoin:round;stroke-miterlimit:4.4827;}
	.st22{fill:none;stroke:#38797F;stroke-width:1;stroke-linejoin:round;stroke-miterlimit:3;}
	.st23{fill:none;stroke:#5AC4D5;stroke-width:0.5;stroke-linejoin:round;stroke-miterlimit:2.9468;}
	.st24{fill:none;stroke:#5AC4D5;stroke-linejoin:round;stroke-miterlimit:5.1333;}
	.st25{fill:none;stroke:#5AC4D5;stroke-linejoin:round;stroke-miterlimit:3.011;}
	.st26{fill:none;stroke:#5AC4D5;stroke-linejoin:round;stroke-miterlimit:5.1782;}
	.st27{fill:none;stroke:#38797F;stroke-width:6;stroke-linejoin:round;stroke-miterlimit:3;}
	.st28{fill:none;stroke:#5AC4D5;stroke-linejoin:round;stroke-miterlimit:2.9282;}
	.st29{fill:none;stroke:#5AC4D5;stroke-width:0.5;stroke-linejoin:round;stroke-miterlimit:4.0478;}
	.st30{fill:none;stroke:#5AC4D5;stroke-width:2;stroke-linejoin:round;stroke-miterlimit:1.8757;}
	.st31{fill:#38797F;}
	.st32{fill:none;stroke:#5AC4D5;stroke-width:0.5;stroke-linejoin:round;stroke-miterlimit:4.5042;}
</style>
<g id="BACKGROUND">
	<g id="layer2_00000089554219883375036540000004885116036433124224_">
		<rect id="Hal_1_00000177479166020071053360000001833907439865222824_" class="st0" width="500" height="500"/>
	</g>
</g>
<g id="OBJECTS" xmlns:inkscape="http://www.inkscape.org/namespaces/inkscape" xmlns:svg="http://www.w3.org/2000/svg" xmlns:sodipodi="http://sodipodi.sourceforge.net/DTD/sodipodi-0.dtd" inkscape:version="1.2.1 (1:1.2+202205161848+dc2aedaf03)" sodipodi:docname="24 Agustus 2022.svg">
	<g id="g119775" transform="translate(-2.3521032,13.21823)">
		<g id="g107541" transform="translate(-172.58727,485.59302)">
			<g id="g107393" transform="translate(18.724083,127.74169)">
				<path id="path102080" sodipodi:nodetypes="cccc" class="st1" d="M234.9-587.7v23 M234.9-518.8v23"/>
				<path id="path107389" sodipodi:nodetypes="cccc" class="st1" d="M280.8-541.7h-23 M212-541.7h-23"/>
			</g>
			<g id="g107454" inkscape:path-effect="#path-effect107456">
				
					<path id="path107447" sodipodi:arc-type="arc" sodipodi:cx="949.90625" sodipodi:cy="-392.07492" sodipodi:end="4.4505896" sodipodi:open="true" sodipodi:rx="49.425484" sodipodi:ry="49.425484" sodipodi:start="3.403392" sodipodi:type="arc" class="st2" d="
					M218.9-423.3c3.3-12.4,13-22.1,25.5-25.5 M244.3-379.2c-12.4-3.3-22.1-13-25.5-25.5 M288.4-404.7c-3.3,12.4-13,22.1-25.5,25.5
					 M263-448.8c12.4,3.3,22.1,13,25.5,25.5"/>
			</g>
			
				<ellipse id="path107458" transform="matrix(0.3827 -0.9239 0.9239 0.3827 539.072 -21.2256)" class="st3" cx="253.7" cy="-414" rx="23.5" ry="23.5"/>
			
				<path id="path107523" inkscape:original-d="m 949.90623,-419.22502 v 5.93672" inkscape:path-effect="#path-effect107525" class="st4" d="
				M253.7-433.8v4.3 M250.1-433.5l0.8,4.3 M246.7-432.5l1.5,4.1 M243.5-431l2.2,3.7 M240.6-428.9l2.8,3.3 M238.2-426.3l3.4,2.7
				 M236.2-423.4l3.8,2.1 M234.8-420.1l4.1,1.3 M234-416.7l4.3,0.6 M233.9-413.1l4.3-0.2 M234.4-409.6l4.2-1 M235.5-406.2l4-1.7
				 M237.1-403.1l3.6-2.4 M239.4-400.3l3.1-3 M242-398l2.5-3.5 M245.1-396.2l1.9-3.9 M248.4-394.9l1.2-4.2 M251.9-394.3l0.4-4.3
				 M255.4-394.3l-0.4-4.3 M258.9-394.9l-1.2-4.2 M262.2-396.2l-1.9-3.9 M265.3-398l-2.5-3.5 M268-400.3l-3.1-3 M270.2-403.1
				l-3.6-2.4 M271.8-406.2l-4-1.7 M272.9-409.6l-4.2-1 M273.4-413.1l-4.3-0.2 M273.3-416.7l-4.3,0.6 M272.5-420.1l-4.1,1.3
				 M271.1-423.4l-3.8,2.1 M269.1-426.3l-3.4,2.7 M266.7-428.9l-2.8,3.3 M263.8-431l-2.2,3.7 M260.6-432.5l-1.5,4.1 M257.2-433.5
				l-0.8,4.3"/>
			
				<path id="path107527" inkscape:original-d="m 949.90623,-421.12733 c 0,0 0,2.39364 0,4.06991" inkscape:path-effect="#path-effect107531" sodipodi:nodetypes="cc" class="st5" d="
				M253.7-446.1v4.5 M248.1-445.6l0.8,4.4 M242.7-444.2l1.5,4.2 M237.6-441.8l2.3,3.9 M233-438.6l2.9,3.4 M229-434.7l3.4,2.9
				 M225.8-430.1l3.9,2.3 M223.5-425l4.2,1.5 M222-419.6l4.4,0.8 M221.5-414h4.5 M222-408.4l4.4-0.8 M223.5-403l4.2-1.5
				 M225.8-397.9l3.9-2.3 M229-393.3l3.4-2.9 M233-389.4l2.9-3.4 M237.6-386.2l2.3-3.9 M242.7-383.8l1.5-4.2 M248.1-382.3l0.8-4.4
				 M253.7-381.9v-4.5 M259.2-382.3l-0.8-4.4 M264.6-383.8l-1.5-4.2 M269.7-386.2l-2.3-3.9 M274.3-389.4l-2.9-3.4 M278.3-393.3
				l-3.4-2.9 M281.5-397.9l-3.9-2.3 M283.9-403l-4.2-1.5 M285.3-408.4l-4.4-0.8 M285.8-414h-4.5 M285.3-419.6l-4.4,0.8 M283.9-425
				l-4.2,1.5 M281.5-430.1l-3.9,2.3 M278.3-434.7l-3.4,2.9 M274.3-438.6l-2.9,3.4 M269.7-441.8l-2.3,3.9 M264.6-444.2l-1.5,4.2
				 M259.2-445.6l-0.8,4.4"/>
		</g>
		<g id="g107958" transform="translate(-15.99346,485.59302)">
			<g id="g107946" transform="translate(18.724083,127.74169)">
				<path id="path107942" sodipodi:nodetypes="cccc" class="st1" d="M192.5-587.7v23 M192.5-518.8v23"/>
				<path id="path107944" sodipodi:nodetypes="cccc" class="st1" d="M238.4-541.7h-23 M169.5-541.7h-23"/>
			</g>
			<g id="g107950" inkscape:path-effect="#path-effect107962">
				
					<path id="path107948" sodipodi:arc-type="arc" sodipodi:cx="949.90625" sodipodi:cy="-392.07492" sodipodi:end="4.9741884" sodipodi:open="true" sodipodi:rx="49.425484" sodipodi:ry="49.425484" sodipodi:start="4.4505896" sodipodi:type="arc" class="st2" d="
					M201.9-448.8c6.1-1.6,12.5-1.6,18.6,0 M176.4-404.7c-1.6-6.1-1.6-12.5,0-18.6 M220.5-379.2c-6.1,1.6-12.5,1.6-18.6,0 M246-423.3
					c1.6,6.1,1.6,12.5,0,18.6"/>
				
					<path id="path115867" sodipodi:arc-type="arc" sodipodi:cx="949.90625" sodipodi:cy="-392.07492" sodipodi:end="4.9741884" sodipodi:open="true" sodipodi:rx="49.425484" sodipodi:ry="49.425484" sodipodi:start="4.4505896" sodipodi:type="arc" class="st2" d="
					M201.9-448.8c6.1-1.6,12.5-1.6,18.6,0 M176.4-404.7c-1.6-6.1-1.6-12.5,0-18.6 M220.5-379.2c-6.1,1.6-12.5,1.6-18.6,0 M246-423.3
					c1.6,6.1,1.6,12.5,0,18.6"/>
			</g>
			<circle id="circle107952" class="st4" cx="211.2" cy="-414" r="28.7"/>
			
				<path id="path107954" inkscape:original-d="m 949.90623,-419.22502 12.93061,20.74138" inkscape:path-effect="#path-effect107966" sodipodi:nodetypes="cc" class="st6" d="
				M211.2-435.4l10.2,16.3 M207.4-435l12.9,14.2 M203.7-434l15.3,11.7 M200.2-432.3l17.1,8.8 M197.1-430.1l18.4,5.6 M194.5-427.3
				l19.1,2.2 M192.4-424.1l19.2-1.2 M190.9-420.6l18.7-4.6 M190-416.9l17.5-7.9 M189.8-413l15.9-10.9 M190.3-409.2l13.7-13.6
				 M191.5-405.6l11-15.8 M193.3-402.2l8-17.5 M195.7-399.2l4.8-18.6 M198.6-396.7l1.4-19.2 M201.9-394.7l-2.1-19.1 M205.5-393.4
				l-5.5-18.4 M209.3-392.7l-8.7-17.2 M213.1-392.7l-11.6-15.3 M216.9-393.4l-14.2-13 M220.5-394.7L204.2-405 M223.7-396.7
				l-17.8-7.2 M226.6-399.2l-18.8-3.9 M229-402.2l-19.2-0.5 M230.8-405.6l-19,2.9 M232-409.2l-18.2,6.3 M232.5-413l-16.8,9.4
				 M232.4-416.9l-14.8,12.3 M231.5-420.6l-12.4,14.7 M230-424.1l-9.6,16.7 M227.9-427.3l-6.4,18.1 M225.2-430.1l-3.1,19
				 M222.1-432.3l0.4,19.2 M218.7-434l3.8,18.9 M215-435l7.1,17.9"/>
			
				<path id="path107956" inkscape:original-d="m 949.90623,-421.12733 v 2.09886" inkscape:path-effect="#path-effect107970" sodipodi:nodetypes="cc" class="st7" d="
				M211.2-445.5v2.3 M208.8-445.4l0.2,2.3 M206.4-445.1l0.3,2.2 M204-444.6l0.5,2.2 M201.7-444l0.7,2.2 M199.4-443.2l0.9,2.1
				 M197.2-442.2l1,2 M195.1-441.1l1.2,2 M193.1-439.7l1.3,1.9 M191.2-438.3l1.4,1.8 M189.4-436.7l1.6,1.6 M187.7-434.9l1.7,1.5
				 M186.1-433.1l1.8,1.4 M184.8-431.1l1.9,1.2 M183.5-429l2,1.1 M182.5-426.9l2.1,0.9 M181.6-424.6l2.1,0.8 M180.8-422.3l2.2,0.6
				 M180.3-420l2.2,0.4 M179.9-417.6l2.3,0.3 M179.7-415.2l2.3,0.1 M179.7-412.8l2.3-0.1 M179.9-410.4l2.3-0.3 M180.3-408l2.2-0.4
				 M180.8-405.7l2.2-0.6 M181.6-403.4l2.1-0.8 M182.5-401.1l2.1-0.9 M183.5-399l2-1.1 M184.8-396.9l1.9-1.2 M186.1-394.9l1.8-1.4
				 M187.7-393l1.7-1.5 M189.4-391.3l1.6-1.6 M191.2-389.7l1.4-1.8 M193.1-388.2l1.3-1.9 M195.1-386.9l1.2-2 M197.2-385.8l1-2
				 M199.4-384.8l0.9-2.1 M201.7-384l0.7-2.2 M204-383.3l0.5-2.2 M206.4-382.9l0.3-2.2 M208.8-382.6l0.2-2.3 M211.2-382.5v-2.3
				 M213.6-382.6l-0.2-2.3 M216-382.9l-0.3-2.2 M218.4-383.3l-0.5-2.2 M220.7-384l-0.7-2.2 M223-384.8l-0.9-2.1 M225.2-385.8l-1-2
				 M227.3-386.9l-1.2-2 M229.3-388.2l-1.3-1.9 M231.2-389.7l-1.4-1.8 M233-391.3l-1.6-1.6 M234.7-393l-1.7-1.5 M236.2-394.9
				l-1.8-1.4 M237.6-396.9l-1.9-1.2 M238.8-399l-2-1.1 M239.9-401.1l-2.1-0.9 M240.8-403.4l-2.1-0.8 M241.5-405.7l-2.2-0.6
				 M242.1-408l-2.2-0.4 M242.5-410.4l-2.3-0.3 M242.6-412.8l-2.3-0.1 M242.6-415.2l-2.3,0.1 M242.5-417.6l-2.3,0.3 M242.1-420
				l-2.2,0.4 M241.5-422.3l-2.2,0.6 M240.8-424.6l-2.1,0.8 M239.9-426.9l-2.1,0.9 M238.8-429l-2,1.1 M237.6-431.1l-1.9,1.2
				 M236.2-433.1l-1.8,1.4 M234.7-434.9l-1.7,1.5 M233-436.7l-1.6,1.6 M231.2-438.3l-1.4,1.8 M229.3-439.7l-1.3,1.9 M227.3-441.1
				l-1.2,2 M225.2-442.2l-1,2 M223-443.2l-0.9,2.1 M220.7-444l-0.7,2.2 M218.4-444.6l-0.5,2.2 M216-445.1l-0.3,2.2 M213.6-445.4
				l-0.2,2.3"/>
			<g id="g108054" transform="matrix(0.63109733,0,0,0.63109733,350.42295,-144.63748)" inkscape:path-effect="#path-effect108058">
				
					<path id="path108052" sodipodi:arc-type="arc" sodipodi:cx="949.90625" sodipodi:cy="-392.07492" sodipodi:end="4.8339045" sodipodi:open="true" sodipodi:rx="49.425484" sodipodi:ry="49.425484" sodipodi:start="4.5843157" sodipodi:type="arc" class="st8" d="
					M-225.2-462.5c3-0.4,6-0.4,9,0 M-256.4-422.2c-0.4-3-0.4-6,0-9 M-216-391.1c-3,0.4-6,0.4-9,0 M-184.9-431.4c0.4,3,0.4,6,0,9"/>
			</g>
			<path id="circle108060" class="st9" d="M211.2-423c5,0,9,4,9,9c0,5-4,9-9,9c-5,0-9-4-9-9C202.2-419,206.2-423,211.2-423z"/>
			
				<g id="g115873" transform="matrix(0.61569568,0.35547207,-0.35547207,0.61569568,225.6814,-488.34121)" inkscape:path-effect="#path-effect115877">
				
					<path id="path115869" sodipodi:arc-type="arc" sodipodi:cx="949.90625" sodipodi:cy="-392.07492" sodipodi:end="4.9741884" sodipodi:open="true" sodipodi:rx="49.425484" sodipodi:ry="49.425484" sodipodi:start="4.4505896" sodipodi:type="arc" class="st10" d="
					M25.3,66c6.1-1.6,12.5-1.6,18.6,0 M-0.2,110.1c-1.6-6.1-1.6-12.5,0-18.6 M43.9,135.5c-6.1,1.6-12.5,1.6-18.6,0 M69.4,91.4
					c1.6,6.1,1.6,12.5,0,18.6"/>
				
					<path id="path115871" sodipodi:arc-type="arc" sodipodi:cx="949.90625" sodipodi:cy="-392.07492" sodipodi:end="4.9741884" sodipodi:open="true" sodipodi:rx="49.425484" sodipodi:ry="49.425484" sodipodi:start="4.4505896" sodipodi:type="arc" class="st10" d="
					M25.3,66c6.1-1.6,12.5-1.6,18.6,0 M-0.2,110.1c-1.6-6.1-1.6-12.5,0-18.6 M43.9,135.5c-6.1,1.6-12.5,1.6-18.6,0 M69.4,91.4
					c1.6,6.1,1.6,12.5,0,18.6"/>
			</g>
			
				<g id="g115883" transform="matrix(0.35547207,0.61569568,-0.61569568,0.35547207,370.84229,-837.55639)" inkscape:path-effect="#path-effect115887">
				
					<path id="path115879" sodipodi:arc-type="arc" sodipodi:cx="949.90625" sodipodi:cy="-392.07492" sodipodi:end="4.9741884" sodipodi:open="true" sodipodi:rx="49.425484" sodipodi:ry="49.425484" sodipodi:start="4.4505896" sodipodi:type="arc" class="st10" d="
					M394.3,457.6c6.1-1.6,12.5-1.6,18.6,0 M368.9,501.7c-1.6-6.1-1.6-12.5,0-18.6 M413,527.2c-6.1,1.6-12.5,1.6-18.6,0 M438.5,483
					c1.6,6.1,1.6,12.5,0,18.6"/>
				
					<path id="path115881" sodipodi:arc-type="arc" sodipodi:cx="949.90625" sodipodi:cy="-392.07492" sodipodi:end="4.9741884" sodipodi:open="true" sodipodi:rx="49.425484" sodipodi:ry="49.425484" sodipodi:start="4.4505896" sodipodi:type="arc" class="st10" d="
					M394.3,457.6c6.1-1.6,12.5-1.6,18.6,0 M368.9,501.7c-1.6-6.1-1.6-12.5,0-18.6 M413,527.2c-6.1,1.6-12.5,1.6-18.6,0 M438.5,483
					c1.6,6.1,1.6,12.5,0,18.6"/>
			</g>
		</g>
		<g id="g107988" transform="rotate(45,434.11373,20.610102)">
			<g id="g107976" transform="translate(18.724083,127.74169)">
				<path id="path107972" sodipodi:nodetypes="cccc" class="st1" d="M363.3-28.8v23 M363.3,40.1v23"/>
				<path id="path107974" sodipodi:nodetypes="cccc" class="st1" d="M409.2,17.1h-23 M340.3,17.1h-23"/>
				<path id="path116225" sodipodi:nodetypes="cccc" class="st1" d="M330.8-15.4L347,0.9 M379.5,33.3l16.2,16.2"/>
				<path id="path116227" sodipodi:nodetypes="cccc" class="st1" d="M330.8,49.6L347,33.3 M379.5,0.9l16.2-16.2"/>
			</g>
			<g id="g107980" inkscape:path-effect="#path-effect107992">
				
					<path id="path107978" sodipodi:arc-type="arc" sodipodi:cx="949.90631" sodipodi:cy="-392.07495" sodipodi:end="4.1887902" sodipodi:open="true" sodipodi:rx="61.148819" sodipodi:ry="61.148819" sodipodi:start="3.6651914" sodipodi:type="arc" class="st2" d="
					M343.4,122.6c3.9-6.8,9.5-12.4,16.3-16.3 M359.7,183.4c-6.8-3.9-12.4-9.5-16.3-16.3 M420.6,167.1c-3.9,6.8-9.5,12.4-16.3,16.3
					 M404.3,106.2c6.8,3.9,12.4,9.5,16.3,16.3"/>
			</g>
			<circle id="circle107982" class="st11" cx="382" cy="144.8" r="35.4"/>
			
				<path id="path107984" inkscape:original-d="m 949.90623,-419.22502 v 5.93672" inkscape:path-effect="#path-effect107996" class="st12" d="
				M382,122.5l0,4.9 M378,122.8l0.9,4.8 M374.1,123.9l1.7,4.6 M370.5,125.6l2.5,4.2 M367.3,128l3.2,3.7 M364.5,130.9l3.8,3
				 M362.3,134.2l4.3,2.3 M360.7,137.9l4.6,1.5 M359.8,141.8l4.8,0.7 M359.7,145.8l4.9-0.2 M360.2,149.8l4.8-1.1 M361.4,153.6
				l4.5-1.9 M363.3,157.1l4.1-2.7 M365.8,160.3l3.5-3.4 M368.8,162.9l2.9-4 M372.3,165l2.1-4.4 M376,166.4l1.3-4.7 M380,167.1
				l0.4-4.9 M384,167.1l-0.4-4.9 M387.9,166.4l-1.3-4.7 M391.7,165l-2.1-4.4 M395.1,162.9l-2.9-4 M398.1,160.3l-3.5-3.4
				 M400.6,157.1l-4.1-2.7 M402.5,153.6l-4.5-1.9 M403.8,149.8l-4.8-1.1 M404.3,145.8l-4.9-0.2 M404.1,141.8l-4.8,0.7 M403.2,137.9
				l-4.6,1.5 M401.7,134.2l-4.3,2.3 M399.5,130.9l-3.8,3 M396.7,128l-3.2,3.7 M393.5,125.6l-2.5,4.2 M389.8,123.9l-1.7,4.6
				 M386,122.8l-0.9,4.8"/>
			
				<path id="path107986" inkscape:original-d="m 949.90623,-421.12733 c 0,0 0,2.39364 0,4.06991" inkscape:path-effect="#path-effect108000" sodipodi:nodetypes="cc" class="st13" d="
				M382,106.8v5.3 M375.4,107.4l0.9,5.3 M369,109.1l1.8,5 M363,111.9l2.7,4.6 M357.5,115.7l3.4,4.1 M352.8,120.4l4.1,3.4 M349,125.8
				l4.6,2.7 M346.2,131.8l5,1.8 M344.5,138.2l5.3,0.9 M343.9,144.8l5.3,0 M344.5,151.5l5.3-0.9 M346.2,157.9l5-1.8 M349,163.9
				l4.6-2.7 M352.8,169.3l4.1-3.4 M357.5,174l3.4-4.1 M363,177.8l2.7-4.6 M369,180.6l1.8-5 M375.4,182.3l0.9-5.3 M382,182.9v-5.3
				 M388.6,182.3l-0.9-5.3 M395,180.6l-1.8-5 M401,177.8l-2.7-4.6 M406.5,174l-3.4-4.1 M411.1,169.3l-4.1-3.4 M414.9,163.9l-4.6-2.7
				 M417.8,157.9l-5-1.8 M419.5,151.5l-5.3-0.9 M420,144.8h-5.3 M419.5,138.2l-5.3,0.9 M417.8,131.8l-5,1.8 M414.9,125.8l-4.6,2.7
				 M411.1,120.4l-4.1,3.4 M406.5,115.7l-3.4,4.1 M401,111.9l-2.7,4.6 M395,109.1l-1.8,5 M388.6,107.4l-0.9,5.3"/>
			
				<g id="g116219" transform="matrix(0.44209471,0.44209471,-0.44209471,0.44209471,356.62348,-638.68918)" inkscape:path-effect="#path-effect116223">
				
					<path id="path116217" sodipodi:arc-type="arc" sodipodi:cx="949.90625" sodipodi:cy="-392.07492" sodipodi:end="4.1887902" sodipodi:open="true" sodipodi:rx="59.318489" sodipodi:ry="59.318489" sodipodi:start="3.6651914" sodipodi:type="arc" class="st14" d="
					M877.4,835.8c3.8-6.6,9.3-12,15.8-15.8 M893.2,894.9c-6.6-3.8-12-9.3-15.8-15.8 M952.3,879.1c-3.8,6.6-9.3,12-15.8,15.8
					 M936.4,820c6.6,3.8,12,9.3,15.8,15.8"/>
			</g>
			<path id="circle116229" class="st15" d="M382,122c12.6,0,22.9,10.2,22.9,22.9c0,12.6-10.2,22.9-22.9,22.9
				c-12.6,0-22.9-10.2-22.9-22.9C359.1,132.2,369.4,122,382,122z"/>
		</g>
		<g id="g108018" transform="translate(297.47393,485.59302)">
			<g id="g108006" transform="translate(18.724083,127.74169)">
				<path id="path108002" sodipodi:nodetypes="cccc" class="st1" d="M107.4-587.7v23 M107.4-518.8v23"/>
				<path id="path108004" sodipodi:nodetypes="cccc" class="st1" d="M153.4-541.7h-23 M84.5-541.7h-23"/>
			</g>
			<g id="g108010" inkscape:path-effect="#path-effect108022">
				
					<path id="path108008" inkscape:original-d="m 922.38229,-399.44999 -27.52402,-7.37504 c 5.2697,-19.66677 20.63119,-35.02826 40.29796,-40.29796 l 7.37504,27.52402" sodipodi:nodetypes="cccc" class="st11" d="
					M106.1-419.4L86-424.8c3.8-14.3,15-25.5,29.4-29.4l5.4,20.1 M120.8-393.9l-5.4,20.1c-14.3-3.8-25.5-15-29.4-29.4l20.1-5.4
					 M146.2-408.6l20.1,5.4c-3.8,14.3-15,25.5-29.4,29.4l-5.4-20.1 M131.5-434.1l5.4-20.1c14.3,3.8,25.5,15,29.4,29.4l-20.1,5.4"/>
				
					<path id="path116231" sodipodi:arc-type="slice" sodipodi:cx="939.8045" sodipodi:cy="-402.17664" sodipodi:end="4.4505896" sodipodi:rx="25.181465" sodipodi:ry="25.181465" sodipodi:start="3.403392" sodipodi:type="arc" class="st16" d="
					M101.1-426.1c1.7-6.3,6.6-11.3,13-13l4.7,17.7L101.1-426.1z M114.1-388.9c-6.3-1.7-11.3-6.6-13-13l17.7-4.7L114.1-388.9z
					 M151.3-401.9c-1.7,6.3-6.6,11.3-13,13l-4.7-17.7L151.3-401.9z M138.3-439.1c6.3,1.7,11.3,6.6,13,13l-17.7,4.7L138.3-439.1z"/>
			</g>
			<circle id="circle108012" class="st11" cx="126.2" cy="-414" r="34.7"/>
			
				<ellipse id="circle116234" transform="matrix(0.9844 -0.1757 0.1757 0.9844 74.7077 15.7274)" class="st15" cx="126.2" cy="-414" rx="21.3" ry="21.3"/>
		</g>
		<g id="g116252" transform="translate(-172.58727,636.70375)">
			<g id="g116240" transform="translate(18.724083,127.74169)">
				<path id="path116236" sodipodi:nodetypes="cccc" class="st1" d="M234.9-628.6v23 M234.9-559.8v23"/>
				<path id="path116238" sodipodi:nodetypes="cccc" class="st1" d="M280.8-582.7h-23 M212-582.7h-23"/>
				<path id="path117934" sodipodi:nodetypes="cccc" class="st1" d="M250.7-598.5l-7.9,7.9 M227.1-574.9l-7.9,7.9"/>
				<path id="path117936" sodipodi:nodetypes="cccc" class="st1" d="M250.7-567l-7.9-7.9 M227.1-590.6l-7.9-7.9"/>
			</g>
			<g id="g116244" transform="rotate(-15,949.90623,-392.0749)" inkscape:path-effect="#path-effect116340">
				
					<path id="path116242" sodipodi:arc-type="arc" sodipodi:cx="949.90625" sodipodi:cy="-392.07492" sodipodi:end="3.6651914" sodipodi:open="true" sodipodi:rx="49.425484" sodipodi:ry="49.425484" sodipodi:start="3.403392" sodipodi:type="arc" class="st2" d="
					M258.9-642.4c0.8-3,2-6,3.6-8.7 M258.9-623.7c-0.8-3-1.2-6.2-1.2-9.3 M268.2-607.6c-2.2-2.2-4.2-4.7-5.7-7.5 M284.3-598.3
					c-3-0.8-6-2-8.7-3.6 M303-598.3c-3,0.8-6.2,1.2-9.3,1.2 M319.1-607.6c-2.2,2.2-4.7,4.2-7.5,5.7 M328.5-623.7c-0.8,3-2,6-3.6,8.7
					 M328.5-642.4c0.8,3,1.2,6.2,1.2,9.3 M319.1-658.5c2.2,2.2,4.2,4.7,5.7,7.5 M303-667.8c3,0.8,6,2,8.7,3.6 M284.3-667.8
					c3-0.8,6.2-1.2,9.3-1.2 M268.2-658.5c2.2-2.2,4.7-4.2,7.5-5.7"/>
			</g>
			
				<ellipse id="circle116246" transform="matrix(0.8995 -0.4369 0.4369 0.8995 224.2936 65.1006)" class="st9" cx="253.7" cy="-455" rx="23" ry="23"/>
			
				<path id="path116250" inkscape:original-d="m 949.90623,-421.12733 c 0,0 0,2.39364 0,4.06991" inkscape:path-effect="#path-effect116348" sodipodi:nodetypes="cc" class="st5" d="
				M253.7-487.1v4.5 M248.1-486.6l0.8,4.4 M242.7-485.2l1.5,4.2 M237.6-482.8l2.3,3.9 M233-479.6l2.9,3.4 M229-475.6l3.4,2.9
				 M225.8-471l3.9,2.3 M223.5-466l4.2,1.5 M222-460.6l4.4,0.8 M221.5-455h4.5 M222-449.4l4.4-0.8 M223.5-444l4.2-1.5 M225.8-438.9
				l3.9-2.3 M229-434.3l3.4-2.9 M233-430.4l2.9-3.4 M237.6-427.1l2.3-3.9 M242.7-424.8l1.5-4.2 M248.1-423.3l0.8-4.4 M253.7-422.8
				v-4.5 M259.2-423.3l-0.8-4.4 M264.6-424.8l-1.5-4.2 M269.7-427.1l-2.3-3.9 M274.3-430.4l-2.9-3.4 M278.3-434.3l-3.4-2.9
				 M281.5-438.9l-3.9-2.3 M283.9-444l-4.2-1.5 M285.3-449.4l-4.4-0.8 M285.8-455h-4.5 M285.3-460.6l-4.4,0.8 M283.9-466l-4.2,1.5
				 M281.5-471l-3.9,2.3 M278.3-475.6l-3.4,2.9 M274.3-479.6l-2.9,3.4 M269.7-482.8l-2.3,3.9 M264.6-485.2l-1.5,4.2 M259.2-486.6
				l-0.8,4.4"/>
			<circle id="circle117178" class="st17" cx="253.7" cy="-455" r="40.8"/>
		</g>
		<g id="g116290" transform="translate(-15.99346,636.70375)">
			<g id="g116258" transform="translate(18.724083,127.74169)">
				<path id="path116254" sodipodi:nodetypes="cccc" class="st1" d="M192.5-628.6v23 M192.5-559.8v23"/>
				<path id="path116256" sodipodi:nodetypes="cccc" class="st1" d="M238.4-582.7h-23 M169.5-582.7h-23"/>
			</g>
			<g id="g116264" inkscape:path-effect="#path-effect116352">
				
					<path id="path116260" sodipodi:arc-type="arc" sodipodi:cx="949.90625" sodipodi:cy="-392.07492" sodipodi:end="4.9741884" sodipodi:open="true" sodipodi:rx="49.425484" sodipodi:ry="49.425484" sodipodi:start="4.4505896" sodipodi:type="arc" class="st2" d="
					M201.9-489.8c6.1-1.6,12.5-1.6,18.6,0 M176.4-445.7c-1.6-6.1-1.6-12.5,0-18.6 M220.5-420.2c-6.1,1.6-12.5,1.6-18.6,0 M246-464.3
					c1.6,6.1,1.6,12.5,0,18.6"/>
				
					<path id="path116262" sodipodi:arc-type="arc" sodipodi:cx="949.90625" sodipodi:cy="-392.07492" sodipodi:end="4.9741884" sodipodi:open="true" sodipodi:rx="49.425484" sodipodi:ry="49.425484" sodipodi:start="4.4505896" sodipodi:type="arc" class="st2" d="
					M201.9-489.8c6.1-1.6,12.5-1.6,18.6,0 M176.4-445.7c-1.6-6.1-1.6-12.5,0-18.6 M220.5-420.2c-6.1,1.6-12.5,1.6-18.6,0 M246-464.3
					c1.6,6.1,1.6,12.5,0,18.6"/>
			</g>
			<circle id="circle116266" class="st4" cx="211.2" cy="-455" r="28.7"/>
			
				<path id="path116270" inkscape:original-d="m 949.90623,-421.12733 v 2.09886" inkscape:path-effect="#path-effect116360" sodipodi:nodetypes="cc" class="st7" d="
				M211.2-486.5v2.3 M208.8-486.4l0.2,2.3 M206.4-486.1l0.3,2.2 M204-485.6l0.5,2.2 M201.7-485l0.7,2.2 M199.4-484.2l0.9,2.1
				 M197.2-483.2l1,2 M195.1-482l1.2,2 M193.1-480.7l1.3,1.9 M191.2-479.3l1.4,1.8 M189.4-477.7l1.6,1.6 M187.7-475.9l1.7,1.5
				 M186.1-474.1l1.8,1.4 M184.8-472.1l1.9,1.2 M183.5-470l2,1.1 M182.5-467.9l2.1,0.9 M181.6-465.6l2.1,0.8 M180.8-463.3l2.2,0.6
				 M180.3-461l2.2,0.4 M179.9-458.6l2.3,0.3 M179.7-456.2l2.3,0.1 M179.7-453.8l2.3-0.1 M179.9-451.4l2.3-0.3 M180.3-449l2.2-0.4
				 M180.8-446.6l2.2-0.6 M181.6-444.3l2.1-0.8 M182.5-442.1l2.1-0.9 M183.5-439.9l2-1.1 M184.8-437.9l1.9-1.2 M186.1-435.9l1.8-1.4
				 M187.7-434l1.7-1.5 M189.4-432.3l1.6-1.6 M191.2-430.7l1.4-1.8 M193.1-429.2l1.3-1.9 M195.1-427.9l1.2-2 M197.2-426.8l1-2
				 M199.4-425.8l0.9-2.1 M201.7-425l0.7-2.2 M204-424.3l0.5-2.2 M206.4-423.9l0.3-2.2 M208.8-423.6l0.2-2.3 M211.2-423.5v-2.3
				 M213.6-423.6l-0.2-2.3 M216-423.9l-0.3-2.2 M218.4-424.3l-0.5-2.2 M220.7-425l-0.7-2.2 M223-425.8l-0.9-2.1 M225.2-426.8l-1-2
				 M227.3-427.9l-1.2-2 M229.3-429.2l-1.3-1.9 M231.2-430.7l-1.4-1.8 M233-432.3l-1.6-1.6 M234.7-434l-1.7-1.5 M236.2-435.9
				l-1.8-1.4 M237.6-437.9l-1.9-1.2 M238.8-439.9l-2-1.1 M239.9-442.1l-2.1-0.9 M240.8-444.3l-2.1-0.8 M241.5-446.6l-2.2-0.6
				 M242.1-449l-2.2-0.4 M242.5-451.4l-2.3-0.3 M242.6-453.8l-2.3-0.1 M242.6-456.2l-2.3,0.1 M242.5-458.6l-2.3,0.3 M242.1-461
				l-2.2,0.4 M241.5-463.3l-2.2,0.6 M240.8-465.6l-2.1,0.8 M239.9-467.9l-2.1,0.9 M238.8-470l-2,1.1 M237.6-472.1l-1.9,1.2
				 M236.2-474.1l-1.8,1.4 M234.7-475.9l-1.7,1.5 M233-477.7l-1.6,1.6 M231.2-479.3l-1.4,1.8 M229.3-480.7l-1.3,1.9 M227.3-482
				l-1.2,2 M225.2-483.2l-1,2 M223-484.2l-0.9,2.1 M220.7-485l-0.7,2.2 M218.4-485.6l-0.5,2.2 M216-486.1l-0.3,2.2 M213.6-486.4
				l-0.2,2.3"/>
			<g id="g116274" transform="matrix(0.63109733,0,0,0.63109733,350.42295,-144.63748)" inkscape:path-effect="#path-effect116364">
				
					<path id="path116272" sodipodi:arc-type="arc" sodipodi:cx="949.90625" sodipodi:cy="-392.07492" sodipodi:end="4.8339045" sodipodi:open="true" sodipodi:rx="49.425484" sodipodi:ry="49.425484" sodipodi:start="4.5843157" sodipodi:type="arc" class="st8" d="
					M-225.2-527.5c3-0.4,6-0.4,9,0 M-256.4-487.2c-0.4-3-0.4-6,0-9 M-216-456c-3,0.4-6,0.4-9,0 M-184.9-496.4c0.4,3,0.4,6,0,9"/>
			</g>
			
				<ellipse id="circle116276" transform="matrix(9.853687e-02 -0.9951 0.9951 9.853687e-02 643.1442 -199.9984)" class="st9" cx="211.2" cy="-455" rx="20" ry="20"/>
			
				<g id="g116282" transform="matrix(0.61569568,0.35547207,-0.35547207,0.61569568,225.6814,-488.34121)" inkscape:path-effect="#path-effect116368">
			</g>
			
				<g id="g116288" transform="matrix(0.35547207,0.61569568,-0.61569568,0.35547207,370.84229,-837.55639)" inkscape:path-effect="#path-effect116372">
			</g>
		</g>
		<g id="g116318" transform="rotate(45,251.70697,96.165453)">
			<g id="g116300" transform="translate(18.724083,127.74169)">
				<path id="path116292" sodipodi:nodetypes="cccc" class="st1" d="M334.3-57.8l0,23 M334.3,11.1l0,23"/>
				<path id="path116294" sodipodi:nodetypes="cccc" class="st1" d="M380.2-11.9h-23 M311.3-11.9l-23,0"/>
				<path id="path116296" sodipodi:nodetypes="cccc" class="st1" d="M301.8-44.4L318-28.1 M350.5,4.3l16.2,16.2"/>
				<path id="path116298" sodipodi:nodetypes="cccc" class="st1" d="M301.8,20.6L318,4.3 M350.5-28.1l16.2-16.2"/>
			</g>
			<g id="g116304" inkscape:path-effect="#path-effect116376">
			</g>
			
				<ellipse id="circle116306" transform="matrix(0.7071 -0.7071 0.7071 0.7071 21.471 283.5466)" class="st11" cx="353" cy="115.9" rx="35.4" ry="35.4"/>
			
				<g id="g116314" transform="matrix(0.44209471,0.44209471,-0.44209471,0.44209471,356.62348,-638.68918)" inkscape:path-effect="#path-effect116388">
				
					<path id="path116312" sodipodi:arc-type="arc" sodipodi:cx="394.44638" sodipodi:cy="-948.92401" sodipodi:end="4.1887902" sodipodi:open="true" sodipodi:rx="64.401642" sodipodi:ry="64.401642" sodipodi:start="3.6651914" sodipodi:type="arc" class="st18" d="
					M837.1,812.1c8-2.1,16.3-2.1,24.3,0 M803.9,869.6c-2.1-8-2.1-16.3,0-24.3 M861.4,902.8c-8,2.1-16.3,2.1-24.3,0 M894.6,845.3
					c2.1,8,2.1,16.3,0,24.3"/>
			</g>
			<path id="circle116316" class="st11" d="M353,93c12.6,0,22.9,10.2,22.9,22.9c0,12.6-10.2,22.9-22.9,22.9
				c-12.6,0-22.9-10.2-22.9-22.9C330.2,103.2,340.4,93,353,93z"/>
		</g>
		<g id="g116336" transform="translate(297.47393,636.70375)">
			<g id="g116324" transform="translate(18.724083,127.74169)">
				<path id="path116320" sodipodi:nodetypes="cccc" class="st1" d="M107.4-628.6v23 M107.4-559.8v23"/>
				<path id="path116322" sodipodi:nodetypes="cccc" class="st1" d="M153.4-582.7h-23 M84.5-582.7h-23"/>
			</g>
			<g id="g116330" inkscape:path-effect="#path-effect116392">
				
					<path id="path116328" sodipodi:arc-type="slice" sodipodi:cx="935.29022" sodipodi:cy="-406.69092" sodipodi:end="4.4505896" sodipodi:rx="36.434597" sodipodi:ry="36.434597" sodipodi:start="3.403392" sodipodi:type="arc" class="st16" d="
					M89.9-472.5c2.5-9.2,9.6-16.3,18.8-18.8l6.9,25.6L89.9-472.5z M108.6-418.7c-9.2-2.5-16.3-9.6-18.8-18.8l25.6-6.9L108.6-418.7z
					 M162.5-437.5c-2.5,9.2-9.6,16.3-18.8,18.8l-6.9-25.6L162.5-437.5z M143.7-491.3c9.2,2.5,16.3,9.6,18.8,18.8l-25.6,6.9
					L143.7-491.3z"/>
			</g>
			<circle id="circle116332" class="st11" cx="126.2" cy="-455" r="34.7"/>
			
				<ellipse id="circle116334" transform="matrix(0.1602 -0.9871 0.9871 0.1602 555.0659 -257.5695)" class="st15" cx="126.2" cy="-455" rx="23.2" ry="23.2"/>
		</g>
		<g id="g116410" transform="translate(-172.58727,787.81449)">
			<g id="g116398" transform="translate(18.724083,127.74169)">
			</g>
			<g id="g116402" inkscape:path-effect="#path-effect116498">
			</g>
			
				<ellipse id="circle116404" transform="matrix(0.7071 -0.7071 0.7071 0.7071 424.9964 34.0936)" class="st19" cx="253.7" cy="-496" rx="28.6" ry="28.6"/>
			
				<path id="path116406" inkscape:original-d="m 949.90623,-419.22502 v 2.77824" inkscape:path-effect="#path-effect116502" sodipodi:nodetypes="cc" class="st20" d="
				M253.7-522.1v2.7 M249-521.6l0.5,2.6 M244.5-520.4l0.9,2.5 M240.3-518.4l1.4,2.3 M236.5-515.6l1.8,2 M233.2-512.2l2.1,1.7
				 M230.7-508.3l2.4,1.3 M228.8-504l2.5,0.8 M227.8-499.5l2.6,0.4 M227.6-494.8l2.7-0.1 M228.2-490.2l2.6-0.6 M229.7-485.7l2.5-1
				 M231.9-481.6l2.2-1.5 M234.8-477.9l1.9-1.8 M238.3-474.8l1.6-2.2 M242.3-472.4l1.2-2.4 M246.7-470.8l0.7-2.6 M251.3-470l0.2-2.7
				 M256-470l-0.2-2.7 M260.6-470.8l-0.7-2.6 M265-472.4l-1.2-2.4 M269-474.8l-1.6-2.2 M272.5-477.9l-1.9-1.8 M275.4-481.6l-2.2-1.5
				 M277.7-485.7l-2.5-1 M279.1-490.2l-2.6-0.6 M279.7-494.8l-2.7-0.1 M279.5-499.5l-2.6,0.4 M278.5-504l-2.5,0.8 M276.6-508.3
				l-2.4,1.3 M274.1-512.2l-2.1,1.7 M270.8-515.6l-1.8,2 M267-518.4l-1.4,2.3 M262.8-520.4l-0.9,2.5 M258.3-521.6l-0.5,2.6"/>
			
				<path id="path116408" inkscape:original-d="m 949.90623,-421.12733 v 2.4755" inkscape:path-effect="#path-effect116506" sodipodi:nodetypes="cc" class="st21" d="
				M253.7-527.6v2.7 M248.2-527.1l0.5,2.7 M242.8-525.7l0.9,2.5 M237.8-523.4l1.3,2.3 M233.3-520.2l1.7,2.1 M229.4-516.3l2.1,1.7
				 M226.3-511.8l2.3,1.3 M223.9-506.8l2.5,0.9 M222.5-501.5l2.7,0.5 M222-496h2.7 M222.5-490.5l2.7-0.5 M223.9-485.1l2.5-0.9
				 M226.3-480.1l2.3-1.3 M229.4-475.6l2.1-1.7 M233.3-471.7l1.7-2.1 M237.8-468.6l1.3-2.3 M242.8-466.2l0.9-2.5 M248.2-464.8
				l0.5-2.7 M253.7-464.3v-2.7 M259.1-464.8l-0.5-2.7 M264.5-466.2l-0.9-2.5 M269.5-468.6l-1.3-2.3 M274-471.7l-1.7-2.1
				 M277.9-475.6l-2.1-1.7 M281.1-480.1l-2.3-1.3 M283.4-485.1l-2.5-0.9 M284.8-490.5l-2.7-0.5 M285.3-496h-2.7 M284.8-501.5
				l-2.7,0.5 M283.4-506.8l-2.5,0.9 M281.1-511.8l-2.3,1.3 M277.9-516.3l-2.1,1.7 M274-520.2l-1.7,2.1 M269.5-523.4l-1.3,2.3
				 M264.5-525.7l-0.9,2.5 M259.1-527.1l-0.5,2.7"/>
			
				<ellipse id="circle118433" transform="matrix(0.3592 -0.9333 0.9333 0.3592 625.43 -81.1115)" class="st19" cx="253.7" cy="-496" rx="32" ry="32"/>
			
				<ellipse id="circle118898" transform="matrix(0.9717 -0.2363 0.2363 0.9717 124.3938 45.8955)" class="st19" cx="253.7" cy="-496" rx="21.1" ry="21.1"/>
			<path id="circle119267" class="st22" d="M253.7-506.5c5.8,0,10.5,4.7,10.5,10.5c0,5.8-4.7,10.5-10.5,10.5
				c-5.8,0-10.5-4.7-10.5-10.5C243.1-501.8,247.8-506.5,253.7-506.5z"/>
			
				<ellipse id="circle119269" transform="matrix(0.7071 -0.7071 0.7071 0.7071 424.9965 34.0936)" class="st19" cx="253.7" cy="-496" rx="37.8" ry="37.8"/>
		</g>
		<g id="g116448" transform="translate(-15.99346,787.81449)">
			<g id="g116416" transform="translate(18.724083,127.74169)">
				<path id="path116412" sodipodi:nodetypes="cccc" class="st1" d="M192.5-669.6v23 M192.5-600.8v23"/>
				<path id="path116414" sodipodi:nodetypes="cccc" class="st1" d="M238.4-623.7h-23 M169.5-623.7h-23"/>
			</g>
			<g id="g116422" inkscape:path-effect="#path-effect116510">
				
					<path id="path116420" sodipodi:arc-type="arc" sodipodi:cx="394.44632" sodipodi:cy="-948.92395" sodipodi:end="4.9741884" sodipodi:open="true" sodipodi:rx="49.425484" sodipodi:ry="49.425484" sodipodi:start="4.4505896" sodipodi:type="arc" class="st2" d="
					M229.2-527.2c5.5,3.2,10,7.7,13.2,13.2 M180-514c3.2-5.5,7.7-10,13.2-13.2 M193.2-464.8c-5.5-3.2-10-7.7-13.2-13.2 M242.4-478
					c-3.2,5.5-7.7,10-13.2,13.2"/>
			</g>
			<circle id="circle116424" class="st4" cx="211.2" cy="-496" r="28.7"/>
			
				<path id="path116428" inkscape:original-d="m 949.90623,-421.12733 v 2.09886" inkscape:path-effect="#path-effect116518" sodipodi:nodetypes="cc" class="st7" d="
				M211.2-527.4v2.3 M208.8-527.3l0.2,2.3 M206.4-527.1l0.3,2.2 M204-526.6l0.5,2.2 M201.7-526l0.7,2.2 M199.4-525.2l0.9,2.1
				 M197.2-524.2l1,2 M195.1-523l1.2,2 M193.1-521.7l1.3,1.9 M191.2-520.2l1.4,1.8 M189.4-518.6l1.6,1.6 M187.7-516.9l1.7,1.5
				 M186.1-515l1.8,1.4 M184.8-513.1l1.9,1.2 M183.5-511l2,1.1 M182.5-508.8l2.1,0.9 M181.6-506.6l2.1,0.8 M180.8-504.3l2.2,0.6
				 M180.3-502l2.2,0.4 M179.9-499.6l2.3,0.3 M179.7-497.2l2.3,0.1 M179.7-494.8l2.3-0.1 M179.9-492.3l2.3-0.3 M180.3-490l2.2-0.4
				 M180.8-487.6l2.2-0.6 M181.6-485.3l2.1-0.8 M182.5-483.1l2.1-0.9 M183.5-480.9l2-1.1 M184.8-478.8l1.9-1.2 M186.1-476.9l1.8-1.4
				 M187.7-475l1.7-1.5 M189.4-473.3l1.6-1.6 M191.2-471.7l1.4-1.8 M193.1-470.2l1.3-1.9 M195.1-468.9l1.2-2 M197.2-467.7l1-2
				 M199.4-466.8l0.9-2.1 M201.7-465.9l0.7-2.2 M204-465.3l0.5-2.2 M206.4-464.8l0.3-2.2 M208.8-464.6l0.2-2.3 M211.2-464.5v-2.3
				 M213.6-464.6l-0.2-2.3 M216-464.8l-0.3-2.2 M218.4-465.3l-0.5-2.2 M220.7-465.9l-0.7-2.2 M223-466.8l-0.9-2.1 M225.2-467.7l-1-2
				 M227.3-468.9l-1.2-2 M229.3-470.2l-1.3-1.9 M231.2-471.7l-1.4-1.8 M233-473.3l-1.6-1.6 M234.7-475l-1.7-1.5 M236.2-476.9
				l-1.8-1.4 M237.6-478.8l-1.9-1.2 M238.8-480.9l-2-1.1 M239.9-483.1l-2.1-0.9 M240.8-485.3l-2.1-0.8 M241.5-487.6l-2.2-0.6
				 M242.1-490l-2.2-0.4 M242.5-492.3l-2.3-0.3 M242.6-494.8l-2.3-0.1 M242.6-497.2l-2.3,0.1 M242.5-499.6l-2.3,0.3 M242.1-502
				l-2.2,0.4 M241.5-504.3l-2.2,0.6 M240.8-506.6l-2.1,0.8 M239.9-508.8l-2.1,0.9 M238.8-511l-2,1.1 M237.6-513.1l-1.9,1.2
				 M236.2-515l-1.8,1.4 M234.7-516.9l-1.7,1.5 M233-518.6l-1.6,1.6 M231.2-520.2l-1.4,1.8 M229.3-521.7l-1.3,1.9 M227.3-523l-1.2,2
				 M225.2-524.2l-1,2 M223-525.2l-0.9,2.1 M220.7-526l-0.7,2.2 M218.4-526.6l-0.5,2.2 M216-527.1l-0.3,2.2 M213.6-527.3l-0.2,2.3"
				/>
			<g id="g116432" transform="matrix(0.63109733,0,0,0.63109733,350.42295,-144.63748)" inkscape:path-effect="#path-effect116522">
				
					<path id="path116430" sodipodi:arc-type="arc" sodipodi:cx="949.90625" sodipodi:cy="-392.07492" sodipodi:end="4.8339045" sodipodi:open="true" sodipodi:rx="49.425484" sodipodi:ry="49.425484" sodipodi:start="4.5843157" sodipodi:type="arc" class="st8" d="
					M-225.2-592.4c3-0.4,6-0.4,9,0 M-256.4-552.1c-0.4-3-0.4-6,0-9 M-216-521c-3,0.4-6,0.4-9,0 M-184.9-561.3c0.4,3,0.4,6,0,9"/>
			</g>
			
				<ellipse id="circle116434" transform="matrix(0.9859 -0.167 0.167 0.9859 85.8155 28.308)" class="st22" cx="211.2" cy="-496" rx="18.5" ry="18.5"/>
			
				<g id="g116440" transform="matrix(0.61569568,0.35547207,-0.35547207,0.61569568,225.6814,-488.34121)" inkscape:path-effect="#path-effect116526">
				
					<path id="path116436" sodipodi:arc-type="arc" sodipodi:cx="949.90625" sodipodi:cy="-392.07492" sodipodi:end="4.9741884" sodipodi:open="true" sodipodi:rx="49.425484" sodipodi:ry="49.425484" sodipodi:start="4.4505896" sodipodi:type="arc" class="st10" d="
					M-32.3-33.9c6.1-1.6,12.5-1.6,18.6,0 M-57.8,10.2c-1.6-6.1-1.6-12.5,0-18.6 M-13.7,35.7c-6.1,1.6-12.5,1.6-18.6,0 M11.8-8.4
					c1.6,6.1,1.6,12.5,0,18.6"/>
				
					<path id="path116438" sodipodi:arc-type="arc" sodipodi:cx="949.90625" sodipodi:cy="-392.07492" sodipodi:end="4.9741884" sodipodi:open="true" sodipodi:rx="49.425484" sodipodi:ry="49.425484" sodipodi:start="4.4505896" sodipodi:type="arc" class="st10" d="
					M-32.3-33.9c6.1-1.6,12.5-1.6,18.6,0 M-57.8,10.2c-1.6-6.1-1.6-12.5,0-18.6 M-13.7,35.7c-6.1,1.6-12.5,1.6-18.6,0 M11.8-8.4
					c1.6,6.1,1.6,12.5,0,18.6"/>
			</g>
			
				<g id="g116446" transform="matrix(0.35547207,0.61569568,-0.61569568,0.35547207,370.84229,-837.55639)" inkscape:path-effect="#path-effect116530">
				
					<path id="path116442" sodipodi:arc-type="arc" sodipodi:cx="949.90625" sodipodi:cy="-392.07492" sodipodi:end="4.9741884" sodipodi:open="true" sodipodi:rx="42.316269" sodipodi:ry="42.316269" sodipodi:start="4.4505896" sodipodi:type="arc" class="st10" d="
					M295.8,404.9c5.2-1.4,10.7-1.4,16,0 M274,442.7c-1.4-5.2-1.4-10.7,0-16 M311.8,464.5c-5.2,1.4-10.7,1.4-16,0 M333.6,426.7
					c1.4,5.2,1.4,10.7,0,16"/>
			</g>
		</g>
		<g id="g116476" transform="rotate(45,69.300172,171.72083)">
			<g id="g116458" transform="translate(18.724083,127.74169)">
				<path id="path116450" sodipodi:nodetypes="cccc" class="st1" d="M305.3-86.8v23 M305.3-17.9l0,23"/>
				<path id="path116452" sodipodi:nodetypes="cccc" class="st1" d="M351.2-40.9l-23,0 M282.3-40.9h-23"/>
				<path id="path116454" sodipodi:nodetypes="cccc" class="st1" d="M272.8-73.3l16.2,16.2 M321.5-24.6l16.2,16.2"/>
				<path id="path116456" sodipodi:nodetypes="cccc" class="st1" d="M272.8-8.4l16.2-16.2 M321.5-57.1l16.2-16.2"/>
			</g>
			<g id="g116462" inkscape:path-effect="#path-effect116534">
				
					<path id="path116460" sodipodi:arc-type="arc" sodipodi:cx="949.90631" sodipodi:cy="-392.07495" sodipodi:end="4.1887902" sodipodi:open="true" sodipodi:rx="61.148819" sodipodi:ry="61.148819" sodipodi:start="3.6651914" sodipodi:type="arc" class="st2" d="
					M285.4,64.6c3.9-6.8,9.5-12.4,16.3-16.3 M301.7,125.5c-6.8-3.9-12.4-9.5-16.3-16.3 M362.6,109.2c-3.9,6.8-9.5,12.4-16.3,16.3
					 M346.3,48.3c6.8,3.9,12.4,9.5,16.3,16.3"/>
			</g>
			
				<path id="path116466" inkscape:original-d="m 949.90623,-419.22502 v 5.93672" inkscape:path-effect="#path-effect116538" class="st23" d="
				M324,67.4l0,4.2 M320.6,67.8l0.8,4.2 M317.2,68.7l1.5,4 M314.1,70.2l2.2,3.6 M311.2,72.2l2.8,3.2 M308.8,74.8l3.3,2.6
				 M306.9,77.7l3.7,2 M305.5,80.9l4,1.3 M304.8,84.3l4.2,0.6 M304.6,87.7l4.2-0.2 M305.1,91.2l4.1-0.9 M306.2,94.5l3.9-1.7
				 M307.8,97.6l3.5-2.3 M310,100.3l3.1-2.9 M312.6,102.6l2.5-3.4 M315.6,104.4l1.8-3.8 M318.9,105.6l1.1-4.1 M322.3,106.2l0.4-4.2
				 M325.8,106.2l-0.4-4.2 M329.2,105.6l-1.1-4.1 M332.5,104.4l-1.8-3.8 M335.5,102.6l-2.5-3.4 M338.1,100.3l-3.1-2.9 M340.2,97.6
				l-3.5-2.3 M341.9,94.5l-3.9-1.7 M343,91.2l-4.1-0.9 M343.4,87.7l-4.2-0.2 M343.3,84.3l-4.2,0.6 M342.5,80.9l-4,1.3 M341.1,77.7
				l-3.7,2 M339.2,74.8l-3.3,2.6 M336.8,72.2l-2.8,3.2 M334,70.2l-2.2,3.6 M330.9,68.7l-1.5,4 M327.5,67.8l-0.8,4.2"/>
			
				<path id="path116468" inkscape:original-d="m 949.90623,-421.12733 c 0,0 0,2.39364 0,4.06991" inkscape:path-effect="#path-effect116542" sodipodi:nodetypes="cc" class="st24" d="
				M324,50.7v5.1 M318.4,51.1l0.8,5 M312.8,52.4l1.6,4.8 M307.6,54.6l2.3,4.5 M302.7,57.6l3,4.1 M298.4,61.3l3.6,3.6 M294.7,65.6
				l4.1,3 M291.7,70.4l4.5,2.3 M289.6,75.7l4.8,1.6 M288.2,81.2l5,0.8 M287.8,86.9l5.1,0 M288.2,92.6l5-0.8 M289.6,98.1l4.8-1.6
				 M291.7,103.3l4.5-2.3 M294.7,108.2l4.1-3 M298.4,112.5l3.6-3.6 M302.7,116.2l3-4.1 M307.6,119.2l2.3-4.5 M312.8,121.3l1.6-4.8
				 M318.4,122.7l0.8-5 M324,123.1V118 M329.7,122.7l-0.8-5 M335.2,121.3l-1.6-4.8 M340.5,119.2l-2.3-4.5 M345.3,116.2l-3-4.1
				 M349.6,112.5l-3.6-3.6 M353.3,108.2l-4.1-3 M356.3,103.3l-4.5-2.3 M358.5,98.1l-4.8-1.6 M359.8,92.6l-5-0.8 M360.3,86.9l-5.1,0
				 M359.8,81.2l-5,0.8 M358.5,75.7l-4.8,1.6 M356.3,70.4l-4.5,2.3 M353.3,65.6l-4.1,3 M349.6,61.3l-3.6,3.6 M345.3,57.6l-3,4.1
				 M340.5,54.6l-2.3,4.5 M335.2,52.4l-1.6,4.8 M329.7,51.1l-0.8,5"/>
			
				<g id="g116472" transform="matrix(0.44209471,0.44209471,-0.44209471,0.44209471,356.62348,-638.68918)" inkscape:path-effect="#path-effect116546">
			</g>
			<path id="circle116474" class="st15" d="M324,64c12.6,0,22.9,10.2,22.9,22.9c0,12.6-10.2,22.9-22.9,22.9
				c-12.6,0-22.9-10.2-22.9-22.9C301.2,74.3,311.4,64,324,64z"/>
			<g id="g117942" transform="rotate(45,949.90623,-392.0749)" inkscape:path-effect="#path-effect117946">
				
					<path id="path117940" sodipodi:arc-type="arc" sodipodi:cx="949.90631" sodipodi:cy="-392.07495" sodipodi:end="4.1887902" sodipodi:open="true" sodipodi:rx="61.148819" sodipodi:ry="61.148819" sodipodi:start="3.6651914" sodipodi:type="arc" class="st2" d="
					M807.4,366.9c3.9-6.8,9.5-12.4,16.3-16.3 M823.7,427.8c-6.8-3.9-12.4-9.5-16.3-16.3 M884.6,411.4c-3.9,6.8-9.5,12.4-16.3,16.3
					 M868.3,350.6c6.8,3.9,12.4,9.5,16.3,16.3"/>
			</g>
		</g>
		<g id="g116568" transform="translate(-172.58727,938.92522)">
			
				<ellipse id="circle116562" transform="matrix(0.8401 -0.5425 0.5425 0.8401 331.8509 51.7263)" class="st3" cx="253.7" cy="-537" rx="41.6" ry="41.6"/>
			<g id="g116556" transform="translate(18.724083,127.74169)">
				<path id="path116552" sodipodi:nodetypes="cccc" class="st1" d="M234.9-710.6v23 M234.9-641.7v23"/>
				<path id="path116554" sodipodi:nodetypes="cccc" class="st1" d="M280.8-664.7h-23 M212-664.7h-23"/>
			</g>
			<g id="g116560" inkscape:path-effect="#path-effect116656">
				
					<path id="path116558" sodipodi:arc-type="arc" sodipodi:cx="949.90619" sodipodi:cy="-392.07492" sodipodi:end="4.4505896" sodipodi:open="true" sodipodi:rx="57.124962" sodipodi:ry="57.124962" sodipodi:start="3.403392" sodipodi:type="arc" class="st2" d="
					M213.4-547.7c3.8-14.4,15.1-25.6,29.4-29.4 M242.9-496.7c-14.4-3.8-25.6-15.1-29.4-29.4 M293.9-526.2
					c-3.8,14.4-15.1,25.6-29.4,29.4 M264.4-577.2c14.4,3.8,25.6,15.1,29.4,29.4"/>
				
					<path id="path119478" sodipodi:arc-type="arc" sodipodi:cx="949.90619" sodipodi:cy="-392.07492" sodipodi:end="4.4505896" sodipodi:open="true" sodipodi:rx="35.585613" sodipodi:ry="35.585613" sodipodi:start="3.403392" sodipodi:type="arc" class="st2" d="
					M228.6-543.7c2.4-8.9,9.4-15.9,18.3-18.3 M246.9-511.9c-8.9-2.4-15.9-9.4-18.3-18.3 M278.7-530.2c-2.4,8.9-9.4,15.9-18.3,18.3
					 M260.4-562c8.9,2.4,15.9,9.4,18.3,18.3"/>
			</g>
			
				<path id="path116564" inkscape:original-d="m 949.90623,-419.22502 v 5.93672" inkscape:path-effect="#path-effect116660" class="st25" d="
				M253.7-556.8v4.3 M250.1-556.5l0.8,4.3 M246.7-555.5l1.5,4.1 M243.5-554l2.2,3.7 M240.6-551.9l2.9,3.3 M238.1-549.3l3.4,2.7
				 M236.2-546.4l3.8,2.1 M234.8-543.1l4.1,1.3 M234-539.6l4.3,0.6 M233.8-536.1l4.3-0.2 M234.3-532.5l4.2-1 M235.4-529.2l4-1.7
				 M237.1-526l3.6-2.4 M239.3-523.2l3.1-3 M242-520.9l2.6-3.5 M245-519.1l1.9-3.9 M248.4-517.8l1.2-4.2 M251.9-517.2l0.4-4.3
				 M255.4-517.2l-0.4-4.3 M258.9-517.8l-1.2-4.2 M262.3-519.1l-1.9-3.9 M265.3-520.9l-2.6-3.5 M268-523.2l-3.1-3 M270.2-526
				l-3.6-2.4 M271.9-529.2l-4-1.7 M273-532.5l-4.2-1 M273.5-536.1l-4.3-0.2 M273.3-539.6L269-539 M272.5-543.1l-4.1,1.3
				 M271.1-546.4l-3.8,2.1 M269.2-549.3l-3.4,2.7 M266.7-551.9l-2.9,3.3 M263.8-554l-2.2,3.7 M260.6-555.5l-1.5,4.1 M257.2-556.5
				l-0.8,4.3"/>
			
				<path id="path116566" inkscape:original-d="m 949.90623,-421.12733 c 0,0 0,2.39364 0,4.06991" inkscape:path-effect="#path-effect116664" sodipodi:nodetypes="cc" class="st26" d="
				M253.7-573.5v5.1 M247.3-572.9l0.9,5 M241.2-571.3l1.8,4.8 M235.4-568.6l2.6,4.4 M230.2-564.9l3.3,3.9 M225.7-560.4l3.9,3.3
				 M222-555.2l4.4,2.6 M219.3-549.4l4.8,1.8 M217.7-543.3l5,0.9 M217.1-536.9h5.1 M217.7-530.6l5-0.9 M219.3-524.4l4.8-1.8
				 M222-518.7l4.4-2.6 M225.7-513.5l3.9-3.3 M230.2-508.9l3.3-3.9 M235.4-505.3l2.6-4.4 M241.2-502.6l1.8-4.8 M247.3-501l0.9-5
				 M253.7-500.4v-5.1 M260-501l-0.9-5 M266.2-502.6l-1.8-4.8 M271.9-505.3l-2.6-4.4 M277.1-508.9l-3.3-3.9 M281.6-513.5l-3.9-3.3
				 M285.3-518.7l-4.4-2.6 M288-524.4l-4.8-1.8 M289.6-530.6l-5-0.9 M290.2-536.9h-5.1 M289.6-543.3l-5,0.9 M288-549.4l-4.8,1.8
				 M285.3-555.2l-4.4,2.6 M281.6-560.4l-3.9,3.3 M277.1-564.9l-3.3,3.9 M271.9-568.6l-2.6,4.4 M266.2-571.3l-1.8,4.8 M260-572.9
				l-0.9,5"/>
		</g>
		<g id="g116606" transform="translate(-15.99346,938.92522)">
			
				<ellipse id="circle116592" transform="matrix(0.2316 -0.9728 0.9728 0.2316 684.6424 -207.1778)" class="st27" cx="211.2" cy="-537" rx="18.2" ry="18.2"/>
			<g id="g116574" transform="translate(18.724083,127.74169)">
				<path id="path116570" sodipodi:nodetypes="cccc" class="st1" d="M192.5-710.6v23 M192.5-641.7v23"/>
				<path id="path116572" sodipodi:nodetypes="cccc" class="st1" d="M238.4-664.7h-23 M169.5-664.7h-23"/>
				<path id="path117960" sodipodi:nodetypes="cccc" class="st1" d="M224.9-697.2l-12,12 M172-644.2l-12,12"/>
				<path id="path117962" sodipodi:nodetypes="cccc" class="st1" d="M224.9-632.2l-12-12 M172-685.2l-12-12"/>
			</g>
			<g id="g116580" inkscape:path-effect="#path-effect116668">
				
					<path id="path116576" sodipodi:arc-type="arc" sodipodi:cx="949.90625" sodipodi:cy="-392.07492" sodipodi:end="4.9741884" sodipodi:open="true" sodipodi:rx="49.425484" sodipodi:ry="49.425484" sodipodi:start="4.4505896" sodipodi:type="arc" class="st2" d="
					M201.9-571.7c6.1-1.6,12.5-1.6,18.6,0 M176.4-527.6c-1.6-6.1-1.6-12.5,0-18.6 M220.5-502.2c-6.1,1.6-12.5,1.6-18.6,0 M246-546.3
					c1.6,6.1,1.6,12.5,0,18.6"/>
				
					<path id="path116578" sodipodi:arc-type="arc" sodipodi:cx="949.90625" sodipodi:cy="-392.07492" sodipodi:end="5.3078154" sodipodi:open="true" sodipodi:rx="49.425484" sodipodi:ry="49.425484" sodipodi:start="4.1139706" sodipodi:type="arc" class="st2" d="
					M190.9-566.7c12.2-8.3,28.3-8.3,40.5-0.1 M181.4-516.7c-8.3-12.2-8.3-28.3-0.1-40.5 M231.5-507.2c-12.2,8.3-28.3,8.3-40.5,0.1
					 M240.9-557.2c8.3,12.2,8.3,28.3,0.1,40.5"/>
			</g>
			<circle id="circle116582" class="st4" cx="211.2" cy="-537" r="28.7"/>
			
				<path id="path116584" inkscape:original-d="m 949.90623,-419.22502 4.68858,3.69148" inkscape:path-effect="#path-effect116672" sodipodi:nodetypes="cc" class="st28" d="
				M211.2-556.3l3.3,2.6 M207.7-556l3.8,2 M204.4-555l4,1.3 M201.3-553.5l4.2,0.5 M198.5-551.5l4.2-0.2 M196.1-549l4.1-1
				 M194.2-546.1l3.9-1.7 M192.8-542.9l3.5-2.4 M192-539.5l3-3 M191.9-536.1l2.5-3.4 M192.4-532.7l1.8-3.8 M193.4-529.4l1.1-4.1
				 M195.1-526.3l0.4-4.2 M197.2-523.6l-0.4-4.2 M199.8-521.3l-1.2-4.1 M202.8-519.6l-1.9-3.8 M206-518.3l-2.5-3.4 M209.5-517.7
				l-3.1-2.9 M212.9-517.7l-3.6-2.3 M216.3-518.3l-3.9-1.6 M219.6-519.6l-4.1-0.9 M222.5-521.3l-4.2-0.2 M225.1-523.6l-4.2,0.6
				 M227.3-526.3l-4,1.3 M228.9-529.4l-3.7,2 M230-532.7l-3.3,2.7 M230.5-536.1l-2.8,3.2 M230.3-539.5l-2.2,3.7 M229.5-542.9l-1.5,4
				 M228.2-546.1l-0.7,4.2 M226.3-549l0,4.2 M223.9-551.5l0.8,4.2 M221.1-553.5l1.5,4 M218-555l2.2,3.6 M214.6-556l2.8,3.2"/>
			
				<path id="path116586" inkscape:original-d="m 949.90623,-421.12733 v 2.09886" inkscape:path-effect="#path-effect116676" sodipodi:nodetypes="cc" class="st29" d="
				M211.2-565.5v2.1 M209-565.4l0.2,2.1 M206.8-565.2l0.3,2 M204.7-564.8l0.5,2 M202.6-564.2l0.6,2 M200.5-563.4l0.8,1.9
				 M198.5-562.5l0.9,1.8 M196.6-561.5l1.1,1.8 M194.7-560.3l1.2,1.7 M193-559l1.3,1.6 M191.4-557.5l1.4,1.5 M189.9-556l1.5,1.4
				 M188.5-554.3l1.6,1.3 M187.2-552.5l1.7,1.1 M186.1-550.6l1.8,1 M185.1-548.6l1.9,0.8 M184.3-546.6l1.9,0.7 M183.6-544.5l2,0.5
				 M183.1-542.4l2,0.4 M182.8-540.2l2.1,0.2 M182.6-538l2.1,0.1 M182.6-535.8l2.1-0.1 M182.8-533.7l2.1-0.2 M183.1-531.5l2-0.4
				 M183.6-529.4l2-0.5 M184.3-527.3l1.9-0.7 M185.1-525.3l1.9-0.8 M186.1-523.3l1.8-1 M187.2-521.4l1.7-1.1 M188.5-519.6l1.6-1.3
				 M189.9-517.9l1.5-1.4 M191.4-516.4l1.4-1.5 M193-514.9l1.3-1.6 M194.7-513.6l1.2-1.7 M196.6-512.4l1.1-1.8 M198.5-511.3l0.9-1.8
				 M200.5-510.4l0.8-1.9 M202.6-509.7l0.6-2 M204.7-509.1l0.5-2 M206.8-508.7l0.3-2 M209-508.5l0.2-2.1 M211.2-508.4v-2.1
				 M213.4-508.5l-0.2-2.1 M215.5-508.7l-0.3-2 M217.7-509.1l-0.5-2 M219.8-509.7l-0.6-2 M221.9-510.4l-0.8-1.9 M223.9-511.3
				l-0.9-1.8 M225.8-512.4l-1.1-1.8 M227.6-513.6l-1.2-1.7 M229.4-514.9l-1.3-1.6 M231-516.4l-1.4-1.5 M232.5-517.9l-1.5-1.4
				 M233.9-519.6l-1.6-1.3 M235.2-521.4l-1.7-1.1 M236.3-523.3l-1.8-1 M237.3-525.3l-1.9-0.8 M238.1-527.3l-1.9-0.7 M238.7-529.4
				l-2-0.5 M239.2-531.5l-2-0.4 M239.6-533.7l-2.1-0.2 M239.7-535.8l-2.1-0.1 M239.7-538l-2.1,0.1 M239.6-540.2l-2.1,0.2
				 M239.2-542.4l-2,0.4 M238.7-544.5l-2,0.5 M238.1-546.6l-1.9,0.7 M237.3-548.6l-1.9,0.8 M236.3-550.6l-1.8,1 M235.2-552.5
				l-1.7,1.1 M233.9-554.3l-1.6,1.3 M232.5-556l-1.5,1.4 M231-557.5l-1.4,1.5 M229.4-559l-1.3,1.6 M227.6-560.3l-1.2,1.7
				 M225.8-561.5l-1.1,1.8 M223.9-562.5l-0.9,1.8 M221.9-563.4l-0.8,1.9 M219.8-564.2l-0.6,2 M217.7-564.8l-0.5,2 M215.5-565.2
				l-0.3,2 M213.4-565.4l-0.2,2.1"/>
			<g id="g116590" transform="matrix(0.63109733,0,0,0.63109733,350.42295,-144.63748)" inkscape:path-effect="#path-effect116680">
				
					<path id="path116588" sodipodi:arc-type="arc" sodipodi:cx="949.90625" sodipodi:cy="-392.07492" sodipodi:end="4.8339045" sodipodi:open="true" sodipodi:rx="49.425484" sodipodi:ry="49.425484" sodipodi:start="4.5843157" sodipodi:type="arc" class="st8" d="
					M-225.2-657.4c3-0.4,6-0.4,9,0 M-256.4-617c-0.4-3-0.4-6,0-9 M-216-585.9c-3,0.4-6,0.4-9,0 M-184.9-626.2c0.4,3,0.4,6,0,9"/>
			</g>
			
				<g id="g116598" transform="matrix(0.61569568,0.35547207,-0.35547207,0.61569568,225.6814,-488.34121)" inkscape:path-effect="#path-effect116684">
			</g>
			
				<g id="g116604" transform="matrix(0.35547207,0.61569568,-0.61569568,0.35547207,370.84229,-837.55639)" inkscape:path-effect="#path-effect116688">
			</g>
			<g id="g117954" transform="rotate(45,949.90623,-392.0749)" inkscape:path-effect="#path-effect117958">
				
					<path id="path117950" sodipodi:arc-type="arc" sodipodi:cx="949.90625" sodipodi:cy="-392.07492" sodipodi:end="4.8210295" sodipodi:open="true" sodipodi:rx="49.425484" sodipodi:ry="49.425484" sodipodi:start="4.6102482" sodipodi:type="arc" class="st2" d="
					M321.4-8c2.5-0.3,5.1-0.3,7.6,0 M289.3,31.5c-0.3-2.5-0.3-5.1,0-7.6 M328.8,63.7c-2.5,0.3-5.1,0.2-7.6,0 M360.9,24.2
					c0.3,2.5,0.3,5.1,0,7.6"/>
			</g>
		</g>
		<g id="g116634" transform="rotate(45,-113.10661,247.27619)">
			<g id="g116616" transform="translate(18.724083,127.74169)">
				<path id="path116608" sodipodi:nodetypes="cccc" class="st1" d="M276.3-110.6l0,20.4 M276.3-49.5v20.4"/>
				<path id="path116610" sodipodi:nodetypes="cccc" class="st1" d="M317.1-69.8l-20.4,0 M255.9-69.8l-20.4,0"/>
				<path id="path116612" sodipodi:nodetypes="cccc" class="st1" d="M243.9-102.3l16.2,16.2 M292.6-53.6l16.2,16.2"/>
				<path id="path116614" sodipodi:nodetypes="cccc" class="st1" d="M243.9-37.4l16.2-16.2 M292.6-86.1l16.2-16.2"/>
			</g>
			<g id="g116620" transform="rotate(45,949.90623,-392.0749)" inkscape:path-effect="#path-effect116692">
				
					<path id="path116618" sodipodi:arc-type="arc" sodipodi:cx="949.90631" sodipodi:cy="-392.07495" sodipodi:end="4.1887902" sodipodi:open="true" sodipodi:rx="57.697697" sodipodi:ry="57.697697" sodipodi:start="3.6651914" sodipodi:type="arc" class="st2" d="
					M768.6,368.1c3.7-6.4,9-11.7,15.4-15.4 M784,425.6c-6.4-3.7-11.7-9-15.4-15.4 M841.4,410.2c-3.7,6.4-9,11.7-15.4,15.4
					 M826.1,352.7c6.4,3.7,11.7,9,15.4,15.4"/>
			</g>
			
				<ellipse id="circle116622" transform="matrix(0.1669 -0.986 0.986 0.1669 188.7249 339.1436)" class="st11" cx="295" cy="57.9" rx="35.4" ry="35.4"/>
			
				<path id="path116624" inkscape:original-d="m 949.90623,-419.22502 v 5.93672" inkscape:path-effect="#path-effect116696" class="st12" d="
				M295,35.5l0,4.9 M291.6,35.8l0.8,4.8 M288.1,36.6l1.5,4.6 M284.9,38l2.2,4.4 M281.9,39.8l2.9,4 M279.2,42.1l3.5,3.5 M277,44.8
				l4,2.9 M275.1,47.7l4.4,2.2 M273.8,51l4.6,1.5 M273,54.4l4.8,0.8 M272.7,57.9l4.9,0 M273,61.4l4.8-0.8 M273.8,64.8l4.6-1.5
				 M275.1,68l4.4-2.2 M277,71l4-2.9 M279.2,73.7l3.5-3.5 M281.9,76l2.9-4 M284.9,77.8l2.2-4.4 M288.1,79.2l1.5-4.6 M291.5,80
				l0.8-4.8 M295,80.2v-4.9 M298.5,80l-0.8-4.8 M302,79.2l-1.5-4.6 M305.2,77.8l-2.2-4.4 M308.2,76l-2.9-4 M310.9,73.7l-3.5-3.5
				 M313.1,71l-4-2.9 M315,68l-4.4-2.2 M316.3,64.8l-4.6-1.5 M317.1,61.4l-4.8-0.8 M317.4,57.9h-4.9 M317.1,54.4l-4.8,0.8 M316.3,51
				l-4.6,1.5 M315,47.7l-4.4,2.2 M313.1,44.8l-4,2.9 M310.9,42.1l-3.5,3.5 M308.2,39.8l-2.9,4 M305.2,38l-2.2,4.4 M302,36.6
				l-1.5,4.6 M298.5,35.8l-0.8,4.8"/>
			
				<g id="g116630" transform="matrix(0.44209471,0.44209471,-0.44209471,0.44209471,356.62348,-638.68918)" inkscape:path-effect="#path-effect116704">
				
					<path id="path116628" sodipodi:arc-type="arc" sodipodi:cx="949.90625" sodipodi:cy="-392.07492" sodipodi:end="4.1887902" sodipodi:open="true" sodipodi:rx="43.229576" sodipodi:ry="43.229576" sodipodi:start="3.6651914" sodipodi:type="arc" class="st30" d="
					M690.9,841.7c2.8-4.8,6.7-8.8,11.5-11.5 M702.4,884.7c-4.8-2.8-8.8-6.7-11.5-11.5 M745.5,873.2c-2.8,4.8-6.7,8.8-11.5,11.5
					 M733.9,830.2c4.8,2.8,8.8,6.7,11.5,11.5"/>
			</g>
			<circle id="circle117948" class="st22" cx="295" cy="57.9" r="32.8"/>
		</g>
		
			<path id="path118375" inkscape:flatsided="true" inkscape:path-effect="#path-effect118379" inkscape:randomized="0" inkscape:rounded="0" inkscape:transform-center-x="0.61811742" inkscape:transform-center-y="2.2045595" sodipodi:arg1="-1.5662063" sodipodi:arg2="-0.51900864" sodipodi:cx="863.73944" sodipodi:cy="346.58304" sodipodi:r1="10.134922" sodipodi:r2="8.0777674" sodipodi:sides="3" sodipodi:type="star" class="st31" d="
			M91.3,255.3l1.8,7l-7-2L91.3,255.3z M80.1,253.9l3.8,6.2l-7.3,0.2L80.1,253.9z M69,255.8l5.4,4.8l-6.9,2.3L69,255.8z M58.9,261
			l6.6,3l-5.9,4.2L58.9,261z M50.8,268.9l7.2,0.9l-4.4,5.8L50.8,268.9z M45.4,278.9l7.1-1.2l-2.5,6.8L45.4,278.9z M43.1,290l6.5-3.3
			l-0.4,7.2L43.1,290z M44.2,301.2l5.2-5l1.8,7L44.2,301.2z M48.7,311.7l3.5-6.4l3.8,6.2L48.7,311.7z M55.9,320.3l1.5-7.1l5.4,4.8
			L55.9,320.3z M65.5,326.5l-0.7-7.2l6.6,3L65.5,326.5z M76.4,329.5l-2.8-6.7l7.2,0.9L76.4,329.5z M87.7,329.3l-4.6-5.6l7.1-1.2
			L87.7,329.3z M98.4,325.6l-6.1-4l6.5-3.3L98.4,325.6z M107.6,319l-7-2l5.2-5L107.6,319z M114.4,310l-7.3,0.2l3.5-6.4L114.4,310z
			 M118.3,299.4l-6.9,2.3l1.5-7.1L118.3,299.4z M118.9,288l-5.9,4.2l-0.7-7.2L118.9,288z M116.1,277.1l-4.4,5.8l-2.8-6.7
			L116.1,277.1z M110.2,267.4l-2.5,6.8l-4.6-5.6L110.2,267.4z M101.7,259.9l-0.4,7.2l-6.1-4L101.7,259.9z"/>
		<path id="path118963" sodipodi:nodetypes="cccc" class="st19" d="M60,291.8h10.5 M91.6,291.8h10.5"/>
		<path id="path119265" sodipodi:nodetypes="cccc" class="st19" d="M81.1,312.9v-10.5 M81.1,281.3v-10.5"/>
		<g id="g119504" transform="rotate(45,-34.739775,436.47047)">
			<g id="g119488" transform="translate(18.724083,127.74169)">
				<path id="path119480" sodipodi:nodetypes="cccc" class="st1" d="M246.3-80.6v20.4 M246.3-19.4V1"/>
				<path id="path119482" sodipodi:nodetypes="cccc" class="st1" d="M287.1-39.8l-20.4,0 M225.9-39.8l-20.4,0"/>
				<path id="path119484" sodipodi:nodetypes="cccc" class="st1" d="M213.8-72.3L230-56 M262.5-23.6l16.2,16.2"/>
				<path id="path119486" sodipodi:nodetypes="cccc" class="st1" d="M213.8-7.3L230-23.6 M262.5-56l16.2-16.2"/>
			</g>
			<g id="g119492" transform="rotate(45,949.90623,-392.0749)" inkscape:path-effect="#path-effect119508">
				
					<path id="path119490" sodipodi:arc-type="arc" sodipodi:cx="949.90625" sodipodi:cy="-392.07492" sodipodi:end="4.1887902" sodipodi:open="true" sodipodi:rx="40.407463" sodipodi:ry="40.407463" sodipodi:start="3.6651914" sodipodi:type="arc" class="st2" d="
					M779.5,416.9c2.6-4.5,6.3-8.2,10.8-10.8 M790.3,457.2c-4.5-2.6-8.2-6.3-10.8-10.8 M830.5,446.4c-2.6,4.5-6.3,8.2-10.8,10.8
					 M819.8,406.2c4.5,2.6,8.2,6.3,10.8,10.8"/>
			</g>
			<circle id="circle119494" class="st11" cx="265" cy="88" r="40.5"/>
			
				<g id="g119500" transform="matrix(0.44209471,0.44209471,-0.44209471,0.44209471,356.62348,-638.68918)" inkscape:path-effect="#path-effect119516">
				
					<path id="path119498" sodipodi:arc-type="arc" sodipodi:cx="949.90625" sodipodi:cy="-392.07492" sodipodi:end="4.1887902" sodipodi:open="true" sodipodi:rx="43.229576" sodipodi:ry="43.229576" sodipodi:start="3.6651914" sodipodi:type="arc" class="st30" d="
					M690.9,909.7c2.8-4.8,6.7-8.8,11.5-11.5 M702.4,952.7c-4.8-2.8-8.8-6.7-11.5-11.5 M745.5,941.2c-2.8,4.8-6.7,8.8-11.5,11.5
					 M733.9,898.2c4.8,2.8,8.8,6.7,11.5,11.5"/>
				
					<path id="path119556" sodipodi:arc-type="arc" sodipodi:cx="949.90625" sodipodi:cy="-392.07492" sodipodi:end="4.1887902" sodipodi:open="true" sodipodi:rx="52.472153" sodipodi:ry="52.472153" sodipodi:start="3.6651914" sodipodi:type="arc" class="st30" d="
					M685.1,906.3c3.4-5.8,8.2-10.6,14-14 M699.1,958.6c-5.8-3.4-10.6-8.2-14-14 M751.3,944.6c-3.4,5.8-8.2,10.6-14,14 M737.3,892.3
					c5.8,3.4,10.6,8.2,14,14"/>
			</g>
			
				<ellipse id="circle119502" transform="matrix(0.9596 -0.2813 0.2813 0.9596 -14.0417 78.1074)" class="st22" cx="265" cy="88" rx="37.2" ry="37.2"/>
			
				<g id="g119562" transform="matrix(0,0.62521634,-0.62521634,0,704.77461,-985.97179)" inkscape:path-effect="#path-effect119566">
				
					<path id="path119558" sodipodi:arc-type="arc" sodipodi:cx="949.90625" sodipodi:cy="-392.07492" sodipodi:end="4.1887902" sodipodi:open="true" sodipodi:rx="43.229576" sodipodi:ry="43.229576" sodipodi:start="3.6651914" sodipodi:type="arc" class="st30" d="
					M1690.4,687.7c2.8-4.8,6.7-8.8,11.5-11.5 M1701.9,730.7c-4.8-2.8-8.8-6.7-11.5-11.5 M1745,719.2c-2.8,4.8-6.7,8.8-11.5,11.5
					 M1733.4,676.1c4.8,2.8,8.8,6.7,11.5,11.5"/>
				
					<path id="path119560" sodipodi:arc-type="arc" sodipodi:cx="949.90625" sodipodi:cy="-392.07492" sodipodi:end="4.1887902" sodipodi:open="true" sodipodi:rx="68.131836" sodipodi:ry="68.131836" sodipodi:start="3.6651914" sodipodi:type="arc" class="st30" d="
					M1674.7,678.6c4.4-7.5,10.6-13.8,18.2-18.2 M1692.9,746.4c-7.5-4.4-13.8-10.6-18.2-18.2 M1760.7,728.2
					c-4.4,7.5-10.6,13.8-18.2,18.2 M1742.5,660.4c7.5,4.4,13.8,10.6,18.2,18.2"/>
			</g>
		</g>
		<g id="g119542" transform="rotate(45,147.66698,360.91512)">
			<g id="g119526" transform="translate(18.724083,127.74169)">
				<path id="path119518" sodipodi:nodetypes="cccc" class="st1" d="M275.2-51.6v20.4 M275.2,9.6l0,20.4"/>
				<path id="path119520" sodipodi:nodetypes="cccc" class="st1" d="M316-10.8h-20.4 M254.9-10.8l-20.4,0"/>
			</g>
			<g id="g119530" transform="rotate(45,949.90623,-392.0749)" inkscape:path-effect="#path-effect119546">
				
					<path id="path119528" sodipodi:arc-type="arc" sodipodi:cx="949.90631" sodipodi:cy="-392.07495" sodipodi:end="4.1887902" sodipodi:open="true" sodipodi:rx="57.697697" sodipodi:ry="57.697697" sodipodi:start="3.6651914" sodipodi:type="arc" class="st2" d="
					M809.6,410.6c3.7-6.4,9-11.7,15.4-15.4 M825,468.1c-6.4-3.7-11.7-9-15.4-15.4 M882.4,452.7c-3.7,6.4-9,11.7-15.4,15.4
					 M867,395.3c6.4,3.7,11.7,9,15.4,15.4"/>
			</g>
			<circle id="circle119532" class="st11" cx="294" cy="116.9" r="35.4"/>
			
				<path id="path119534" inkscape:original-d="m 948.54117,-419.32981 2.64083,0.09" inkscape:path-effect="#path-effect119550" sodipodi:nodetypes="cc" class="st32" d="
				M292.5,87.1l2.9,0.1 M287.8,87.7l2.9-0.4 M283.3,89l2.8-0.8 M279.1,91l2.6-1.2 M275.2,93.7l2.4-1.6 M271.8,96.9l2.1-2 M269,100.6
				l1.8-2.3 M266.7,104.7l1.4-2.5 M265.1,109.1l1-2.7 M264.3,113.7l0.5-2.8 M264.1,118.4l0.1-2.9 M264.7,123.1l-0.4-2.9
				 M266.1,127.6l-0.8-2.8 M268.1,131.8l-1.2-2.6 M270.7,135.7l-1.6-2.4 M273.9,139.1l-2-2.1 M277.6,141.9l-2.3-1.8 M281.8,144.2
				l-2.5-1.4 M286.2,145.8l-2.7-1 M290.8,146.6l-2.8-0.5 M295.5,146.8l-2.9-0.1 M300.1,146.2l-2.9,0.4 M304.6,144.8l-2.8,0.8
				 M308.8,142.8l-2.6,1.2 M312.7,140.2l-2.4,1.6 M316.1,137l-2.1,2 M319,133.3l-1.8,2.3 M321.2,129.1l-1.4,2.5 M322.8,124.7l-1,2.7
				 M323.7,120.1l-0.5,2.8 M323.8,115.4l-0.1,2.9 M323.2,110.8l0.4,2.9 M321.9,106.3l0.8,2.8 M319.9,102.1l1.2,2.6 M317.2,98.2
				l1.6,2.4 M314,94.8l2,2.1 M310.3,91.9l2.3,1.8 M306.2,89.7l2.5,1.4 M301.8,88.1l2.7,1 M297.2,87.2l2.8,0.5"/>
			
				<g id="g119538" transform="matrix(0.44209471,0.44209471,-0.44209471,0.44209471,356.62348,-638.68918)" inkscape:path-effect="#path-effect119554">
				
					<path id="path119536" sodipodi:arc-type="arc" sodipodi:cx="949.90625" sodipodi:cy="-392.07492" sodipodi:end="4.1887902" sodipodi:open="true" sodipodi:rx="43.229576" sodipodi:ry="43.229576" sodipodi:start="3.6651914" sodipodi:type="arc" class="st30" d="
					M756.4,909.7c2.8-4.8,6.7-8.8,11.5-11.5 M768,952.7c-4.8-2.8-8.8-6.7-11.5-11.5 M811,941.2c-2.8,4.8-6.7,8.8-11.5,11.5
					 M799.5,898.2c4.8,2.8,8.8,6.7,11.5,11.5"/>
			</g>
			<circle id="circle119540" class="st22" cx="294" cy="116.9" r="32.8"/>
		</g>
	</g>
</g>
</svg>
