# Blender v2.80 (sub 75) OBJ File: 'hex1.blend'
# www.blender.org
mtllib hex1.mtl
o Circle_Circle.002
v 0.000000 0.000000 0.000000
v 0.000000 0.000000 -1.000000
v -0.866025 0.000000 -0.500000
v -0.866025 0.000000 0.500000
v 0.000000 0.000000 1.000000
v 0.866025 0.000000 0.500000
v 0.866025 0.000000 -0.500000
vt 0.500000 0.500000
vt 0.500000 1.000000
vt 0.066987 0.750000
vt 0.066987 0.250000
vt 0.500000 0.000000
vt 0.933013 0.250000
vt 0.933013 0.750000
vn 0.0000 1.0000 0.0000
usemtl None
s off
f 1/1/1 2/2/1 3/3/1
f 1/1/1 3/3/1 4/4/1
f 1/1/1 4/4/1 5/5/1
f 1/1/1 5/5/1 6/6/1
f 1/1/1 6/6/1 7/7/1
f 1/1/1 7/7/1 2/2/1
o Circle.001_Circle
v 0.005000 0.000000 -0.993634
v 0.005000 0.000000 -0.006366
v 0.860000 0.000000 -0.500000
l 9 8
l 10 9
l 8 10
o Circle.002_Circle.001
v 0.010000 0.000000 0.000000
v 0.865000 0.000000 0.493634
v 0.865000 0.000000 -0.493634
l 12 11
l 13 12
l 11 13
o Circle.003_Circle.004
v 0.005000 0.000000 0.006366
v 0.005000 0.000000 0.993634
v 0.860000 0.000000 0.500000
l 15 14
l 16 15
l 14 16
o Circle.004_Circle.005
v -0.865000 0.000000 -0.493634
v -0.865000 0.000000 0.493634
v -0.010000 0.000000 -0.000000
l 18 17
l 19 18
l 17 19
o Circle.005_Circle.006
v -0.860000 0.000000 -0.500000
v -0.005000 0.000000 -0.006366
v -0.005000 0.000000 -0.993634
l 21 20
l 22 21
l 20 22
o Circle.006_Circle.007
v -0.860000 0.000000 0.500000
v -0.005000 0.000000 0.993634
v -0.005000 0.000000 0.006366
l 24 23
l 25 24
l 23 25
