# Blender v2.78 (sub 0) OBJ File: ''
# www.blender.org
mtllib trap1.mtl
o Circle_Circle.002
v 0.031196 0.299270 -0.095837
v 0.000000 0.000000 -1.000000
v -0.866025 0.000000 -0.500000
v -0.866025 -0.000000 0.500000
v 0.000000 -0.000000 1.000000
v 0.866025 -0.000000 0.500000
v 0.866025 0.000000 -0.500000
v 0.000000 0.359029 -0.466034
v -0.455828 -0.000000 0.263173
v 0.000000 0.000000 -0.409846
v -0.433643 0.000000 -0.250364
v 0.397289 0.160047 0.229375
v 0.006671 -0.000000 0.472361
v 0.408452 0.000000 -0.235820
v -0.396022 0.000000 -0.771356
v 0.467720 -0.000000 0.729962
v 0.470471 -0.000000 0.728373
v -0.688941 0.237459 -0.170534
v 0.441033 0.203080 -0.483332
v 0.089065 0.000000 -0.469528
v 0.866025 -0.000000 0.013494
v -0.866025 0.000000 -0.115162
v 0.473090 0.000000 -0.726861
v -0.389198 -0.000000 0.775296
v -0.238148 -0.000000 -0.490036
v -0.319144 0.186226 -0.419242
v -0.354565 -0.000000 -0.529950
v -0.274744 0.141239 -0.558434
v 0.211229 0.135878 0.121953
v -0.225191 0.139468 -0.130014
v 0.216686 0.136217 -0.125104
v 0.000000 0.104710 -0.261932
v 0.003122 0.154364 0.080786
v -0.196912 0.164801 -0.026573
v 0.194190 -0.000000 0.577133
v 0.374318 0.000000 -0.250363
v 0.538357 0.000000 -0.310821
v -0.266451 -0.000000 0.348828
v 0.273092 -0.055490 0.157670
v 0.005064 0.298729 0.599434
v 0.588401 0.000000 -0.137773
v 0.003591 0.424325 0.386061
v 0.569869 -0.000000 0.149891
v 0.503442 0.173258 -0.485779
v 0.371160 0.026490 -0.214289
v -0.126254 -0.000000 0.574081
v 0.558744 -0.000000 0.322591
v -0.436785 0.193183 0.409543
v 0.419958 0.071721 -0.323232
v 0.418048 -0.000000 0.370923
vt 0.5000 0.5000
vt 0.5000 0.6310
vt 0.3874 0.5650
vt 0.4015 0.4432
vt 0.5000 0.3895
vt 0.6056 0.4390
vt 0.6083 0.5626
vt 0.5000 0.7330
vt 0.5445 0.7348
vt 0.7365 0.8634
vt 0.5000 1.0000
vt 0.2721 0.3684
vt 0.1555 0.5853
vt 0.0670 0.5576
vt 0.0670 0.7500
vt 0.2832 0.6252
vt 0.5000 0.7049
vt 0.6872 0.6252
vt 0.7100 0.6616
vt 0.7205 0.7417
vt 0.5000 0.2638
vt 0.3654 0.3256
vt 0.2816 0.2952
vt 0.4347 0.2130
vt 0.6986 0.3853
vt 0.5951 0.2114
vt 0.7090 0.3145
vt 0.3809 0.7450
vt 0.3404 0.7096
vt 0.3227 0.7650
vt 0.3020 0.8857
vt 0.7042 0.6179
vt 0.7849 0.4251
vt 0.7942 0.5689
vt 0.0670 0.2500
vt 0.7352 0.1358
vt 0.9330 0.2500
vt 0.7794 0.3387
vt 0.7339 0.1350
vt 0.5000 0.2003
vt 0.5000 0.0000
vt 0.7517 0.7429
vt 0.9330 0.7500
vt 0.9330 0.4933
vt 0.7692 0.6554
vt 0.3054 0.1124
vt 0.3626 0.7792
vt 0.6856 0.6071
vt 0.5000 0.3729
vt 0.6365 0.4212
vn 0.0539 0.9887 -0.1397
vn 0.0109 0.7644 -0.6446
vn -0.4306 0.8458 -0.3151
vn -0.5093 0.8589 0.0540
vn -0.0944 0.9620 0.2561
vn 0.6611 0.7476 0.0625
vn 0.6075 0.7550 -0.2470
vn -0.0226 0.9960 0.0868
vn 0.1546 0.9275 0.3404
vn 0.2085 0.8466 -0.4897
vn -0.0663 0.9959 -0.0609
vn -0.1788 0.9788 -0.0997
vn -0.0890 0.9959 -0.0145
vn -0.5910 0.7673 0.2491
vn -0.1409 0.9582 -0.2489
vn 0.0682 0.9806 -0.1836
vn -0.0878 0.9950 0.0472
vn -0.0306 0.9989 -0.0354
vn 0.0249 0.8214 0.5698
vn -0.0065 0.9991 -0.0408
vn 0.1403 0.9897 -0.0275
vn -0.0640 0.9919 -0.1100
vn 0.0445 0.9923 -0.1152
vn -0.1213 0.9819 -0.1455
vn 0.2444 0.9395 0.2400
vn 0.3219 0.9435 0.0793
vn 0.1006 0.9358 0.3380
vn 0.0255 0.9969 -0.0743
vn 0.0196 0.9982 -0.0573
vn 0.0144 0.9990 -0.0419
vn -0.2795 0.9595 -0.0350
vn 0.0130 0.9944 0.1047
vn 0.2732 0.9608 -0.0475
vn 0.1355 0.9891 -0.0567
vn -0.2048 0.9784 0.0266
vn -0.0000 1.0000 0.0000
vn 0.1823 0.9743 0.1322
vn 0.1648 0.9834 0.0757
vn -0.0245 0.9753 -0.2197
vn -0.0429 0.9735 0.2246
vn 0.4318 0.9016 0.0265
vn 0.2243 0.9745 -0.0026
vn 0.1942 0.9215 0.3364
vn -0.2325 0.9441 0.2335
vn 0.0847 0.9653 -0.2471
vn 0.0232 0.9221 -0.3862
vn 0.0676 0.9364 0.3444
vn 0.3034 0.9492 0.0833
usemtl None
s 1
f 1/1/1 32/2/2 30/3/3
f 1/1/1 30/3/3 34/4/4
f 1/1/1 34/4/4 33/5/5
f 1/1/1 33/5/5 29/6/6
f 1/1/1 29/6/6 31/7/7
f 1/1/1 31/7/7 32/2/2
f 8/8/8 20/9/9 23/10/10 2/11/11
f 9/12/12 18/13/13 22/14/14
f 3/15/15 18/13/13 11/16/16
f 10/17/17 36/18/18 49/19/19 19/20/20 20/9/9
f 13/21/21 38/22/22 48/23/23 46/24/24
f 12/25/25 13/21/21 35/26/26 50/27/27
f 11/16/16 10/17/17 25/28/28 26/29/29 27/30/30 15/31/31
f 14/32/32 12/25/25 43/33/33 41/34/34
f 18/13/13 3/15/15 22/14/14
f 22/14/14 4/35/35 9/12/12
f 17/36/36 6/37/36 47/38/37 50/27/27
f 16/39/38 35/26/26 40/40/39 5/41/40
f 11/16/16 18/13/13 9/12/12
f 10/17/17 8/8/8 2/11/11 15/31/31
f 15/31/31 3/15/15 11/16/16
f 20/9/9 8/8/8 10/17/17
f 19/20/20 49/19/19 44/42/41
f 23/10/10 19/20/20 44/42/41 7/43/42
f 19/20/20 23/10/10 20/9/9
f 12/25/25 47/38/37 43/33/33
f 21/44/36 7/43/42 37/45/43 41/34/34
f 9/12/12 4/35/35 24/46/44 48/23/23
f 24/46/44 5/41/40 40/40/39 46/24/24
f 15/31/31 27/30/30 28/47/45 25/28/28 10/17/17
f 25/28/28 28/47/45 27/30/30 26/29/29
f 34/4/4 30/3/3 11/16/16 9/12/12
f 32/2/2 31/7/7 45/48/46 36/18/18 10/17/17
f 33/5/5 34/4/4 9/12/12 38/22/22 42/49/47
f 29/6/6 33/5/5 42/49/47 39/50/48
f 30/3/3 32/2/2 10/17/17 11/16/16
f 31/7/7 29/6/6 39/50/48 45/48/46
f 45/48/46 39/50/48 12/25/25 14/32/32
f 49/19/19 36/18/18 14/32/32
f 50/27/27 35/26/26 16/39/38 17/36/36
f 41/34/34 43/33/33 21/44/36
f 40/40/39 35/26/26 13/21/21
f 43/33/33 47/38/37 6/37/36 21/44/36
f 42/49/47 38/22/22 13/21/21
f 46/24/24 48/23/23 24/46/44
f 48/23/23 38/22/22 9/12/12
f 50/27/27 47/38/37 12/25/25
f 44/42/41 49/19/19 14/32/32 37/45/43
f 37/45/43 7/43/42 44/42/41
f 41/34/34 37/45/43 14/32/32
f 46/24/24 40/40/39 13/21/21
f 36/18/18 45/48/46 14/32/32
f 39/50/48 42/49/47 13/21/21 12/25/25
